<?xml version="1.0" encoding="UTF-8"?>
<svg id="uuid-8104d405-6220-498d-88d3-1f9df9ad071a" data-name="Layer 2" xmlns="http://www.w3.org/2000/svg" width="75.8" height="75.8" viewBox="0 0 75.8 75.8">
  <defs>
    <style>
      .uuid-e83d8139-d426-44c4-ad2b-137f555c4641 {
        fill: #fff;
      }

      .uuid-3106d686-3d67-4ae0-9c9a-959762338368 {
        fill: #1c396a;
      }
    </style>
  </defs>
  <g id="uuid-96723e71-4816-4606-904b-46193bac033f" data-name="home">
    <g>
      <circle class="uuid-3106d686-3d67-4ae0-9c9a-959762338368" cx="37.9" cy="37.9" r="37.9" transform="translate(-5.5 69.4) rotate(-81)"/>
      <g>
        <path class="uuid-e83d8139-d426-44c4-ad2b-137f555c4641" d="M47.6,20.2l1.5-.2c1.6-.1,3.2,0,4.8,.3l1.3,.3,1.4,.5c.3,.2,.5,.3,.8,.4l.8,.4c.4,.3,.9,.6,1.4,.8l.4,.3,1.1,.8c.2,.3,.5,.5,.8,.7l.8,.8,.6,.7,.9,1.1,.3,.4,.9,1.5,.3,.7c.1,.3,.2,.6,.4,.8l.4,1.3v.2c0,0,0,0,0,0l.4,1.5c.3,1.5,.3,3,.2,4.6,0,1-.3,2-.5,3-.2,.5-.3,.9-.5,1.4-.4,1-.9,2-1.4,2.9l-.5,.8-.6,.9h0l-.2,.2c-3.8,4.2-7.9,8-11.9,12.1-1.8,1.9-3.7,3.7-5.5,5.5-1,.9-1.9,1.9-2.9,2.8-.9,.9-1.7,1.7-2.6,2.6-1.1,1-2.3,1.5-3.7,1-.6-.2-1.1-.6-1.5-1l-.3-.3-.4-.8v-.2h-.1c0-.2,0-.3,0-.4v-.2c0-.5,0-1.1,0-1.6,.2-.5,.5-1,.8-1.4h0c.5-.5,1.1-1,1.5-1.5h0c.6-.4,1.1-1,1.5-1.5h0c.6-.4,1.1-1,1.5-1.5h0c.6-.5,1.1-1,1.5-1.5h0c.6-.5,1.1-1,1.5-1.5h0c.6-.4,1.1-1,1.5-1.5h0c.6-.4,1.1-1,1.5-1.5h0c.6-.5,1.1-1,1.5-1.5h0c.5-.5,1.1-1,1.5-1.5h0c.1,0,.2,0,.1-.2-.3-.3-.6-.5-.9-.9-.2-.3-.4-.3-.6,0,0,0-.1,.2-.2,.2-.3,.2-.6,.5-.8,.8-.3,.2-.5,.4-.7,.7-.3,.2-.6,.5-.8,.8-.3,.2-.5,.4-.7,.7-.3,.2-.6,.5-.8,.8-.3,.2-.5,.4-.7,.7-.3,.2-.6,.5-.8,.8-.3,.2-.5,.4-.7,.7-.3,.2-.6,.5-.8,.8-.3,.2-.5,.4-.7,.7-.3,.2-.6,.5-.8,.8-.3,.2-.5,.4-.7,.7-.3,.2-.6,.5-.8,.8-.3,.2-.5,.4-.7,.7-.3,.2-.6,.5-.8,.8-.3,.2-.5,.4-.7,.7-.3,.2-.6,.5-.8,.8-1.1,1.1-2.4,1.6-3.9,1.1-.5-.2-.9-.4-1.3-.8,0-.1-.2-.3-.3-.3-.3-.5-.6-1-.8-1.6,0-.5,0-.9,0-1.4,.2-.5,.4-1.1,.7-1.5l.4-.4c.4-.4,.8-.7,1.1-1.2h0c0,0,0,0,.1-.1h0v-.2c.2,0,.2,0,.2,0l1.2-1.2v-.2h.2v-.2c.5-.3,.9-.7,1.3-1.2,.1,0,.3-.2,.3-.3,.4-.4,.8-.7,1.1-1.2h.1c0-.2,.2-.2,.3-.4,.4-.4,.8-.7,1.2-1.2h.1l.3-.4c.4-.4,.8-.8,1.2-1.2h.1c0-.2,.1-.2,.1-.3h0c0,0,.1,0,.1,0h0c.4-.3,.8-.7,1.2-1.1,.1,0,.3-.2,.3-.3,.4-.4,.8-.7,1.2-1.2h0c0,0,0,0,.1-.1h0c0,0,.1,0,.2-.1h.1c.4-.5,.8-.9,1.2-1.3h.1v-.2c.3,0,.3-.2,.1-.3h-.1v-.2h-.2v-.2h-.2v-.2h-.2v-.2h-.2v-.2c-.2-.3-.4-.3-.6,0-1,1-2,2.1-3.1,3.1-3.1,3.1-6.3,6.3-9.4,9.4-.8,.8-1.5,1.7-2.6,2-.5,.1-1,0-1.5,.1-.5-.2-1-.3-1.5-.6l-.3-.3c-.7-.7-1.1-1.5-1.2-2.5v-.6h0v-.2h0l.6-1.3c1-1,2-2.1,3-3.1,3.5-3.5,6.9-6.9,10.4-10.4,.1-.1,.2-.3,.4-.1,.2,.3,.4,.5,.8,.7,.5,.4,1,.7,1.6,.9h0c.4,.3,.9,.3,1.4,.3,1.1,.1,2.1-.2,3-.6,.7-.3,1.2-.7,1.8-1.2,.5-.5,1-1,1.3-1.6,0,0,0-.1,.1-.2,.3-.4,.5-.9,.6-1.4,.2-.5,.3-1,.2-1.5,0-.6,0-1.2-.3-1.8-.1-.5-.3-.9-.6-1.3h0c-.1-.4-.4-.7-.7-1-2-2-4-4-6-6-.2-.2-.4-.3-.4-.6l1-.9,.7-.5,.7-.5c0,0,.1,0,.1-.1h0c1-.5,2-1,3-1.4l1.5-.5,1.5-.3Z"/>
        <path class="uuid-e83d8139-d426-44c4-ad2b-137f555c4641" d="M26.7,19.9l1.3,.2h1l.2,.2h.2l1.5,.5c1.1,.4,2.1,.9,3.1,1.4,.8,.6,1.7,1.1,2.4,1.8,2.7,2.7,5.3,5.3,8,8,.5,.5,.8,1,1,1.6,.2,.5,.2,1,.3,1.5,0,.5,0,1-.3,1.5-.2,.6-.5,1-.8,1.5h0c-.8,.9-1.8,1.6-3,2h-1.5c-.5,0-1-.1-1.5-.3,0,0-.2-.2-.3-.2-.4-.3-.7-.6-1.1-.9l-.5-.5c-.3-.4-.7-.7-1-1l-.6-.6c-.3-.3-.6-.6-.9-.9l-.6-.6-.9-.9-.6-.6-.9-.9-.5-.5c-.3-.4-.7-.7-1-1-.2-.3-.4-.4-.6-.6-.3-.3-.6-.6-.9-.9l-.6-.6-.9-.9c-.2-.2-.4-.4-.6-.6-.2-.2-.3-.2-.4,0-.9,.8-.9,.8,0,1.6,0,0,0,0,0,0,.2,.3,.5,.6,.8,.8,.2,.3,.4,.5,.7,.7,.2,.3,.5,.6,.8,.8,.2,.3,.4,.5,.7,.7,.3,.5-.2,.5-.4,.7-4.3,4.3-8.7,8.7-13,13-.4,.4-.7,.9-.8,1.5-.4,.6-.4,1.3-.3,2.1l-.6-.6c-.2-.3-.4-.6-.7-.8h0v-.2c-.2-.2-.4-.4-.5-.5l-1-1.5c0,0,0-.2-.1-.2l-.7-1.3c-.2-.4-.3-.9-.6-1.2,0-.2,0-.3-.1-.4l-.5-1.4-.3-1.5-.2-1.1v-3.3s0,0,0,0c0,0,0,0,0,0l.2-1.6,.4-1.5c.3-1.1,.8-2,1.2-3,.6-1.1,1.3-2.1,2.1-3.1l.2-.3,1.2-1.2,.2-.2c.9-.8,1.9-1.5,2.9-2.1,0,0,.1,0,.1-.1h0l1.4-.6h.1l1.5-.6,1.6-.4c1.6-.3,3.2-.4,4.9-.4Z"/>
        <path class="uuid-e83d8139-d426-44c4-ad2b-137f555c4641" d="M34.6,38.1c.2,.2,0,.3,0,.4-3.6,3.5-7.1,7.1-10.6,10.6-.8,.8-1.5,1.5-2.2,2.3-.4,.4-.9,.7-1.5,1-.5,.1-1,.2-1.5,.2-.5-.1-1-.2-1.4-.5l-.5-.3c-.4-.4-.8-.8-1-1.3,0,0,0,0,0-.1-.2-.5-.2-1-.2-1.5,0-1,.5-1.8,1.2-2.5,.2-.2,.3-.4,.5-.5h0c.5-.5,1-1,1.5-1.5h0c.5-.4,1-.9,1.4-1.4h.1c.5-.5,1-1,1.4-1.5l.2-.2c.5-.4,1-.9,1.4-1.4h0c.5-.5,1-1,1.5-1.5h0c.5-.4,1-.9,1.4-1.4h.1c.5-.5,1-1,1.4-1.5l.2-.2c.5-.4,1-.9,1.4-1.4h.1c.3-.4,.4,0,.6,0,.2,.3,.5,.6,.8,.8,.2,.3,.4,.5,.7,.7,.2,.3,.5,.6,.8,.8,.2,.3,.4,.5,.7,.7,.2,.3,.5,.6,.8,.8,.2,.3,.4,.5,.7,.7Z"/>
      </g>
    </g>
  </g>
</svg>