<?xml version="1.0" encoding="UTF-8"?>
<svg id="uuid-8ac49081-4525-4cca-9c56-206e5c1b6291" data-name="Layer 2" xmlns="http://www.w3.org/2000/svg" width="75.8" height="75.8" viewBox="0 0 75.8 75.8">
  <defs>
    <style>
      .uuid-1763c1d6-0e7f-4401-827a-4960db8fe407 {
        fill: #fff;
      }

      .uuid-f153bce8-aeb0-41fd-a0ed-a08235a78624 {
        fill: #0090a8;
      }
    </style>
  </defs>
  <g id="uuid-df4aebe4-9c47-4b47-b570-ddddbe5a12ef" data-name="home">
    <g>
      <circle class="uuid-f153bce8-aeb0-41fd-a0ed-a08235a78624" cx="37.9" cy="37.9" r="37.9" transform="translate(-8 65.6) rotate(-76)"/>
      <g>
        <path class="uuid-1763c1d6-0e7f-4401-827a-4960db8fe407" d="M53.2,24.8c-.1,3.2-1.8,5.7-3.7,8-3.1,3.5-6.8,6.3-10.4,9.2-.7,.6-1.3,.7-2.1,0-4.1-3.3-8.4-6.3-11.7-10.6-1.9-2.5-3.2-5.3-2.3-8.5,1.6-6.1,9-8.3,13.6-3.9,1.2,1.2,1.7,1.1,2.8,0,2.4-2.5,5.5-3,8.7-1.6,3.3,1.4,4.9,4,5.1,7.5Zm-22.1-6.6c-2.8,0-5.5,2-6.4,4.8-1,3.1,.4,5.5,2.2,7.8,2.8,3.6,6.6,6.3,10.1,9.1,.5,.4,1,.7,1.7,.2,4.1-3.3,8.4-6.4,11.3-10.9,1-1.5,1.8-3.2,1.4-5.1-.5-2.8-2.1-4.7-4.9-5.5-2.8-.9-4.9,.2-6.7,2.2-1.9,2.1-1.9,2.2-3.9,0-1.3-1.5-2.9-2.4-4.9-2.5Z"/>
        <path class="uuid-1763c1d6-0e7f-4401-827a-4960db8fe407" d="M21.5,40.5c-.7,1.1,.3,1.7,.7,2.5,.6,1.3,1.4,2.4,2.1,3.7,.3,.5,.3,1.1-.4,1.4-.6,.3-.9-.2-1.1-.6-1.1-2.8-3.9-4.7-3.1-8.5,.4-2.1,0-5.1-2.1-7.1,0,5.1,0,10,0,14.9,0,.8,.5,1.5,1,2.1,.9,1.2,1.7,2.5,2.8,3.5,3.1,2.6,2.2,5.7,1.4,8.9-.1,.5-.4,.9-.9,.9-.7-.1-.8-.7-.6-1.3,1.8-4.4-.8-7.2-3.5-10.1-1.4-1.6-2.1-3.4-2.1-5.6,0-4.1-.1-8.2-.2-12.3,0-.9-.7-2.2,.9-2.5,1.5-.3,2.8,.1,3.5,1.6,.8,1.7,.9,3.5,1.3,5.2,.1,.5,0,1.1,.6,1.5,4,2.3,6.1,6.5,8.9,9.9,1.6,1.9,2,4.2,1.3,6.6-.5,1.8-.9,3.7-1.3,5.5-.1,.7,0,1.6-1.1,1.4-1-.2-.6-1.2-.5-1.8,.4-2.1,.8-4.2,1.3-6.2,.3-1.2,.2-2.4-.4-3.4-2.2-3.5-4.9-6.6-7.6-9.6-.3-.3-.7-.7-1.2-.6Z"/>
        <path class="uuid-1763c1d6-0e7f-4401-827a-4960db8fe407" d="M60.2,39.3c0,.4,0,.8,0,1.2,.5,5.4-.8,10.1-5,13.8-1.3,1.1-1.4,2.5-1.1,4.1,.2,.9,.4,1.9,.5,2.8,0,.5,0,1-.6,1.1-.5,0-.9-.2-1-.8-.6-3-1.9-6.1,1.2-8.7,3.5-3,4.6-6.8,4.2-11.4-.2-2.6,0-5.3,.1-8,0-.4,.2-.9-.3-1-.6-.2-.9,.3-1,.7-.6,2.3-1.7,4.6-.9,7.1,.3,1,0,1.9-.4,2.7-.8,1.4-1.6,2.7-2.4,4-.4,.6-.6,1.8-1.6,1.1-1-.6,0-1.4,.3-2,.7-1.2,1.4-2.4,2.1-3.7,.3-.5,.9-1.2,.2-1.6-.5-.4-1.3,.2-1.6,.6-.9,.9-1.6,2-2.4,3.1-.3,.4-.6,1-1,1.3-3.9,3.7-5.3,7.9-3.2,13.1,.4,1,1.3,3-.2,3.2-1.6,.3-.8-1.9-1.4-2.9-.2-.4-.1-.9-.3-1.4-1.9-4.6-.6-8.4,2.7-11.8,2.3-2.4,3.5-5.8,6.9-7.2,.6-.2,.5-.9,.6-1.4,.3-1.5,.6-3.1,1-4.6,.3-1.2,1.1-2.1,2.4-2.3,1.4-.3,2.5-.1,2.4,1.8-.1,2.4,0,4.7,0,7.1h0Z"/>
        <path class="uuid-1763c1d6-0e7f-4401-827a-4960db8fe407" d="M44.1,30.1c.4,1.8-.4,2.5-2.1,2.3-1.3-.2-1.9,.3-1.7,1.7,.4,2-.8,2.3-2.5,2.3-1.7,0-2.5-.5-2.2-2.3,.3-1.6-.6-1.9-1.9-1.7-1.8,.3-2.1-.7-2-2.2,0-1.5,0-2.8,2.1-2.5,1.3,.2,2.1-.1,1.9-1.7-.3-1.9,.6-2.2,2.3-2.2,1.8,0,2.7,.4,2.4,2.4-.2,1.2,.3,1.8,1.5,1.6,1.9-.3,2.6,.6,2.3,2.4Zm-6.1-4.6c-.8,.1-.7,.8-.6,1.3,.2,2-.5,3-2.6,2.6-.5,0-1.2-.3-1.3,.5-.1,1,.8,.9,1.3,.8,2.1-.3,2.8,.6,2.6,2.6,0,.5-.2,1.2,.6,1.3,.9,0,.7-.7,.6-1.2-.2-1.9,.4-3,2.6-2.7,.6,0,1.4,.2,1.4-.8,0-.8-.8-.6-1.3-.5-2.1,.3-2.9-.6-2.6-2.7,0-.5,.2-1.2-.6-1.3Z"/>
      </g>
    </g>
  </g>
</svg>