<?xml version="1.0" encoding="UTF-8"?>
<svg id="uuid-69749dd9-facf-4e54-ae75-71baac869e24" data-name="Layer 2" xmlns="http://www.w3.org/2000/svg" width="75.8" height="80.7" viewBox="0 0 75.8 80.7">
  <defs>
    <style>
      .uuid-e3437b4f-b563-45f1-bb1b-6e767418cf53 {
        fill: #fff;
      }

      .uuid-829bd55f-167f-40b2-9354-0efede8a325a {
        fill: #0090a8;
      }
    </style>
  </defs>
  <g id="uuid-f47ca23d-2139-4814-8b1f-2b72d1cb19a9" data-name="home">
    <g>
      <circle class="uuid-829bd55f-167f-40b2-9354-0efede8a325a" cx="37.9" cy="37.9" r="37.9" transform="translate(-8 65.6) rotate(-76)"/>
      <path class="uuid-e3437b4f-b563-45f1-bb1b-6e767418cf53" d="M59.6,63.6c0-4.7-.6-8.9-4.9-10.8l-11.1-4.8,.3-1.9s4.3-3.9,4.3-7.8c0,0,2.4-3,0-5.3v-3.8c0-1.4-.3-2.8-.9-4,2.2-.5,3.8-3.2,3.8-5.1h-15.4c-5.8,0-9.2,4.1-9.2,9.1v3.8c-2.2,2.4,0,5.3,0,5.3,0,3.9,4.3,7.8,4.3,7.8l.3,1.9-11.1,4.8c-4.3,1.8-5.4,6.1-5.4,10.8v17.2H59.6v-17.2Zm-23.3-7.8l-2.4,11.5-4.1-16.3,2-1c.3-.2,.7-.2,1,0l3.5,1.3-1.8,2.6,1.8,2Zm4.6,11.5l-2.4-11.5,1.8-2-1.8-2.6,3.7-1.4c.2,0,.3,0,.5,0l2.3,1.1-4.1,16.3Z"/>
    </g>
  </g>
</svg>