<?xml version="1.0" encoding="UTF-8"?>
<svg id="uuid-d6dbac3a-8999-4a06-89d1-2f6d66b8eec8" data-name="Layer 2" xmlns="http://www.w3.org/2000/svg" width="75.8" height="75.8" viewBox="0 0 75.8 75.8">
  <defs>
    <style>
      .uuid-f7eff25a-0631-4872-8610-1469ed26a0a0 {
        fill: #fff;
      }

      .uuid-d2c2198b-96d1-4dd9-9e90-ef0d76d0941e {
        fill: #fafafa;
      }

      .uuid-04beddbe-5887-4605-a938-f919b3ba2b18 {
        fill: #0090a8;
      }
    </style>
  </defs>
  <g id="uuid-b1dcd2d2-08a7-4cd7-b336-c290ab1b3084" data-name="home">
    <g>
      <circle class="uuid-04beddbe-5887-4605-a938-f919b3ba2b18" cx="37.9" cy="37.9" r="37.9" transform="translate(-5.5 69.4) rotate(-81)"/>
      <g>
        <path class="uuid-f7eff25a-0631-4872-8610-1469ed26a0a0" d="M19.5,35c-.6,4,0,7.8,1.5,11.5,.9,2.4,2.1,4.6,3.3,6.9,1.1,2.2,2.1,4.5,2.7,7,.7,2.8,.8,5.7,.4,8.6-.3,2-.8,4-1.4,5.9,0,.3-.2,.3-.4,.2-.4-.1-.7-.3-1.1-.4-.2,0-.3-.2-.2-.4,.6-1.7,1-3.4,1.3-5.2,.6-3.8,.2-7.5-1.2-11.1-.8-2.1-1.8-4.1-2.8-6-1.3-2.6-2.6-5.3-3.3-8.1-1-4.2-1.1-8.3,.4-12.4,2.5-6.9,7.3-11.2,14.4-12.7,2.4-.5,4.8-.4,7.1,0,2.7,.4,5.3,1.1,7.7,2.4,2.6,1.3,4.8,3.1,6.3,5.7,.9,1.5,1.4,3.1,1.8,4.8,.4,1.8,.9,3.5,1.8,5.1,.6,1.1,1.3,2.1,1.9,3.1,.5,.9,1,1.9,1.2,3,.3,1.4-.1,2.5-1.2,3.4-.8,.7-1.7,1.1-2.6,1.4-.3,0-.3,.2-.2,.4,.4,1,.8,2,.9,3.1,0,.8-.2,1.5-.9,1.9-.7,.4-1.5,.6-2.3,.8-.9,.2-1.8,.3-2.7,.4-.2,0-.2,0-.3-.2,0-.4,0-.9-.2-1.3,0-.2,0-.3,.2-.3,1.2-.2,2.4-.3,3.5-.6,0,0,.2,0,.3,0,.7-.2,.7-.3,.5-1-.4-1.3-.9-2.7-1.4-4,0-.2,0-.3,.2-.4,1-.2,2-.5,3-1.1,1.5-.8,1.9-1.9,1.1-3.5-.5-1-1.1-2-1.7-2.9-1.2-1.8-2-3.7-2.5-5.9-.3-1.5-.7-3-1.3-4.3-1-2.2-2.6-3.9-4.6-5.2-2.4-1.6-5.1-2.5-8-3-1.7-.3-3.5-.5-5.3-.3-5.4,.5-9.7,3-12.9,7.4-1.3,1.8-2.1,3.8-2.6,5.9-.2,0-.4-.1-.6,0-.1,0-.2,.2-.2,.4,0,0,0,0,0,0,.1,0,.2,0,.3,0,0,0,0-.1,.2,0,0,0,0,.1,0,.2,0,0-.2,.1-.3,.2-.2,.2-.3,.4-.2,.6,0,.2,.3,.2,.5,.2Z"/>
        <path class="uuid-f7eff25a-0631-4872-8610-1469ed26a0a0" d="M52.5,64.1c-2.2-.1-4.4-.5-6.6-1.2-.4-.1-.4-.1-.5,.3-.8,3.8-1.6,7.7-2.4,11.5,0,.3-.1,.4-.4,.3-.4-.1-.7-.2-1.1-.2-.2,0-.3-.1-.2-.3,.7-3.5,1.5-6.9,2.2-10.4,.1-.5,.2-1,.3-1.5,0-.2,0-.3-.2-.3-1.3-.5-2.6-1.1-3.8-1.9-1.4-.9-2.6-2.1-3.3-3.6-.1-.2-.1-.3,.2-.4,.4-.1,.8-.3,1.2-.5,.1,0,.2,0,.3,0,.7,1.5,1.9,2.4,3.2,3.2,2.3,1.3,4.7,2.1,7.3,2.6,1.2,.3,2.5,.5,3.8,.6,.2,0,.4,0,.6,0,.9,0,1.7-1.2,1.1-2-.2-.2-.3-.4-.4-.7-.5-.9-.4-1.5,.3-2.2,0,0,.3-.2,.2-.3,0-.1-.3-.1-.4-.1-.4,0-.5-.1-.4-.5,0-.4,0-.8,0-1.1,0-.2,0-.2,.2-.2,.5,0,1.1,0,1.6,.3,.9,.5,1.2,1.4,.8,2.3-.1,.3-.3,.5-.5,.7-.2,.2-.2,.3,0,.5,.4,.5,.7,1.1,.7,1.7,.2,1.8-1.2,3.4-3,3.4-.2,0-.3,0-.5,0Z"/>
        <path class="uuid-f7eff25a-0631-4872-8610-1469ed26a0a0" d="M19.5,35c-.2,0-.4,0-.5-.2,0-.2,0-.4,.2-.6,0,0,.2-.1,.3-.2,0,0,0-.1,0-.2,0,0-.1,0-.2,0,0,.2-.2,.1-.3,0,0,0,0,0,0,0,0-.1,0-.3,.2-.4,.2-.1,.4,0,.6,0l-.3,1.5Z"/>
        <path class="uuid-04beddbe-5887-4605-a938-f919b3ba2b18" d="M49.8,36.6c-.3-.5-.7-.9-1.1-1.3-.4-.3-.5-.7-.3-1.2,.2-.5,.4-1,.5-1.5,.2-.9-.1-1.5-.9-2-.5-.3-1-.5-1.5-.6-.6-.1-.8-.5-.8-1,0-.5,0-1.1-.3-1.6-.2-.8-.8-1.2-1.6-1.3-.6,0-1.2,0-1.9,.1-.4,0-.7,0-.9-.4-.3-.5-.5-.9-.9-1.4-.7-.8-1.4-1-2.5-.5-.4,.2-.9,.4-1.2,.7-.4,.3-.8,.3-1.2,0-.4-.3-.9-.6-1.3-.8-1-.4-1.7-.3-2.4,.5-.4,.4-.6,.9-.9,1.4-.2,.3-.4,.5-.8,.4,0,0,0,0,0,.1,0,0,0,0,0-.1h-1c0,0,0,0,0,0,0,0,0,.1,0,.2,0,0,0-.1,0-.2s0,0,0-.1c-.4,0-.7,0-1.1,0-.6,0-1.1,.4-1.4,1-.3,.6-.4,1.3-.4,2,0,.5-.2,.8-.7,1-.6,.2-1.2,.4-1.7,.7-.6,.4-.9,1-.8,1.8,0,.6,.3,1.2,.5,1.7,.2,.4,.1,.7-.2,1-.4,.4-.8,.8-1.1,1.2-.6,.8-.6,1.5,0,2.3,.3,.5,.8,.9,1.2,1.3,.3,.3,.4,.6,.2,.9-.2,.5-.4,.9-.5,1.4-.3,1.2,0,1.8,1.1,2.4,.4,.2,.9,.4,1.3,.5,.7,.2,.7,.3,.8,1,0,.6,.1,1.2,.3,1.8,.2,.6,.7,1,1.3,1.1,.6,.1,1.2,0,1.8,0,.8-.1,.9,0,1.3,.6,.3,.5,.6,1,1,1.4,.5,.5,1.1,.6,1.8,.4,.5-.2,.9-.4,1.4-.7,.3-.2,.6-.4,.9-.5,0,0,0-.1,.1-.2,0,0,0,.1-.1,.2,.4,.2,.8,.5,1.2,.7,0,0,.1,.1,.2,.1h0c.1,.1,.3,.2,.5,.3h0c0,0,.1,0,.2,0,.4,.3,.8,.2,1.2,.1,0,0,.2,0,.2,0,0-.4,0-.7,0-1.1,0,0,0-.2,0-.3,.1,0,.3,0,.4,0,0,0,0,.1,.2,0,.2-.1,.4-.2,.5,.1,.2-.2,.3-.4,.4-.6,.3-.5,.5-.6,1.1-.5,.5,0,1.1,.1,1.6,.1,.9,0,1.4-.5,1.7-1.3,.2-.5,.2-1,.3-1.6,0-.8,.1-.9,.9-1.1,0,0,.2,0,.3,0,.5-.2,1.1-.4,1.5-.7,.3-.2,.5-.5,.5-.9,.1-.3,.1-.6,0-.9v-.2c0-.1,0-.3-.1-.4,0-.4-.2-.7-.3-1-.2-.5,0-.8,.3-1.1,.4-.4,.8-.8,1.1-1.3,.5-.7,.5-1.4,0-2.2Zm-1.2,6.7c0-.1,0-.2,0-.3,0,0,0,.2,0,.3,0,0,0,0,0,.1,0,0,0,0,0-.1Zm-12.6,7c.2-.1,.4,0,.6,0-.2,0-.4,0-.6,0Zm1.3,.3c0-.2,0-.5,0-.7,0,.2,0,.5,0,.7Zm0-.9c0,0,.1,0,.2,0,0,0-.2,0-.2,0Zm.5,.2s0,0,0-.1c0,0,0,0,0,.1h0Zm0,.8c0,0,0,.1,0,.2,0,0,0-.1,0-.2Zm.3-.4c.1,0,.3-.1,.4-.1-.2,0-.3,0-.4,.1Zm10.1-12.3c-.3,.3-.6,.6-.9,.9-.8,.8-1,1.6-.6,2.7,.1,.4,.3,.9,.4,1.3,.1,.3,0,.4-.2,.5-.4,.1-.8,.3-1.1,.4-1.2,.4-1.8,1.2-1.8,2.4,0,.4,0,.7-.1,1.1,0,.3-.2,.4-.5,.4-.4,0-.9,0-1.3-.1-1.1-.1-1.9,.3-2.4,1.2-.2,.4-.5,.7-.7,1.1-.2,.3-.3,.3-.6,.1-.4-.2-.7-.5-1.1-.7-.9-.6-1.8-.6-2.8,0-.3,.2-.7,.4-1.1,.7-.3,.2-.4,.1-.6-.1-.2-.4-.5-.7-.7-1.1-.6-.9-1.4-1.3-2.4-1.2-.4,0-.8,0-1.3,.1-.4,0-.5,0-.5-.4,0-.5-.1-1-.2-1.5-.1-.8-.6-1.4-1.3-1.7-.5-.2-1-.3-1.5-.5-.4-.2-.4-.2-.3-.6,.2-.5,.4-1,.5-1.6,.2-.7,0-1.4-.4-1.9-.3-.4-.8-.8-1.1-1.2-.3-.3-.3-.4,0-.7,.3-.4,.7-.7,1.1-1.1,.5-.6,.7-1.3,.5-2-.1-.5-.3-1.1-.5-1.6-.1-.3,0-.5,.3-.6,.4-.1,.8-.3,1.2-.4,1-.4,1.6-1.1,1.7-2.2,0-.4,0-.8,.1-1.2,0-.4,0-.5,.7-.4,.3,0,.8,.1,1.4,.1,.9,0,1.5-.3,2-1,.3-.4,.5-.8,.8-1.2,.2-.4,.3-.4,.7-.2,.4,.3,.8,.5,1.3,.8,.8,.4,1.6,.4,2.3,0,.4-.2,.8-.5,1.2-.7,.4-.3,.5-.2,.7,.2,.2,.3,.4,.7,.6,1,.6,1,1.4,1.3,2.5,1.1,.4,0,.8,0,1.2-.1,.3,0,.5,0,.5,.4,0,.6,0,1.1,.2,1.7,.2,.7,.6,1.2,1.2,1.5,.5,.2,1.1,.4,1.6,.6,.2,0,.3,.2,.2,.5-.2,.5-.3,1-.5,1.5-.3,.9,0,1.6,.5,2.3,.3,.4,.7,.7,1.1,1.1,.2,.2,.2,.4,0,.6Z"/>
        <path class="uuid-d2c2198b-96d1-4dd9-9e90-ef0d76d0941e" d="M28.5,27.8c.3,0,.8,.1,1.4,.1,.9,0,1.5-.3,2-1,.3-.4,.5-.8,.8-1.2,.2-.4,.3-.4,.7-.2,.4,.3,.8,.5,1.3,.8,.8,.4,1.6,.4,2.3,0,.4-.2,.8-.5,1.2-.7,.4-.3,.5-.2,.7,.2,.2,.3,.4,.7,.6,1,.6,1,1.4,1.3,2.5,1.1,.4,0,.8,0,1.2-.1,.3,0,.5,0,.5,.4,0,.6,0,1.1,.2,1.7,.2,.7,.6,1.2,1.2,1.5,.5,.2,1.1,.4,1.6,.6,.2,0,.3,.2,.2,.5-.2,.5-.3,1-.5,1.5-.3,.9,0,1.6,.5,2.3,.3,.4,.7,.7,1.1,1.1,.2,.2,.2,.4,0,.6-.3,.3-.6,.6-.9,.9-.8,.8-1,1.6-.6,2.7,.1,.4,.3,.9,.4,1.3,.1,.3,0,.4-.2,.5-.4,.1-.8,.3-1.1,.4-1.2,.4-1.8,1.2-1.8,2.4,0,.4,0,.7-.1,1.1,0,.3-.2,.4-.5,.4-.4,0-.9,0-1.3-.1-1.1-.1-1.9,.3-2.4,1.2-.2,.4-.5,.7-.7,1.1-.2,.3-.3,.3-.6,.1-.4-.2-.7-.5-1.1-.7-.9-.6-1.8-.6-2.8,0-.3,.2-.7,.4-1.1,.7-.3,.2-.4,.1-.6-.1-.2-.4-.5-.7-.7-1.1-.6-.9-1.4-1.3-2.4-1.2-.4,0-.8,0-1.3,.1-.4,0-.5,0-.5-.4,0-.5-.1-1-.2-1.5-.1-.8-.6-1.4-1.3-1.7-.5-.2-1-.3-1.5-.5-.4-.2-.4-.2-.3-.6,.2-.5,.4-1,.5-1.6,.2-.7,0-1.4-.4-1.9-.3-.4-.8-.8-1.1-1.2-.3-.3-.3-.4,0-.7,.3-.4,.7-.7,1.1-1.1,.5-.6,.7-1.3,.5-2-.1-.5-.3-1.1-.5-1.6-.1-.3,0-.5,.3-.6,.4-.1,.8-.3,1.2-.4,1-.4,1.6-1.1,1.7-2.2,0-.4,0-.8,.1-1.2,0-.4,0-.5,.7-.4Zm-3.2,9.8c0,5.8,4.6,10.4,10.4,10.4,5.7,0,10.4-4.7,10.4-10.3,0-5.8-4.6-10.5-10.4-10.5-5.7,0-10.4,4.7-10.4,10.4Z"/>
        <path class="uuid-f7eff25a-0631-4872-8610-1469ed26a0a0" d="M35.5,44.1c-1.6,0-3.2-.6-4.4-2-.4-.5-.7-1.1-.9-1.8-.1-.5,0-1,.6-1.1,.5-.2,1,0,1.1,.6,.5,1.8,2.3,2.6,4.1,2.5,1.1,0,2.1-.4,3-1.2,.4-.4,.6-.8,.8-1.3,.2-.6,.7-.8,1.2-.5,.5,.2,.6,.6,.5,1.1-.4,1.3-1.2,2.3-2.4,2.9-1,.6-2.1,.8-3.5,.8Z"/>
        <path class="uuid-f7eff25a-0631-4872-8610-1469ed26a0a0" d="M32.3,34.4c.9,0,1.5,.1,2.1,.5,.6,.4,.7,1,.2,1.4-.3,.3-.7,.4-1,.2-.8-.5-1.7-.3-2.5,0-.4,.1-.7,.3-.9,.7-.2,.3-.6,.5-1,.4-.4,0-.6-.4-.6-.8,0-.6,.3-1,.7-1.3,.9-.8,2-1,3-1Z"/>
        <path class="uuid-f7eff25a-0631-4872-8610-1469ed26a0a0" d="M39.6,34.4c1.1,0,2.1,.4,2.9,1.2,.3,.3,.5,.6,.5,.9,0,.4-.1,.8-.5,1-.4,.2-.9,.1-1.1-.3-.4-.7-1.1-.9-1.8-1-.6-.1-1.1,0-1.6,.2-.4,.2-.9,0-1.1-.3-.3-.4-.2-.8,.2-1.2,.4-.3,.8-.5,1.3-.5,.1,0,.2,0,.3,0,0,.2,0,.3,0,.5,.1,.2,.3,.1,.5,0,0,0,0,0,0,0,.3,.1,.3,0,.3-.2,0-.1,0-.2,0-.4Z"/>
        <path class="uuid-f7eff25a-0631-4872-8610-1469ed26a0a0" d="M39.6,34.4c0,.1,0,.2,0,.4,0,.2,0,.4-.3,.2,0,0,0,0,0,0-.2,0-.3,.2-.5,0,0-.2,0-.3,0-.5h.9Z"/>
      </g>
    </g>
  </g>
</svg>