<?xml version="1.0" encoding="UTF-8"?>
<svg id="uuid-5f9e6407-4256-420b-a35e-b495b42f9812" data-name="Layer 2" xmlns="http://www.w3.org/2000/svg" width="75.8" height="75.8" viewBox="0 0 75.8 75.8">
  <defs>
    <style>
      .uuid-bcd14390-aed9-405b-911e-28841dcb5040 {
        fill: #fff;
      }

      .uuid-3acc177e-dd4e-481f-b9ec-732bd68513b7 {
        fill: #1c396a;
      }
    </style>
  </defs>
  <g id="uuid-05136025-d182-4590-a168-3ec397a324b9" data-name="home">
    <g>
      <circle class="uuid-3acc177e-dd4e-481f-b9ec-732bd68513b7" cx="37.9" cy="37.9" r="37.9" transform="translate(-8 65.6) rotate(-76)"/>
      <g>
        <path class="uuid-bcd14390-aed9-405b-911e-28841dcb5040" d="M54.2,58.9c-.7,0-1.4,0-2.2,0-1.2,0-2.2,.1-3,1.1-.9,1-2.3,1.1-3.6,1.1-4.8,0-9.6,0-14.5,0-1.6,0-3.2-.3-4.3-1.7-.3-.4-.8-.4-1.3-.4-2.2,0-4.4,0-6.6,0q-1.6,0-1.6-1.6c0-1.7,0-3.4,0-5.1,0-.9-.3-1.3-1.2-1.2-1.4,0-2.8,0-4.2,0-.9,0-1.3-.3-1.2-1.2,0-1.9,0-3.9,.1-5.8,.4-3.9,3.6-6.6,7.5-6.6,3.7,0,6.8,3,7.1,6.7,.1,2,0,3.9,0,5.9,0,.7-.3,.9-.9,.9-1.5,0-3,0-4.4,0-.9,0-1.3,.4-1.3,1.3,0,1.3,0,2.7,0,4,0,.7,.2,1,.9,1,1.9,0,3.7,0,5.6,0,.6,0,.9-.2,1-.8,.1-.8,.5-1.6,.9-2.3,2.4-3.9,4.7-7.8,7.1-11.7,.1-.2,.2-.3,.3-.5,2.2-3.5,5.7-3.4,7.9,.2,2.3,3.9,4.6,7.8,6.9,11.7,.5,.9,1,1.7,1.1,2.7,0,.6,.4,.8,.9,.7,1.7,0,3.4,0,5.2,0,.6,0,.9-.3,.9-.9,0-1.5,0-3,0-4.4,0-.7-.3-1-1-1-1.5,0-3,0-4.4,0-.9,0-1.2-.3-1.2-1.2,0-1.7,0-3.4,0-5.2,0-3.7,3-6.8,6.6-7.2,3.9-.3,7.4,2.2,8,6,.4,2.2,.1,4.5,.1,6.7,0,.6-.4,.8-1,.8-1.4,0-2.8,0-4.1,0-1.5,0-1.5,0-1.5,1.5,0,1.8,0,3.5,0,5.3,0,.8-.3,1.1-1.1,1.1-1.1,0-2.3,0-3.4,0h0Zm-16.1,.6c2.6,0,5.3,0,7.9,0,2.5,0,3.6-1.8,2.4-3.9-2.5-4.4-5.1-8.8-7.7-13.1-1.3-2.1-3.4-2.1-4.7,0-2.7,4.3-5.4,8.7-7.9,13.1-1.3,2.3-.3,3.9,2.4,4,2.5,0,5.1,0,7.6,0Zm19.8-9.9h0c1.7,0,3.3,0,5,0,.6,0,1-.2,1-.9,0-1.6,.2-3.2,0-4.7-.3-2.3-1.7-3.9-3.9-4.7-1-.4-1.2-.2-1.2,.8,0,1.4,0,2.8,0,4.2,0,.5,0,1.1-.8,1.1-.7,0-.7-.6-.7-1,0-1.4,0-2.9,0-4.3,0-.8-.3-1-1.1-.8-2.3,.7-4,2.9-4.1,5.4,0,1.3,0,2.5,0,3.8,0,.8,.3,1.1,1.1,1.1,1.6,0,3.2,0,4.7,0Zm-40.1,0h0c1.6,0,3.2,0,4.8,0,.8,0,1-.3,1-1,0-1.4,0-2.8,0-4.1,0-2.2-1.8-4.4-3.9-5.1-.8-.3-1.2-.1-1.2,.8,0,1.4,0,2.8,0,4.2,0,.5,0,1.1-.7,1.1-.8,0-.8-.5-.8-1.1,0-1.4,0-2.9,0-4.3,0-.8-.3-1-1.1-.8-2.2,.7-4,2.9-4,5.2,0,1.3,0,2.6,0,3.9,0,.9,.4,1.2,1.2,1.2,1.5,0,3.1,0,4.6,0Z"/>
        <path class="uuid-bcd14390-aed9-405b-911e-28841dcb5040" d="M21.6,22.4c1.2,0,2.3,0,3.5,0,.5,0,.9,0,1.1-.7,.3-.7,1.1-.5,1.7-.7,.7-.2,1.4-.1,1.7-1,.3-.8,.3-1.3-.2-2-1.2-1.7-1.2-1.7,.2-3.1,1.5-1.4,1-1.4,2.7-.3,1.7,1.1,2.8,.6,3.2-1.4,.1-.6,0-1.5,.7-1.7,1-.2,2.1-.3,3.2,0,.6,.2,.4,1,.6,1.5,.2,.6,0,1.4,.9,1.7,.8,.4,1.5,.4,2.3-.2,1.8-1.3,1.3-1.4,3,.2,.2,.2,.4,.4,.6,.6,.6,.5,.7,1,.2,1.6-.3,.3-.5,.7-.7,1.1-.7,1.1-.1,2.4,1.2,2.6,.5,0,1,.2,1.5,.3,.3,0,.6,.1,.7,.5,0,.8,.7,.8,1.3,.8,2.2,0,4.4,0,6.6,0,1,0,1.3,.4,1.3,1.3,0,.9,0,1.9,0,2.8,0,.8,.2,1.2,1,1.5,2.6,1,3.6,3.9,2.4,6.3-1.2,2.4-4.1,3.3-6.4,1.9-1.6-.9-2.4-2.3-2.4-4.1,0-1.9,1-3.3,2.8-4.2,.4-.2,1-.2,1.1-.8,0-1,.2-2.1,0-3.1,0-.3-.5-.3-.8-.3-1.9,0-3.9,0-5.8,0-.3,0-.7,0-.7,.2-.3,1.2-1.3,1-2.1,1.2-1.8,.4-2.3,1.4-1.2,3,1.3,2,1.5,1.4-.2,3.1-1.4,1.5-1,1.3-2.8,.2-.5-.3-.9-.8-1.5-.7-.8,.2-1.5,.5-1.6,1.6-.4,2.6,0,2.3-2.6,2.3-1.5,0-1.5,0-1.9-1.5-.1-.6,0-1.3-.5-1.8-.6-.6-1.6-.6-2.4,0-2.1,1.4-1.5,1.6-3.4-.3-1.3-1.3-1.1-1-.2-2.4,.3-.4,.6-.9,.8-1.3,.2-.7-.6-1.7-1.3-1.9-1-.3-2.4,.1-2.7-1.4,0-.2-.4-.2-.7-.2-1.9,0-3.9,0-5.8,0-.6,0-1,.3-.9,.9,0,.3,0,.6,0,.9-.1,1.2,0,2,1.4,2.5,2,.8,2.9,3.2,2.3,5.2-.6,2.2-2.6,3.6-4.8,3.4-2.1-.1-3.8-1.7-4.2-3.8-.4-2.1,.7-4.3,2.8-5.1,.9-.3,1.1-.8,1-1.6,0-1,0-2.1,0-3.1,0-.7,.3-.9,.9-.9,1.2,0,2.4,0,3.6,0h0Zm22.8,8.2c.7,0,1.1-.8,.8-1.3-.3-.5-.7-1-1-1.4-.2-.3-.3-.6-.1-1,.7-1.5,1.1-3.2,3.3-3,.4,0,.7-.3,.7-.8,0-.5-.3-.7-.8-.8-.4,0-.7-.1-1.1-.2-.4,0-.8,0-1-.4-.4-.9-.9-1.8-1.1-2.8-.1-.6,.6-1.1,.8-1.6,.3-.5,.7-.9,.1-1.5-.6-.6-1,0-1.4,.2-.9,.7-1.6,.8-2.8,.4-1.4-.5-2.2-1.2-2.2-2.7,0-.4-.2-.8-.8-.8-.5,0-.8,.3-.8,.7,0,1.6-.8,2.5-2.4,2.8,0,0,0,0,0,0-.7,.6-1.4,.4-2.1,0-.5-.4-1.1-1.2-1.8-.4-.7,.8,.1,1.3,.5,1.7,.5,.7,.5,1.3,.2,2.1-.5,1.5-1.3,2.5-3,2.5-.5,0-.7,.3-.7,.8,0,.5,.3,.7,.7,.7,.1,0,.3,0,.4,0,1.3,0,2.2,.6,2.4,1.9,0,0,0,.1,0,.2,.7,.8,.5,1.6-.1,2.4-.3,.5-1.2,1-.4,1.8,.8,.8,1.2-.2,1.8-.5,.5-.2,.8-.8,1.5-.6,1.5,.6,3.2,1,3.1,3.2,0,.5,.2,.9,.8,.9,.6,0,.8-.4,.8-.9,0-1.6,.7-2.6,2.3-2.9,0,0,.1,0,.2,0,.6-.5,1.2-.4,1.8,0,.5,.4,1,.7,1.5,.9Zm-23.5,1.6c0-1.7-1.5-3.1-3.2-3.1-1.8,0-3.2,1.5-3.1,3.2,0,1.7,1.5,3.1,3.2,3.1,1.7,0,3.1-1.5,3.1-3.2Zm40.1,0c0-1.7-1.4-3.1-3.2-3.1-1.7,0-3.2,1.5-3.1,3.2,0,1.7,1.5,3.1,3.2,3.1,1.7,0,3.1-1.4,3.1-3.2Z"/>
        <path class="uuid-bcd14390-aed9-405b-911e-28841dcb5040" d="M38.4,43.9c2.5,0,2.6-.6,2.1,2.4-.3,1.9-.5,3.7-.7,5.6,0,1.1-.8,1-1.6,1.1-.8,0-1.4-.1-1.4-1.1-.2-2.3-.5-4.5-.8-6.8-.1-1,.2-1.3,1.1-1.2,.4,0,.8,0,1.2,0Zm-.2,7.2h.2c.2-1.7,.4-3.4,.6-5.1,0-.6-.2-.7-.7-.7-.5,0-.7,.3-.7,.8,.2,1.7,.4,3.3,.6,5Z"/>
        <path class="uuid-bcd14390-aed9-405b-911e-28841dcb5040" d="M36,55.9c0-1.2,1-2.2,2.2-2.2,1.2,0,2.2,1,2.2,2.2,0,1.2-1,2.2-2.2,2.2-1.2,0-2.2-1-2.2-2.2Zm2.1-.7c-.4,0-.6,.3-.6,.7,0,.5,.3,.7,.7,.6,.4,0,.6-.3,.6-.7,0-.4-.3-.6-.7-.6Z"/>
        <path class="uuid-bcd14390-aed9-405b-911e-28841dcb5040" d="M37.7,28.4c-2.9,0-5.3-2.6-5.2-5.4,.1-2.9,2.6-5.2,5.4-5.2,2.9,.1,5.3,2.6,5.2,5.4,0,2.9-2.5,5.2-5.4,5.1Zm3.8-5.2c0-2.1-1.7-3.8-3.7-3.8-2,0-3.7,1.7-3.8,3.8,0,2.1,1.7,3.8,3.8,3.8,2.1,0,3.7-1.6,3.7-3.7Z"/>
        <path class="uuid-bcd14390-aed9-405b-911e-28841dcb5040" d="M38.2,55.2c.4,0,.6,.2,.7,.6,0,.4-.2,.7-.6,.7-.4,0-.7-.2-.7-.6,0-.4,.3-.6,.6-.7Z"/>
      </g>
    </g>
  </g>
</svg>