<?xml version="1.0" encoding="UTF-8"?>
<svg id="uuid-509807e7-1ea4-4dad-9dbd-2a8cd504a47c" data-name="Layer 2" xmlns="http://www.w3.org/2000/svg" width="75.8" height="75.8" viewBox="0 0 75.8 75.8">
  <defs>
    <style>
      .uuid-8737568f-2a7c-4577-bb9b-f5b69ab5e39d {
        fill: #fff;
      }

      .uuid-0e47dba3-93c1-4a7e-be5a-05d2c5b408fe {
        fill: #1c396a;
      }
    </style>
  </defs>
  <g id="uuid-28636058-919a-4b65-8273-471740b87678" data-name="home">
    <g>
      <circle class="uuid-0e47dba3-93c1-4a7e-be5a-05d2c5b408fe" cx="37.9" cy="37.9" r="37.9" transform="translate(-5.5 69.4) rotate(-81)"/>
      <g>
        <polygon class="uuid-8737568f-2a7c-4577-bb9b-f5b69ab5e39d" points="44.4 55.9 41 55.9 41 29.9 35.4 29.9 35.4 55.9 32.1 55.9 32.1 60 23.3 60 23.3 62.6 35.4 62.6 41 62.6 53.1 62.6 53.1 60 44.4 60 44.4 55.9"/>
        <path class="uuid-8737568f-2a7c-4577-bb9b-f5b69ab5e39d" d="M55.4,22.9H20.6l-8.2,17c.4,4.1,3.9,7.3,8.2,7.3,7.3,0,8.2-7.3,8.2-7.3l-6.5-13.5h31.4l-6.5,13.5c.4,4.1,3.9,7.3,8.2,7.3,7.3,0,8.2-7.3,8.2-7.3l-8.2-17ZM20.6,45.1c-2.2,0-4.2-1.2-5.3-3.1h10.6c-1,1.8-3,3.1-5.3,3.1Zm-5.8-5.2l5.8-12.1,5.8,12.1H14.8Zm40.6,5.2c-2.2,0-4.2-1.2-5.3-3.1h10.6c-1,1.8-3,3.1-5.3,3.1Zm-5.8-5.2l5.8-12.1,5.8,12.1h-11.6Z"/>
        <polygon class="uuid-8737568f-2a7c-4577-bb9b-f5b69ab5e39d" points="40.5 20.4 42.8 15.7 40.5 11.9 36 11.9 33.8 15.7 36 20.4 40.5 20.4"/>
      </g>
    </g>
  </g>
</svg>