<?xml version="1.0" encoding="UTF-8"?>
<svg id="uuid-3f74e9aa-7cd4-41c2-9938-870d88bc67b6" data-name="Layer 2" xmlns="http://www.w3.org/2000/svg" width="169.2" height="118.2" viewBox="0 0 169.2 118.2">
  <defs>
    <style>
      .uuid-f94e2f07-b15f-40ca-b53a-1f6e754c6c0d {
        fill: #0090a8;
      }

      .uuid-4cac601e-9c38-4710-a973-40ebbd39e9e7 {
        fill: #1c396a;
      }
    </style>
  </defs>
  <g id="uuid-0566194a-e762-4ee7-a7cf-466f561a97b3" data-name="menu">
    <g>
      <g>
        <path class="uuid-f94e2f07-b15f-40ca-b53a-1f6e754c6c0d" d="M0,50.9H13.7v5.6H5.8v9.1h6.8v5.6H5.8v14.7H0V50.9Z"/>
        <path class="uuid-f94e2f07-b15f-40ca-b53a-1f6e754c6c0d" d="M17,55.1h7.6c4.7,0,7,2.2,7,6.7v4.5c0,2.8-1.3,4.6-3.8,5.4l5.6,14.2h-6.3l-4-13.2h-.3v13.2h-5.8v-30.8Zm5.8,4.9v8h.7c.6,0,1,0,1.2,0,.7-.3,1.1-.8,1.1-1.6v-4.5c0-1.2-.6-1.7-1.7-1.7h-1.3Z"/>
        <path class="uuid-f94e2f07-b15f-40ca-b53a-1f6e754c6c0d" d="M51,74.8l1.7,11h-5.9l-1-6.4h-4.3l-1,6.4h-5.9l1.7-11,3.5-19.8h7.6l3.5,19.8Zm-5.9-.3l-1.4-9.3-1.4,9.3h2.8Z"/>
        <path class="uuid-f94e2f07-b15f-40ca-b53a-1f6e754c6c0d" d="M68.5,55.1v4.9h-4.6v25.9h-5.8v-25.9h-4.6v-4.9h15.1Z"/>
        <path class="uuid-f94e2f07-b15f-40ca-b53a-1f6e754c6c0d" d="M71.6,55.1h13.7v4.9h-7.9v8h6.8v4.9h-6.8v8h7.9v4.9h-13.7v-30.8Z"/>
        <path class="uuid-f94e2f07-b15f-40ca-b53a-1f6e754c6c0d" d="M89,55.1h7.6c4.7,0,7,2.2,7,6.7v4.5c0,2.8-1.3,4.6-3.8,5.4l5.6,14.2h-6.3l-4-13.2h-.3v13.2h-5.8v-30.8Zm5.8,4.9v8h.7c.6,0,1,0,1.2,0,.7-.3,1.1-.8,1.1-1.6v-4.5c0-1.2-.6-1.7-1.7-1.7h-1.3Z"/>
        <path class="uuid-f94e2f07-b15f-40ca-b53a-1f6e754c6c0d" d="M108.3,55.1h5.8l3.9,15.2v-15.2h5.5v30.8h-5.8l-3.7-14.8v14.8h-5.6v-30.8Z"/>
        <path class="uuid-f94e2f07-b15f-40ca-b53a-1f6e754c6c0d" d="M128,55.1h5.8v30.8h-5.8v-30.8Z"/>
        <path class="uuid-f94e2f07-b15f-40ca-b53a-1f6e754c6c0d" d="M152.1,55.1v4.9h-4.6v25.9h-5.8v-25.9h-4.6v-4.9h15.1Z"/>
        <path class="uuid-f94e2f07-b15f-40ca-b53a-1f6e754c6c0d" d="M155.3,55.1h13.7v4.9h-7.9v8h6.8v4.9h-6.8v8h7.9v4.9h-13.7v-30.8Zm13.1-4l-5.1,3.3h-5l5.6-5.1h4.5v1.8Z"/>
      </g>
      <g>
        <path class="uuid-f94e2f07-b15f-40ca-b53a-1f6e754c6c0d" d="M119,0l4.8,3.4c-.7,.5-1.6,1-2.5,1.6-5.5,3.1-14.9,6.5-21,8.6-1.6,.6-3,1-4.1,1.4-1.2,.4-1.8,.6-1.8,.6-6.2,1.8-12.9,3.4-19.2,4.9-1.5,.3-2.9,.7-4.3,1-9.3,2.1-17.3,3.7-21,4.4-1.4,.3-2.2,.4-2.2,.4,.6,0,1.4,0,2.2,0,5,0,13.1-1.1,21-2.3,1.4-.2,2.9-.4,4.3-.7,10.8-1.7,20.3-3.5,20.3-3.5,.2,0,.5,0,.7-.1,1.4-.3,2.8-.5,4.1-.8,8.7-1.8,15.8-3.9,21-5.7,6.7-2.3,10.3-4.2,10.3-4.2l4.6,2.6V0h-17.2Z"/>
        <path class="uuid-4cac601e-9c38-4710-a973-40ebbd39e9e7" d="M70.8,17.7h-21v6.9c1.8-.3,10-1.9,21-4.5v-2.4Z"/>
        <path class="uuid-4cac601e-9c38-4710-a973-40ebbd39e9e7" d="M96.1,10.1h-21v9c6.5-1.7,13.7-3.7,21-6v-3Z"/>
        <path class="uuid-4cac601e-9c38-4710-a973-40ebbd39e9e7" d="M100.2,3V11.7c1.7-.6,3.4-1.2,5-1.8l16-6.8h-21Z"/>
        <path class="uuid-4cac601e-9c38-4710-a973-40ebbd39e9e7" d="M70.8,46.2V25.3c-9.3,1.2-16.7,1.9-21,2.3v18.6h21Z"/>
        <path class="uuid-4cac601e-9c38-4710-a973-40ebbd39e9e7" d="M75.1,24.7v21.5h21V21.2c-3.7,.7-6.2,1.2-6.2,1.2-5.2,.9-10.2,1.7-14.8,2.3Z"/>
        <path class="uuid-4cac601e-9c38-4710-a973-40ebbd39e9e7" d="M100.2,46.2h21V15.7c-6.7,1.7-14.7,3.4-21,4.6v25.8Z"/>
      </g>
      <g>
        <path class="uuid-4cac601e-9c38-4710-a973-40ebbd39e9e7" d="M43,115.9h-1.2l-1.3-2.5h-1.4v2.5h-1.1v-6.5h2.7c.1,0,.4,0,.5,0,1.1,.2,1.7,1,1.7,2s-.4,1.5-1.2,1.9l1.3,2.6Zm-3.9-5.5v2h1.5c.1,0,.3,0,.4,0,.5-.2,.7-.6,.7-1s-.2-.8-.7-1c-.1,0-.3,0-.4,0h-1.5Z"/>
        <path class="uuid-4cac601e-9c38-4710-a973-40ebbd39e9e7" d="M44.8,113.7c0,.8,.5,1.2,1.3,1.2s.9-.2,1.1-.7l1.1,.3c-.4,.9-1.2,1.4-2.1,1.4-1.5,0-2.5-1-2.5-2.5s1-2.6,2.4-2.6,2.4,1.1,2.3,2.9h-3.5Zm0-.8h2.4c0-.8-.4-1.1-1.1-1.1s-1.1,.4-1.3,1.1Z"/>
        <path class="uuid-4cac601e-9c38-4710-a973-40ebbd39e9e7" d="M52.7,111h.9v5.1c0,.3,0,.5,0,.7-.2,.9-1.1,1.4-2.2,1.4s-1.6-.4-1.9-1.1l1-.5c.2,.4,.6,.5,.9,.5,.7,0,1.2-.4,1.2-1v-.5c-.3,.2-.7,.4-1.3,.4-1.3,0-2.2-1.1-2.2-2.6s.9-2.6,2.3-2.6,1,.2,1.3,.5v-.4Zm0,2.4c0-.9-.4-1.6-1.2-1.6s-1.3,.7-1.3,1.6,.4,1.6,1.2,1.6,1.2-.7,1.2-1.6Z"/>
        <path class="uuid-4cac601e-9c38-4710-a973-40ebbd39e9e7" d="M54.9,109.8c0-.4,.3-.6,.6-.6s.7,.3,.7,.6-.3,.6-.7,.6-.6-.3-.6-.6Zm.1,6.1v-4.9h1.1v4.9h-1.1Z"/>
        <path class="uuid-4cac601e-9c38-4710-a973-40ebbd39e9e7" d="M57.2,114.4l1.1-.2c.1,.5,.5,.8,1.1,.8s.8-.2,.8-.6-.1-.4-1.2-.7c-1.2-.3-1.6-.7-1.6-1.4s.8-1.5,1.9-1.5,1.9,.6,2,1.4l-1.1,.2c0-.4-.4-.7-.9-.7-.5,0-.8,.2-.8,.5s.2,.4,1.3,.7c1.2,.3,1.6,.7,1.6,1.4s-.8,1.6-2,1.6-2-.6-2.1-1.5Z"/>
        <path class="uuid-4cac601e-9c38-4710-a973-40ebbd39e9e7" d="M63.7,111.8v2c0,.4,0,.7,0,.9,.2,.4,.7,.4,1.3,.3v.9c-1,.2-1.9,0-2.3-.6-.2-.4-.2-.8-.2-1.4v-2h-.9v-.8h.9v-1.3h1.1v1.3h1.4v.8h-1.4Z"/>
        <path class="uuid-4cac601e-9c38-4710-a973-40ebbd39e9e7" d="M68.9,111v1c-.3,0-.7,0-1,.1-.4,.2-.6,.7-.6,1.3v2.5h-1.1v-4.9h1v.8c.1-.2,.3-.4,.5-.5,.4-.2,.9-.3,1.3-.3Z"/>
        <path class="uuid-4cac601e-9c38-4710-a973-40ebbd39e9e7" d="M69.4,113.4c0-1.5,1-2.6,2.4-2.6s2.4,1.1,2.4,2.6-1,2.6-2.4,2.6-2.4-1.1-2.4-2.6Zm3.7,0c0-.9-.4-1.5-1.3-1.5s-1.3,.6-1.3,1.5,.4,1.5,1.3,1.5,1.3-.6,1.3-1.5Z"/>
        <path class="uuid-4cac601e-9c38-4710-a973-40ebbd39e9e7" d="M77.1,115.9v-6.5h2.1c.1,0,.5,0,.8,0,1.5,.2,2.4,1.6,2.4,3.2s-.8,3-2.4,3.2c-.3,0-.7,0-.8,0h-2.1Zm1.1-1h1c.2,0,.5,0,.7,0,.9-.2,1.3-1.2,1.3-2.2s-.4-2-1.3-2.2c-.2,0-.5,0-.7,0h-1v4.4Z"/>
        <path class="uuid-4cac601e-9c38-4710-a973-40ebbd39e9e7" d="M83,115.3c0-.4,.3-.6,.6-.6s.7,.3,.7,.6-.3,.6-.7,.6-.6-.3-.6-.6Z"/>
        <path class="uuid-4cac601e-9c38-4710-a973-40ebbd39e9e7" d="M85.3,112.6c0-2.1,1.3-3.4,3-3.4s2.5,.8,2.8,2l-1.1,.2c-.2-.6-.8-1.1-1.6-1.1-1.3,0-1.9,.9-2,2.3,0,1.4,.6,2.3,2,2.4,1,0,1.6-.5,1.8-1.7h-1.6v-.8h2.8c0,0,0,.3,0,.4,0,1.8-1.1,3.2-3,3.2s-3-1.2-3-3.4Z"/>
        <path class="uuid-4cac601e-9c38-4710-a973-40ebbd39e9e7" d="M91.9,115.3c0-.4,.3-.6,.6-.6s.7,.3,.7,.6-.3,.6-.7,.6-.6-.3-.6-.6Z"/>
        <path class="uuid-4cac601e-9c38-4710-a973-40ebbd39e9e7" d="M94.5,115.9v-6.5h1l2.2,4.6,2.2-4.6h1v6.5h-1v-4.2l-2,4.2h-.4l-2-4.2v4.2h-1Z"/>
        <path class="uuid-4cac601e-9c38-4710-a973-40ebbd39e9e7" d="M102.3,115.3c0-.4,.3-.6,.6-.6s.7,.3,.7,.6-.3,.6-.7,.6-.6-.3-.6-.6Z"/>
        <path class="uuid-4cac601e-9c38-4710-a973-40ebbd39e9e7" d="M107.8,115.9h-1.1v-6.5h1.1l3,4.6v-4.6h1.1v6.5h-1.1l-3-4.6v4.6Z"/>
        <path class="uuid-4cac601e-9c38-4710-a973-40ebbd39e9e7" d="M112.8,110.9c0-.9,.8-1.6,1.6-1.6s1.6,.7,1.6,1.6-.7,1.6-1.6,1.6-1.6-.7-1.6-1.6Zm2.3,0c0-.4-.3-.7-.7-.7s-.7,.3-.7,.7,.3,.7,.7,.7,.7-.3,.7-.7Z"/>
        <path class="uuid-4cac601e-9c38-4710-a973-40ebbd39e9e7" d="M121.5,111.8c1,.2,1.6,1,1.6,2s-1,2.1-2.2,2.1-1.8-.6-2.1-1.5l1-.3c.1,.5,.6,.8,1.1,.8,.6,0,1.1-.5,1.1-1.1s-.5-1.1-1.1-1.1-.4,0-.6,.2l-.5-.9,1.9-1.6h-2.7v-1h4v1l-1.5,1.4Z"/>
        <path class="uuid-4cac601e-9c38-4710-a973-40ebbd39e9e7" d="M128.8,113.8c0,1.2-1,2.2-2.2,2.2s-2.2-1-2.2-2.3v-2c0-1.5,.9-2.4,2.4-2.4s1.3,.2,1.7,.7l-.8,.8c-.2-.3-.6-.4-.9-.4-.8,0-1.3,.6-1.3,1.3v.7c.4-.3,.8-.5,1.3-.5,1.2,0,2.1,.9,2.1,2.1Zm-1.1,0c0-.6-.5-1.1-1.1-1.1s-1.1,.5-1.1,1.1,.5,1.1,1.1,1.1,1.1-.5,1.1-1.1Z"/>
        <path class="uuid-4cac601e-9c38-4710-a973-40ebbd39e9e7" d="M134,111.6v2c0,1.5-.9,2.4-2.4,2.4s-1.3-.2-1.7-.7l.8-.8c.2,.3,.6,.4,.9,.4,.8,0,1.3-.6,1.3-1.3v-.7c-.4,.3-.8,.5-1.3,.5-1.2,0-2.1-.9-2.1-2.1s1-2.2,2.2-2.2,2.2,1,2.2,2.3Zm-1.1-.2c0-.6-.5-1.1-1.1-1.1s-1.1,.5-1.1,1.1,.5,1.1,1.1,1.1,1.1-.5,1.1-1.1Z"/>
      </g>
      <g>
        <path class="uuid-4cac601e-9c38-4710-a973-40ebbd39e9e7" d="M5.5,100.2c0,1.8-.9,2.7-2.7,2.7-1.8,0-2.7-.9-2.7-2.7v-8c0-1.8,.9-2.7,2.7-2.7s2.7,.9,2.7,2.7v1.8h-1.9v-1.8c0-.6-.3-.9-.8-.9h0c-.5,0-.8,.3-.8,.9v8c0,.6,.3,.9,.8,.9s.8-.3,.8-.9v-1.8h1.9v1.8Z"/>
        <path class="uuid-4cac601e-9c38-4710-a973-40ebbd39e9e7" d="M7.2,89.7h4.9v1.9h-3v3.7h2.6v1.9h-2.6v3.7h3v1.9H7.2v-13Z"/>
        <path class="uuid-4cac601e-9c38-4710-a973-40ebbd39e9e7" d="M13.6,89.7h1.9l1.8,7.5v-7.5h1.7v13h-1.9l-1.7-7.3v7.3h-1.8v-13Z"/>
        <path class="uuid-4cac601e-9c38-4710-a973-40ebbd39e9e7" d="M25.8,89.7v1.9h-1.8v11.2h-1.9v-11.2h-1.8v-1.9h5.4Z"/>
        <path class="uuid-4cac601e-9c38-4710-a973-40ebbd39e9e7" d="M27.1,89.7h2.7c1.7,0,2.5,.9,2.5,2.7v2c0,1.1-.5,1.9-1.5,2.3l2.1,6.1h-2.1l-1.7-5.7h-.2v5.7h-1.9v-13Zm1.9,1.9v3.7h.4c.3,0,.4,0,.5,0,.3-.1,.5-.4,.5-.8v-2c0-.6-.3-.9-.8-.9h-.7Z"/>
        <path class="uuid-4cac601e-9c38-4710-a973-40ebbd39e9e7" d="M39.5,100.2c0,1.8-.9,2.7-2.7,2.7-1.8,0-2.7-.9-2.7-2.7v-8c0-1.8,.9-2.7,2.7-2.7s2.7,.9,2.7,2.7v8Zm-1.9-8c0-.6-.3-.9-.8-.9h0c-.5,0-.8,.3-.8,.9v8c0,.6,.3,.9,.8,.9s.8-.3,.8-.9v-8Z"/>
        <path class="uuid-4cac601e-9c38-4710-a973-40ebbd39e9e7" d="M44.8,89.7h2.7c1.7,0,2.5,.9,2.5,2.7v2c0,1.3-.6,2.2-1.8,2.6-.3,0-.7,.1-1.3,.1h-.3v5.6h-1.9v-13Zm1.9,1.9v3.7h.4c.3,0,.4,0,.5,0,.3-.1,.5-.4,.5-.8v-2c0-.6-.3-.9-.8-.9h-.7Z"/>
        <path class="uuid-4cac601e-9c38-4710-a973-40ebbd39e9e7" d="M51.6,89.7h2.7c1.7,0,2.5,.9,2.5,2.7v2c0,1.1-.5,1.9-1.5,2.3l2.1,6.1h-2.1l-1.7-5.7h-.2v5.7h-1.9v-13Zm1.9,1.9v3.7h.4c.3,0,.4,0,.5,0,.3-.1,.5-.4,.5-.8v-2c0-.6-.3-.9-.8-.9h-.7Z"/>
        <path class="uuid-4cac601e-9c38-4710-a973-40ebbd39e9e7" d="M58.7,89.7h1.9v13h-1.9v-13Z"/>
        <path class="uuid-4cac601e-9c38-4710-a973-40ebbd39e9e7" d="M66.4,102.7h-2.6l-1.3-8.4-.6-4.6h1.9l1.3,10,1.3-10h1.9l-.6,4.6-1.3,8.4Z"/>
        <path class="uuid-4cac601e-9c38-4710-a973-40ebbd39e9e7" d="M74.6,98.1l.6,4.6h-1.9l-.4-2.8h-1.9l-.4,2.8h-1.9l.6-4.6,1.3-8.4h2.6l1.3,8.4Zm-1.9,0l-.7-5.4-.7,5.4h1.4Z"/>
        <path class="uuid-4cac601e-9c38-4710-a973-40ebbd39e9e7" d="M76.5,89.7h2.9c1.7,0,2.5,.9,2.5,2.7v7.5c0,1.8-.9,2.7-2.6,2.7h-2.8v-13Zm1.9,1.9v9.3h.8c.5,0,.8-.3,.8-.9v-7.5c0-.6-.3-.9-.8-.9h-.8Z"/>
        <path class="uuid-4cac601e-9c38-4710-a973-40ebbd39e9e7" d="M88.9,100.2c0,1.8-.9,2.7-2.7,2.7-1.8,0-2.7-.9-2.7-2.7v-8c0-1.8,.9-2.7,2.7-2.7s2.7,.9,2.7,2.7v8Zm-1.9-8c0-.6-.3-.9-.8-.9h0c-.5,0-.8,.3-.8,.9v8c0,.6,.3,.9,.8,.9s.8-.3,.8-.9v-8Z"/>
        <path class="uuid-4cac601e-9c38-4710-a973-40ebbd39e9e7" d="M94.2,89.7h2.9c1.7,0,2.5,.9,2.5,2.7v7.5c0,1.8-.9,2.7-2.6,2.7h-2.8v-13Zm1.9,1.9v9.3h.8c.5,0,.8-.3,.8-.9v-7.5c0-.6-.3-.9-.8-.9h-.8Z"/>
        <path class="uuid-4cac601e-9c38-4710-a973-40ebbd39e9e7" d="M101.3,89.7h4.9v1.9h-3v3.7h2.6v1.9h-2.6v3.7h3v1.9h-4.9v-13Z"/>
        <path class="uuid-4cac601e-9c38-4710-a973-40ebbd39e9e7" d="M115.4,98.6l2.2-8.9h1.9v13h-1.8v-7.3l-1.6,7.3h-1.3l-1.7-7.3v7.3h-1.8v-13h1.9l2.2,8.9Z"/>
        <path class="uuid-4cac601e-9c38-4710-a973-40ebbd39e9e7" d="M121.3,89.7h4.9v1.9h-3v3.7h2.6v1.9h-2.6v3.7h3v1.9h-4.9v-13Z"/>
        <path class="uuid-4cac601e-9c38-4710-a973-40ebbd39e9e7" d="M127.7,89.7h2.9c1.7,0,2.5,.9,2.5,2.7v7.5c0,1.8-.9,2.7-2.6,2.7h-2.8v-13Zm1.9,1.9v9.3h.8c.5,0,.8-.3,.8-.9v-7.5c0-.6-.3-.9-.8-.9h-.8Z"/>
        <path class="uuid-4cac601e-9c38-4710-a973-40ebbd39e9e7" d="M134.9,89.7h1.9v13h-1.9v-13Z"/>
        <path class="uuid-4cac601e-9c38-4710-a973-40ebbd39e9e7" d="M143.9,98.1l.6,4.6h-1.9l-.4-2.8h-1.9l-.4,2.8h-1.9l.6-4.6,1.3-8.4h2.6l1.3,8.4Zm-1.9,0l-.7-5.4-.7,5.4h1.4Z"/>
        <path class="uuid-4cac601e-9c38-4710-a973-40ebbd39e9e7" d="M151.1,100.2c0,1.8-.9,2.7-2.7,2.7-1.8,0-2.7-.9-2.7-2.7v-8c0-1.8,.9-2.7,2.7-2.7s2.7,.9,2.7,2.7v1.8h-1.9v-1.8c0-.6-.3-.9-.8-.9h0c-.5,0-.8,.3-.8,.9v8c0,.6,.3,.9,.8,.9s.8-.3,.8-.9v-1.8h1.9v1.8Z"/>
        <path class="uuid-4cac601e-9c38-4710-a973-40ebbd39e9e7" d="M152.8,89.7h1.9v13h-1.9v-13Z"/>
        <path class="uuid-4cac601e-9c38-4710-a973-40ebbd39e9e7" d="M162,100.2c0,1.8-.9,2.7-2.7,2.7-1.8,0-2.7-.9-2.7-2.7v-8c0-1.8,.9-2.7,2.7-2.7s2.7,.9,2.7,2.7v8Zm-2.8-11h-1l.9-1.7h1.5l-1.4,1.7Zm.9,3c0-.6-.3-.9-.8-.9h0c-.5,0-.8,.3-.8,.9v8c0,.6,.3,.9,.8,.9s.8-.3,.8-.9v-8Z"/>
        <path class="uuid-4cac601e-9c38-4710-a973-40ebbd39e9e7" d="M163.8,89.7h1.9l1.8,7.5v-7.5h1.7v13h-1.9l-1.7-7.3v7.3h-1.8v-13Z"/>
      </g>
    </g>
  </g>
</svg>