<?xml version="1.0" encoding="UTF-8"?>
<svg id="uuid-189303e0-8f72-41dd-8790-34fefca23e4d" data-name="Layer 2" xmlns="http://www.w3.org/2000/svg" width="253.5" height="238.6" viewBox="0 0 253.5 238.6">
  <defs>
    <style>
      .uuid-eded3d59-f960-4fbf-a557-c2944d328842 {
        fill: #fff;
      }

      .uuid-516f43f9-32da-4145-9a2a-ce5a6a4d2f47 {
        fill: #0090a8;
      }
    </style>
  </defs>
  <g id="uuid-26be9f0e-3ee6-47da-a41d-d3dd7295be1a" data-name="contacto">
    <g>
      <g>
        <path class="uuid-eded3d59-f960-4fbf-a557-c2944d328842" d="M36.9,234.3h-2.3l-2.4-4.5h-2.6v4.5h-2v-12h4.9c.2,0,.6,0,1,0,2.1,.3,3.1,1.8,3.1,3.7s-.7,2.9-2.3,3.4l2.5,4.8Zm-7.2-10.1v3.7h2.9c.2,0,.5,0,.8,0,1-.4,1.3-1.1,1.3-1.8s-.3-1.5-1.3-1.8c-.2,0-.5,0-.8,0h-2.9Z"/>
        <path class="uuid-eded3d59-f960-4fbf-a557-c2944d328842" d="M40.3,230.4c.2,1.5,1,2.3,2.3,2.3s1.7-.4,2.1-1.3l2,.6c-.7,1.6-2.2,2.6-4,2.6-2.7,0-4.6-1.9-4.6-4.6s1.8-4.8,4.5-4.8,4.4,2.1,4.2,5.3h-6.5Zm0-1.5h4.4c-.2-1.4-.8-2-2.1-2s-2.1,.7-2.4,2Z"/>
        <path class="uuid-eded3d59-f960-4fbf-a557-c2944d328842" d="M54.8,225.3h1.8v9.4c0,.5,0,.9-.1,1.3-.4,1.7-2,2.5-4,2.5s-2.9-.7-3.6-2l1.8-.9c.3,.6,1,1,1.7,1,1.2,0,2.2-.7,2.1-1.9v-.9c-.6,.4-1.4,.7-2.3,.7-2.5,0-4.1-2-4.1-4.7s1.6-4.7,4.2-4.7,1.9,.3,2.5,.9v-.6Zm0,4.5c0-1.8-.7-2.9-2.2-2.9s-2.4,1.3-2.4,2.9,.7,2.9,2.3,2.9,2.3-1.2,2.3-2.9Z"/>
        <path class="uuid-eded3d59-f960-4fbf-a557-c2944d328842" d="M58.8,223.1c0-.7,.5-1.2,1.2-1.2s1.2,.5,1.2,1.2-.5,1.2-1.2,1.2-1.2-.5-1.2-1.2Zm.2,11.3v-9h2v9h-2Z"/>
        <path class="uuid-eded3d59-f960-4fbf-a557-c2944d328842" d="M63,231.7l2-.3c.2,.9,1,1.4,2.1,1.4s1.5-.4,1.5-1.1-.3-.8-2.3-1.3c-2.3-.6-3-1.3-3-2.6s1.4-2.8,3.5-2.8,3.6,1,3.8,2.7l-2,.4c-.1-.8-.7-1.2-1.7-1.3-.9,0-1.6,.3-1.6,.9s.3,.7,2.5,1.3c2.2,.6,2.9,1.3,2.9,2.7s-1.4,2.9-3.7,2.9-3.7-1-4-2.9Z"/>
        <path class="uuid-eded3d59-f960-4fbf-a557-c2944d328842" d="M75.2,226.9v3.6c0,.7,0,1.3,.2,1.6,.4,.7,1.3,.7,2.5,.5v1.7c-1.8,.3-3.6,.2-4.3-1.1-.4-.8-.3-1.5-.3-2.6v-3.7h-1.6v-1.6h1.6v-2.5h2v2.5h2.6v1.6h-2.6Z"/>
        <path class="uuid-eded3d59-f960-4fbf-a557-c2944d328842" d="M84.8,225.3v1.9c-.5-.1-1.3-.1-1.9,.2-.8,.4-1.2,1.3-1.2,2.3v4.6h-2v-9h1.8v1.4c.2-.4,.5-.7,.9-1,.7-.5,1.6-.6,2.4-.5Z"/>
        <path class="uuid-eded3d59-f960-4fbf-a557-c2944d328842" d="M85.7,229.8c0-2.8,1.8-4.7,4.5-4.7s4.5,2,4.5,4.7-1.8,4.7-4.5,4.7-4.5-2-4.5-4.7Zm6.8,0c0-1.7-.8-2.9-2.4-2.9s-2.3,1.2-2.3,2.9,.8,2.9,2.3,2.9,2.4-1.2,2.4-2.9Z"/>
        <path class="uuid-eded3d59-f960-4fbf-a557-c2944d328842" d="M99.8,234.3v-12h3.8c.2,0,.9,0,1.5,0,2.9,.4,4.4,2.9,4.4,5.9s-1.6,5.6-4.4,5.9c-.5,0-1.3,0-1.5,0h-3.8Zm2-1.9h1.8c.3,0,.9,0,1.3,0,1.7-.3,2.4-2.1,2.4-4s-.8-3.7-2.4-4c-.4,0-1,0-1.3,0h-1.8v8.2Z"/>
        <path class="uuid-eded3d59-f960-4fbf-a557-c2944d328842" d="M110.8,233.3c0-.7,.5-1.2,1.2-1.2s1.2,.5,1.2,1.2-.5,1.2-1.2,1.2-1.2-.5-1.2-1.2Z"/>
        <path class="uuid-eded3d59-f960-4fbf-a557-c2944d328842" d="M115,228.3c0-3.9,2.4-6.2,5.6-6.2s4.5,1.4,5.1,3.6l-2,.3c-.5-1.2-1.4-2.1-3-2.1-2.4,0-3.6,1.7-3.6,4.3,0,2.6,1.2,4.3,3.6,4.3,1.8,0,3-1,3.3-3.1h-3v-1.6h5.1c0,.2,0,.6,0,.7,0,3.4-2.1,5.8-5.6,5.8s-5.6-2.2-5.6-6.2Z"/>
        <path class="uuid-eded3d59-f960-4fbf-a557-c2944d328842" d="M127.2,233.3c0-.7,.5-1.2,1.2-1.2s1.2,.5,1.2,1.2-.5,1.2-1.2,1.2-1.2-.5-1.2-1.2Z"/>
        <path class="uuid-eded3d59-f960-4fbf-a557-c2944d328842" d="M132.1,234.3v-12h1.8l4.1,8.5,4.1-8.5h1.8v12h-1.9v-7.7l-3.7,7.7h-.8l-3.7-7.7v7.7h-1.9Z"/>
        <path class="uuid-eded3d59-f960-4fbf-a557-c2944d328842" d="M146.4,233.3c0-.7,.5-1.2,1.2-1.2s1.2,.5,1.2,1.2-.5,1.2-1.2,1.2-1.2-.5-1.2-1.2Z"/>
        <path class="uuid-eded3d59-f960-4fbf-a557-c2944d328842" d="M156.7,234.3h-2v-12h2l5.6,8.4v-8.4h2v12h-2l-5.6-8.4v8.4Z"/>
        <path class="uuid-eded3d59-f960-4fbf-a557-c2944d328842" d="M165.9,225.1c0-1.6,1.4-3,3-3s3,1.3,3,3-1.3,3-3,3-3-1.3-3-3Zm4.3,0c0-.7-.6-1.3-1.3-1.3s-1.3,.6-1.3,1.3,.6,1.3,1.3,1.3,1.3-.6,1.3-1.3Z"/>
        <path class="uuid-eded3d59-f960-4fbf-a557-c2944d328842" d="M182,226.8c1.8,.4,2.9,1.9,2.9,3.7s-1.8,4-4.1,4-3.4-1.1-3.9-2.9l1.9-.5c.3,1,1.1,1.5,2,1.5,1.2,0,2.1-.9,2.1-2.1s-.8-2.1-2.1-2.1-.7,.1-1,.3l-.9-1.6,3.5-3h-5v-1.9h7.3v1.9l-2.7,2.6Z"/>
        <path class="uuid-eded3d59-f960-4fbf-a557-c2944d328842" d="M195.3,230.6c0,2.2-1.9,4-4.1,4s-4.1-1.8-4.1-4.3v-3.6c0-2.7,1.8-4.5,4.4-4.5s2.3,.4,3.2,1.3l-1.4,1.4c-.4-.5-1.1-.8-1.7-.8-1.4,0-2.3,1.1-2.3,2.3v1.2c.7-.6,1.5-.9,2.4-.9,2.3,0,3.9,1.7,3.9,3.9Zm-2,0c0-1.2-.9-2.1-2.1-2.1s-2.1,1-2.1,2.1,.9,2.1,2.1,2.1,2.1-.9,2.1-2.1Z"/>
        <path class="uuid-eded3d59-f960-4fbf-a557-c2944d328842" d="M205,226.5v3.6c0,2.7-1.8,4.5-4.4,4.5s-2.3-.4-3.2-1.3l1.4-1.4c.4,.5,1.1,.8,1.7,.8,1.4,0,2.3-1.1,2.3-2.3v-1.2c-.7,.6-1.5,.9-2.4,.9-2.3,0-3.9-1.7-3.9-3.9s1.9-4,4.1-4,4.1,1.8,4.1,4.3Zm-2-.3c0-1.1-.9-2.1-2.1-2.1s-2.1,.9-2.1,2.1,.9,2.1,2.1,2.1,2.1-1,2.1-2.1Z"/>
      </g>
      <g>
        <g>
          <path class="uuid-516f43f9-32da-4145-9a2a-ce5a6a4d2f47" d="M0,132.4H18.8v7.7H8v12.5h9.3v7.7H8v20.2H0v-48.1Z"/>
          <path class="uuid-516f43f9-32da-4145-9a2a-ce5a6a4d2f47" d="M23.4,138.2h10.5c6.4,0,9.7,3.1,9.7,9.2v6.2c0,3.8-1.7,6.3-5.2,7.5l7.7,19.5h-8.7l-5.5-18.2h-.4v18.2h-8v-42.4Zm8,6.8v11h1c.9,0,1.4,0,1.7-.1,1-.4,1.5-1.1,1.5-2.3v-6.2c0-1.6-.8-2.4-2.4-2.4h-1.8Z"/>
          <path class="uuid-516f43f9-32da-4145-9a2a-ce5a6a4d2f47" d="M70.1,165.4l2.3,15.2h-8.1l-1.3-8.8h-5.9l-1.3,8.8h-8.1l2.3-15.1,4.9-27.2h10.4l4.9,27.2Zm-8.1-.4l-1.9-12.8-1.9,12.8h3.8Z"/>
          <path class="uuid-516f43f9-32da-4145-9a2a-ce5a6a4d2f47" d="M94.2,138.2v6.8h-6.4v35.6h-8v-35.6h-6.4v-6.8h20.7Z"/>
          <path class="uuid-516f43f9-32da-4145-9a2a-ce5a6a4d2f47" d="M98.5,138.2h18.8v6.8h-10.8v11h9.3v6.8h-9.3v11h10.8v6.8h-18.8v-42.4Z"/>
          <path class="uuid-516f43f9-32da-4145-9a2a-ce5a6a4d2f47" d="M122.4,138.2h10.5c6.4,0,9.7,3.1,9.7,9.2v6.2c0,3.8-1.7,6.3-5.2,7.5l7.7,19.5h-8.7l-5.5-18.2h-.4v18.2h-8v-42.4Zm8,6.8v11h1c.9,0,1.4,0,1.7-.1,1-.4,1.5-1.1,1.5-2.3v-6.2c0-1.6-.8-2.4-2.4-2.4h-1.8Z"/>
          <path class="uuid-516f43f9-32da-4145-9a2a-ce5a6a4d2f47" d="M148.9,138.2h7.9l5.3,20.9v-20.9h7.5v42.4h-7.9l-5.1-20.3v20.3h-7.7v-42.4Z"/>
          <path class="uuid-516f43f9-32da-4145-9a2a-ce5a6a4d2f47" d="M176,138.2h8v42.4h-8v-42.4Z"/>
          <path class="uuid-516f43f9-32da-4145-9a2a-ce5a6a4d2f47" d="M209.2,138.2v6.8h-6.4v35.6h-8v-35.6h-6.4v-6.8h20.7Z"/>
          <path class="uuid-516f43f9-32da-4145-9a2a-ce5a6a4d2f47" d="M213.5,138.2h18.8v6.8h-10.8v11h9.3v6.8h-9.3v11h10.8v6.8h-18.8v-42.4Zm18-5.6l-7,4.5h-6.9l7.6-7h6.2v2.5Z"/>
        </g>
        <g>
          <path class="uuid-eded3d59-f960-4fbf-a557-c2944d328842" d="M7.2,202.7c0,2.2-1.1,3.3-3.3,3.4-2.2,0-3.3-1.1-3.3-3.4v-9.7c0-2.2,1.1-3.3,3.3-3.3s3.3,1.1,3.3,3.3v2.1h-2.3v-2.1c0-.7-.3-1.1-1-1.1h0c-.7,0-1,.4-1,1.1v9.7c0,.7,.3,1.1,1,1.1s1-.4,1-1.1v-2.1h2.3v2.1Z"/>
          <path class="uuid-eded3d59-f960-4fbf-a557-c2944d328842" d="M10.2,189.9h6v2.3h-3.7v4.6h3.1v2.3h-3.1v4.6h3.7v2.3h-6v-15.9Z"/>
          <path class="uuid-eded3d59-f960-4fbf-a557-c2944d328842" d="M19,189.9h2.3l2.2,9.2v-9.2h2.1v15.9h-2.3l-2.1-8.9v8.9h-2.2v-15.9Z"/>
          <path class="uuid-eded3d59-f960-4fbf-a557-c2944d328842" d="M34.8,189.9v2.3h-2.2v13.7h-2.3v-13.7h-2.2v-2.3h6.6Z"/>
          <path class="uuid-eded3d59-f960-4fbf-a557-c2944d328842" d="M37.5,189.9h3.3c2,0,3.1,1.1,3.1,3.4v2.4c0,1.4-.6,2.3-1.8,2.8l2.6,7.4h-2.5l-2.1-7h-.3v7h-2.3v-15.9Zm2.3,2.3v4.6h.5c.3,0,.5,0,.7,0,.4-.2,.6-.5,.6-1v-2.4c0-.7-.3-1.1-1-1.1h-.8Z"/>
          <path class="uuid-eded3d59-f960-4fbf-a557-c2944d328842" d="M53.5,202.7c0,2.2-1.1,3.3-3.3,3.4-2.2,0-3.3-1.1-3.3-3.4v-9.7c0-2.2,1.1-3.3,3.3-3.3s3.3,1.1,3.3,3.3v9.7Zm-2.3-9.7c0-.7-.3-1.1-1-1.1h0c-.7,0-1,.4-1,1.1v9.7c0,.7,.3,1.1,1,1.1s1-.4,1-1.1v-9.7Z"/>
          <path class="uuid-eded3d59-f960-4fbf-a557-c2944d328842" d="M61.9,189.9h3.3c2,0,3.1,1.1,3.1,3.4v2.4c0,1.6-.7,2.7-2.2,3.2-.4,.1-.9,.2-1.5,.2h-.4v6.8h-2.3v-15.9Zm2.3,2.3v4.6h.5c.3,0,.5,0,.7,0,.4-.2,.6-.5,.6-1v-2.4c0-.7-.3-1.1-1-1.1h-.8Z"/>
          <path class="uuid-eded3d59-f960-4fbf-a557-c2944d328842" d="M71.2,189.9h3.3c2,0,3.1,1.1,3.1,3.4v2.4c0,1.4-.6,2.3-1.8,2.8l2.6,7.4h-2.5l-2.1-7h-.3v7h-2.3v-15.9Zm2.3,2.3v4.6h.5c.3,0,.5,0,.7,0,.4-.2,.6-.5,.6-1v-2.4c0-.7-.3-1.1-1-1.1h-.8Z"/>
          <path class="uuid-eded3d59-f960-4fbf-a557-c2944d328842" d="M80.9,189.9h2.3v15.9h-2.3v-15.9Z"/>
          <path class="uuid-eded3d59-f960-4fbf-a557-c2944d328842" d="M91.3,205.8h-3.1l-1.6-10.3-.7-5.6h2.3l1.6,12.3,1.6-12.3h2.3l-.7,5.6-1.6,10.3Z"/>
          <path class="uuid-eded3d59-f960-4fbf-a557-c2944d328842" d="M102.3,200.1l.7,5.6h-2.3l-.4-3.4h-2.3l-.5,3.4h-2.3l.7-5.6,1.6-10.3h3.1l1.6,10.3Zm-2.3,0l-.9-6.6-.9,6.6h1.8Z"/>
          <path class="uuid-eded3d59-f960-4fbf-a557-c2944d328842" d="M105.6,189.9h3.5c2,0,3.1,1.1,3.1,3.4v9.2c0,2.2-1.1,3.3-3.2,3.3h-3.4v-15.9Zm2.3,2.3v11.4h1c.7,0,1-.4,1-1.1v-9.2c0-.7-.3-1.1-1-1.1h-1Z"/>
          <path class="uuid-eded3d59-f960-4fbf-a557-c2944d328842" d="M121.7,202.7c0,2.2-1.1,3.3-3.3,3.4-2.2,0-3.3-1.1-3.3-3.4v-9.7c0-2.2,1.1-3.3,3.3-3.3s3.3,1.1,3.3,3.3v9.7Zm-2.3-9.7c0-.7-.3-1.1-1-1.1h0c-.7,0-1,.4-1,1.1v9.7c0,.7,.3,1.1,1,1.1s1-.4,1-1.1v-9.7Z"/>
          <path class="uuid-eded3d59-f960-4fbf-a557-c2944d328842" d="M130.1,189.9h3.5c2,0,3.1,1.1,3.1,3.4v9.2c0,2.2-1.1,3.3-3.2,3.3h-3.4v-15.9Zm2.3,2.3v11.4h1c.7,0,1-.4,1-1.1v-9.2c0-.7-.3-1.1-1-1.1h-1Z"/>
          <path class="uuid-eded3d59-f960-4fbf-a557-c2944d328842" d="M139.8,189.9h6v2.3h-3.7v4.6h3.1v2.3h-3.1v4.6h3.7v2.3h-6v-15.9Z"/>
          <path class="uuid-eded3d59-f960-4fbf-a557-c2944d328842" d="M158.9,200.8l2.7-10.9h2.3v15.9h-2.2v-8.9l-2,8.9h-1.6l-2-8.9v8.9h-2.2v-15.9h2.3l2.7,10.9Z"/>
          <path class="uuid-eded3d59-f960-4fbf-a557-c2944d328842" d="M167.2,189.9h6v2.3h-3.7v4.6h3.1v2.3h-3.1v4.6h3.7v2.3h-6v-15.9Z"/>
          <path class="uuid-eded3d59-f960-4fbf-a557-c2944d328842" d="M176,189.9h3.5c2,0,3.1,1.1,3.1,3.4v9.2c0,2.2-1.1,3.3-3.2,3.3h-3.4v-15.9Zm2.3,2.3v11.4h1c.7,0,1-.4,1-1.1v-9.2c0-.7-.3-1.1-1-1.1h-1Z"/>
          <path class="uuid-eded3d59-f960-4fbf-a557-c2944d328842" d="M185.7,189.9h2.3v15.9h-2.3v-15.9Z"/>
          <path class="uuid-eded3d59-f960-4fbf-a557-c2944d328842" d="M197.8,200.1l.7,5.6h-2.3l-.4-3.4h-2.3l-.5,3.4h-2.3l.7-5.6,1.6-10.3h3.1l1.6,10.3Zm-2.3,0l-.9-6.6-.9,6.6h1.8Z"/>
          <path class="uuid-eded3d59-f960-4fbf-a557-c2944d328842" d="M207.5,202.7c0,2.2-1.1,3.3-3.3,3.4-2.2,0-3.3-1.1-3.3-3.4v-9.7c0-2.2,1.1-3.3,3.3-3.3s3.3,1.1,3.3,3.3v2.1h-2.3v-2.1c0-.7-.3-1.1-1-1.1h0c-.7,0-1,.4-1,1.1v9.7c0,.7,.3,1.1,1,1.1s1-.4,1-1.1v-2.1h2.3v2.1Z"/>
          <path class="uuid-eded3d59-f960-4fbf-a557-c2944d328842" d="M210.6,189.9h2.3v15.9h-2.3v-15.9Z"/>
          <path class="uuid-eded3d59-f960-4fbf-a557-c2944d328842" d="M222.7,202.7c0,2.2-1.1,3.3-3.3,3.4-2.2,0-3.3-1.1-3.3-3.4v-9.7c0-2.2,1.1-3.3,3.3-3.3s3.3,1.1,3.3,3.3v9.7Zm-3.4-13.4h-1.3l1.2-2.1h1.8l-1.7,2.1Zm1.1,3.7c0-.7-.3-1.1-1-1.1h0c-.7,0-1,.4-1,1.1v9.7c0,.7,.3,1.1,1,1.1s1-.4,1-1.1v-9.7Z"/>
          <path class="uuid-eded3d59-f960-4fbf-a557-c2944d328842" d="M225.9,189.9h2.3l2.2,9.2v-9.2h2.1v15.9h-2.3l-2.1-8.9v8.9h-2.2v-15.9Z"/>
        </g>
        <g>
          <path class="uuid-516f43f9-32da-4145-9a2a-ce5a6a4d2f47" d="M207.3,0l12.9,9.1c-1.9,1.4-4.2,2.8-6.8,4.2-14.8,8.2-39.9,17.4-56.3,23.1-4.4,1.5-8.2,2.8-10.9,3.7-3.1,1-4.9,1.6-4.9,1.6-16.6,4.7-34.5,9.2-51.3,13.2-3.9,.9-7.8,1.8-11.6,2.7-25,5.6-46.4,9.9-56.3,11.8-3.8,.7-5.9,1.1-5.9,1.1,1.7,0,3.7,.1,5.9,0,13.4-.2,35-2.9,56.3-6.1,3.9-.6,7.7-1.2,11.6-1.8,28.9-4.5,54.3-9.3,54.3-9.3,.7-.1,1.3-.2,2-.4,3.7-.7,7.4-1.4,10.9-2.1,23.2-4.8,42.2-10.5,56.3-15.4,17.8-6.2,27.7-11.2,27.7-11.2l12.4,7V0h-46.2Z"/>
          <path class="uuid-eded3d59-f960-4fbf-a557-c2944d328842" d="M78.3,47.5H22.1v18.6c4.8-.9,26.9-5,56.3-12.2v-6.4Z"/>
          <path class="uuid-eded3d59-f960-4fbf-a557-c2944d328842" d="M146.2,27h-56.3v24.1c17.4-4.4,36.8-9.8,56.3-16.1v-7.9Z"/>
          <path class="uuid-eded3d59-f960-4fbf-a557-c2944d328842" d="M157.1,8.1V31.3c4.5-1.5,9-3.1,13.4-4.7l42.8-18.2v-.2h-56.3Z"/>
          <path class="uuid-eded3d59-f960-4fbf-a557-c2944d328842" d="M78.3,123.7v-56c-24.8,3.3-44.7,5.2-56.3,6.1v49.8h56.3Z"/>
          <path class="uuid-eded3d59-f960-4fbf-a557-c2944d328842" d="M89.9,66.1v57.6h56.3V56.7c-10,2-16.6,3.2-16.6,3.2-14,2.4-27.3,4.5-39.7,6.3Z"/>
          <path class="uuid-eded3d59-f960-4fbf-a557-c2944d328842" d="M157.1,123.7h56.3V42.1c-17.9,4.5-39.5,9-56.3,12.4V123.7Z"/>
        </g>
      </g>
    </g>
  </g>
</svg>