<?xml version="1.0" encoding="UTF-8"?>
<svg id="uuid-b5fe190d-7419-4d64-97aa-80538344e142" data-name="Layer 2" xmlns="http://www.w3.org/2000/svg" width="126.7" height="119.3" viewBox="0 0 126.7 119.3">
  <defs>
    <style>
      .uuid-2e7b0846-dd38-453d-a6ea-fcb4693a9dad {
        fill: #fff;
      }

      .uuid-e3428f52-c19a-4367-8ff2-4044d6fa0d29 {
        fill: #0090a8;
      }
    </style>
  </defs>
  <g id="uuid-a0a9651d-9c55-4d14-b50e-e9d8ec2726a1" data-name="contacto">
    <g>
      <g>
        <path class="uuid-2e7b0846-dd38-453d-a6ea-fcb4693a9dad" d="M18.4,117.2h-1.1l-1.2-2.3h-1.3v2.3h-1v-6h2.5c.1,0,.3,0,.5,0,1,.2,1.5,.9,1.5,1.8s-.4,1.4-1.1,1.7l1.2,2.4Zm-3.6-5v1.8h1.4c.1,0,.3,0,.4,0,.5-.2,.7-.5,.7-.9s-.2-.8-.7-.9c-.1,0-.3,0-.4,0h-1.4Z"/>
        <path class="uuid-2e7b0846-dd38-453d-a6ea-fcb4693a9dad" d="M20.1,115.2c0,.7,.5,1.2,1.2,1.2s.9-.2,1.1-.6l1,.3c-.3,.8-1.1,1.3-2,1.3-1.4,0-2.3-1-2.3-2.3s.9-2.4,2.2-2.4,2.2,1,2.1,2.6h-3.3Zm0-.8h2.2c0-.7-.4-1-1-1s-1.1,.3-1.2,1Z"/>
        <path class="uuid-2e7b0846-dd38-453d-a6ea-fcb4693a9dad" d="M27.4,112.7h.9v4.7c0,.2,0,.4,0,.6-.2,.9-1,1.3-2,1.3s-1.4-.4-1.8-1l.9-.5c.2,.3,.5,.5,.9,.5,.6,0,1.1-.3,1.1-1v-.4c-.3,.2-.7,.4-1.2,.4-1.2,0-2.1-1-2.1-2.4s.8-2.4,2.1-2.4,.9,.2,1.2,.4v-.3Zm0,2.2c0-.9-.3-1.5-1.1-1.5s-1.2,.7-1.2,1.5,.4,1.5,1.1,1.5,1.1-.6,1.1-1.5Z"/>
        <path class="uuid-2e7b0846-dd38-453d-a6ea-fcb4693a9dad" d="M29.4,111.5c0-.3,.3-.6,.6-.6s.6,.3,.6,.6-.3,.6-.6,.6-.6-.3-.6-.6Zm0,5.6v-4.5h1v4.5h-1Z"/>
        <path class="uuid-2e7b0846-dd38-453d-a6ea-fcb4693a9dad" d="M31.5,115.9l1-.2c0,.4,.5,.7,1,.7s.8-.2,.8-.5-.1-.4-1.1-.6c-1.1-.3-1.5-.6-1.5-1.3s.7-1.4,1.8-1.4,1.8,.5,1.9,1.3l-1,.2c0-.4-.4-.6-.9-.6-.5,0-.8,.2-.8,.5s.2,.4,1.2,.6c1.1,.3,1.5,.6,1.5,1.3s-.7,1.5-1.9,1.5-1.8-.5-2-1.4Z"/>
        <path class="uuid-2e7b0846-dd38-453d-a6ea-fcb4693a9dad" d="M37.6,113.5v1.8c0,.4,0,.6,0,.8,.2,.3,.7,.3,1.2,.2v.8c-.9,.2-1.8,0-2.1-.6-.2-.4-.2-.8-.2-1.3v-1.9h-.8v-.8h.8v-1.2h1v1.2h1.3v.8h-1.3Z"/>
        <path class="uuid-2e7b0846-dd38-453d-a6ea-fcb4693a9dad" d="M42.4,112.7v.9c-.3,0-.6,0-.9,.1-.4,.2-.6,.6-.6,1.2v2.3h-1v-4.5h.9v.7c.1-.2,.3-.4,.4-.5,.3-.2,.8-.3,1.2-.2Z"/>
        <path class="uuid-2e7b0846-dd38-453d-a6ea-fcb4693a9dad" d="M42.9,114.9c0-1.4,.9-2.4,2.2-2.4s2.2,1,2.2,2.4-.9,2.4-2.2,2.4-2.2-1-2.2-2.4Zm3.4,0c0-.9-.4-1.4-1.2-1.4s-1.2,.6-1.2,1.4,.4,1.4,1.2,1.4,1.2-.6,1.2-1.4Z"/>
        <path class="uuid-2e7b0846-dd38-453d-a6ea-fcb4693a9dad" d="M49.9,117.2v-6h1.9c0,0,.4,0,.7,0,1.4,.2,2.2,1.4,2.2,3s-.8,2.8-2.2,3c-.3,0-.6,0-.7,0h-1.9Zm1-.9h.9c.2,0,.5,0,.7,0,.8-.2,1.2-1.1,1.2-2s-.4-1.8-1.2-2c-.2,0-.5,0-.7,0h-.9v4.1Z"/>
        <path class="uuid-2e7b0846-dd38-453d-a6ea-fcb4693a9dad" d="M55.4,116.6c0-.3,.3-.6,.6-.6s.6,.3,.6,.6-.3,.6-.6,.6-.6-.3-.6-.6Z"/>
        <path class="uuid-2e7b0846-dd38-453d-a6ea-fcb4693a9dad" d="M57.5,114.2c0-2,1.2-3.1,2.8-3.1s2.3,.7,2.6,1.8l-1,.2c-.2-.6-.7-1-1.5-1-1.2,0-1.8,.9-1.8,2.2,0,1.3,.6,2.2,1.8,2.2,.9,0,1.5-.5,1.6-1.5h-1.5v-.8h2.6c0,0,0,.3,0,.3,0,1.7-1,2.9-2.8,2.9s-2.8-1.1-2.8-3.1Z"/>
        <path class="uuid-2e7b0846-dd38-453d-a6ea-fcb4693a9dad" d="M63.6,116.6c0-.3,.3-.6,.6-.6s.6,.3,.6,.6-.3,.6-.6,.6-.6-.3-.6-.6Z"/>
        <path class="uuid-2e7b0846-dd38-453d-a6ea-fcb4693a9dad" d="M66,117.2v-6h.9l2.1,4.2,2.1-4.2h.9v6h-.9v-3.8l-1.8,3.8h-.4l-1.8-3.8v3.8h-.9Z"/>
        <path class="uuid-2e7b0846-dd38-453d-a6ea-fcb4693a9dad" d="M73.2,116.6c0-.3,.3-.6,.6-.6s.6,.3,.6,.6-.3,.6-.6,.6-.6-.3-.6-.6Z"/>
        <path class="uuid-2e7b0846-dd38-453d-a6ea-fcb4693a9dad" d="M78.3,117.2h-1v-6h1l2.8,4.2v-4.2h1v6h-1l-2.8-4.2v4.2Z"/>
        <path class="uuid-2e7b0846-dd38-453d-a6ea-fcb4693a9dad" d="M83,112.5c0-.8,.7-1.5,1.5-1.5s1.5,.7,1.5,1.5-.7,1.5-1.5,1.5-1.5-.7-1.5-1.5Zm2.1,0c0-.3-.3-.6-.6-.6s-.6,.3-.6,.6,.3,.6,.6,.6,.6-.3,.6-.6Z"/>
        <path class="uuid-2e7b0846-dd38-453d-a6ea-fcb4693a9dad" d="M91,113.4c.9,.2,1.5,1,1.5,1.9s-.9,2-2,2-1.7-.6-2-1.4l1-.3c.1,.5,.5,.7,1,.7,.6,0,1-.4,1-1s-.4-1-1-1-.4,0-.5,.1l-.5-.8,1.7-1.5h-2.5v-.9h3.7v.9l-1.4,1.3Z"/>
        <path class="uuid-2e7b0846-dd38-453d-a6ea-fcb4693a9dad" d="M97.7,115.3c0,1.1-.9,2-2.1,2s-2.1-.9-2.1-2.2v-1.8c0-1.4,.9-2.2,2.2-2.2s1.2,.2,1.6,.6l-.7,.7c-.2-.2-.5-.4-.9-.4-.7,0-1.2,.6-1.2,1.2v.6c.3-.3,.8-.4,1.2-.4,1.1,0,1.9,.8,1.9,2Zm-1,0c0-.6-.5-1.1-1.1-1.1s-1.1,.5-1.1,1.1,.5,1,1,1,1.1-.5,1.1-1Z"/>
        <path class="uuid-2e7b0846-dd38-453d-a6ea-fcb4693a9dad" d="M102.5,113.2v1.8c0,1.4-.9,2.2-2.2,2.2s-1.2-.2-1.6-.6l.7-.7c.2,.2,.5,.4,.9,.4,.7,0,1.2-.6,1.2-1.2v-.6c-.3,.3-.8,.4-1.2,.4-1.1,0-1.9-.8-1.9-2s.9-2,2.1-2,2.1,.9,2.1,2.2Zm-1-.2c0-.6-.5-1-1-1s-1.1,.5-1.1,1,.5,1.1,1.1,1.1,1.1-.5,1.1-1.1Z"/>
      </g>
      <g>
        <g>
          <path class="uuid-e3428f52-c19a-4367-8ff2-4044d6fa0d29" d="M0,66.2H9.4v3.8H4v6.3h4.7v3.8H4v10.1H0v-24.1Z"/>
          <path class="uuid-e3428f52-c19a-4367-8ff2-4044d6fa0d29" d="M11.7,69.1h5.3c3.2,0,4.8,1.5,4.8,4.6v3.1c0,1.9-.9,3.2-2.6,3.7l3.9,9.7h-4.4l-2.7-9.1h-.2v9.1h-4v-21.2Zm4,3.4v5.5h.5c.4,0,.7,0,.8,0,.5-.2,.8-.6,.8-1.1v-3.1c0-.8-.4-1.2-1.2-1.2h-.9Z"/>
          <path class="uuid-e3428f52-c19a-4367-8ff2-4044d6fa0d29" d="M35.1,82.7l1.1,7.6h-4l-.7-4.4h-2.9l-.7,4.4h-4l1.1-7.6,2.4-13.6h5.2l2.4,13.6Zm-4.1-.2l-1-6.4-1,6.4h1.9Z"/>
          <path class="uuid-e3428f52-c19a-4367-8ff2-4044d6fa0d29" d="M47.1,69.1v3.4h-3.2v17.8h-4v-17.8h-3.2v-3.4h10.4Z"/>
          <path class="uuid-e3428f52-c19a-4367-8ff2-4044d6fa0d29" d="M49.3,69.1h9.4v3.4h-5.4v5.5h4.7v3.4h-4.7v5.5h5.4v3.4h-9.4v-21.2Z"/>
          <path class="uuid-e3428f52-c19a-4367-8ff2-4044d6fa0d29" d="M61.2,69.1h5.3c3.2,0,4.8,1.5,4.8,4.6v3.1c0,1.9-.9,3.2-2.6,3.7l3.9,9.7h-4.4l-2.7-9.1h-.2v9.1h-4v-21.2Zm4,3.4v5.5h.5c.4,0,.7,0,.8,0,.5-.2,.8-.6,.8-1.1v-3.1c0-.8-.4-1.2-1.2-1.2h-.9Z"/>
          <path class="uuid-e3428f52-c19a-4367-8ff2-4044d6fa0d29" d="M74.5,69.1h4l2.7,10.4v-10.4h3.8v21.2h-4l-2.5-10.1v10.1h-3.9v-21.2Z"/>
          <path class="uuid-e3428f52-c19a-4367-8ff2-4044d6fa0d29" d="M88,69.1h4v21.2h-4v-21.2Z"/>
          <path class="uuid-e3428f52-c19a-4367-8ff2-4044d6fa0d29" d="M104.6,69.1v3.4h-3.2v17.8h-4v-17.8h-3.2v-3.4h10.4Z"/>
          <path class="uuid-e3428f52-c19a-4367-8ff2-4044d6fa0d29" d="M106.8,69.1h9.4v3.4h-5.4v5.5h4.7v3.4h-4.7v5.5h5.4v3.4h-9.4v-21.2Zm9-2.8l-3.5,2.3h-3.4l3.8-3.5h3.1v1.3Z"/>
        </g>
        <g>
          <path class="uuid-2e7b0846-dd38-453d-a6ea-fcb4693a9dad" d="M3.6,101.4c0,1.1-.6,1.7-1.7,1.7-1.1,0-1.6-.6-1.6-1.7v-4.9c0-1.1,.5-1.7,1.6-1.7s1.7,.6,1.7,1.7v1.1h-1.1v-1.1c0-.4-.2-.5-.5-.5h0c-.3,0-.5,.2-.5,.5v4.9c0,.4,.2,.5,.5,.5s.5-.2,.5-.5v-1.1h1.1v1.1Z"/>
          <path class="uuid-2e7b0846-dd38-453d-a6ea-fcb4693a9dad" d="M5.1,94.9h3v1.1h-1.8v2.3h1.6v1.1h-1.6v2.3h1.8v1.1h-3v-8Z"/>
          <path class="uuid-2e7b0846-dd38-453d-a6ea-fcb4693a9dad" d="M9.5,94.9h1.1l1.1,4.6v-4.6h1.1v8h-1.1l-1-4.5v4.5h-1.1v-8Z"/>
          <path class="uuid-2e7b0846-dd38-453d-a6ea-fcb4693a9dad" d="M17.4,94.9v1.1h-1.1v6.8h-1.1v-6.8h-1.1v-1.1h3.3Z"/>
          <path class="uuid-2e7b0846-dd38-453d-a6ea-fcb4693a9dad" d="M18.7,94.9h1.7c1,0,1.5,.6,1.5,1.7v1.2c0,.7-.3,1.2-.9,1.4l1.3,3.7h-1.3l-1-3.5h-.1v3.5h-1.1v-8Zm1.1,1.1v2.3h.3c.2,0,.3,0,.3,0,.2,0,.3-.3,.3-.5v-1.2c0-.4-.2-.5-.5-.5h-.4Z"/>
          <path class="uuid-2e7b0846-dd38-453d-a6ea-fcb4693a9dad" d="M26.8,101.4c0,1.1-.6,1.7-1.7,1.7-1.1,0-1.6-.6-1.6-1.7v-4.9c0-1.1,.5-1.7,1.6-1.7s1.7,.6,1.7,1.7v4.9Zm-1.1-4.9c0-.4-.2-.5-.5-.5h0c-.3,0-.5,.2-.5,.5v4.9c0,.4,.2,.5,.5,.5s.5-.2,.5-.5v-4.9Z"/>
          <path class="uuid-2e7b0846-dd38-453d-a6ea-fcb4693a9dad" d="M31,94.9h1.7c1,0,1.5,.6,1.5,1.7v1.2c0,.8-.4,1.4-1.1,1.6-.2,0-.4,0-.8,0h-.2v3.4h-1.1v-8Zm1.1,1.1v2.3h.3c.2,0,.3,0,.3,0,.2,0,.3-.3,.3-.5v-1.2c0-.4-.2-.5-.5-.5h-.4Z"/>
          <path class="uuid-2e7b0846-dd38-453d-a6ea-fcb4693a9dad" d="M35.6,94.9h1.7c1,0,1.5,.6,1.5,1.7v1.2c0,.7-.3,1.2-.9,1.4l1.3,3.7h-1.3l-1-3.5h-.1v3.5h-1.1v-8Zm1.1,1.1v2.3h.3c.2,0,.3,0,.3,0,.2,0,.3-.3,.3-.5v-1.2c0-.4-.2-.5-.5-.5h-.4Z"/>
          <path class="uuid-2e7b0846-dd38-453d-a6ea-fcb4693a9dad" d="M40.4,94.9h1.1v8h-1.1v-8Z"/>
          <path class="uuid-2e7b0846-dd38-453d-a6ea-fcb4693a9dad" d="M45.6,102.9h-1.6l-.8-5.1-.4-2.8h1.2l.8,6.1,.8-6.1h1.2l-.4,2.8-.8,5.1Z"/>
          <path class="uuid-2e7b0846-dd38-453d-a6ea-fcb4693a9dad" d="M51.1,100.1l.4,2.8h-1.2l-.2-1.7h-1.2l-.2,1.7h-1.2l.4-2.8,.8-5.1h1.6l.8,5.1Zm-1.2,0l-.4-3.3-.4,3.3h.9Z"/>
          <path class="uuid-2e7b0846-dd38-453d-a6ea-fcb4693a9dad" d="M52.8,94.9h1.8c1,0,1.5,.6,1.5,1.7v4.6c0,1.1-.5,1.7-1.6,1.7h-1.7v-8Zm1.1,1.1v5.7h.5c.3,0,.5-.2,.5-.5v-4.6c0-.4-.2-.5-.5-.5h-.5Z"/>
          <path class="uuid-2e7b0846-dd38-453d-a6ea-fcb4693a9dad" d="M60.9,101.4c0,1.1-.6,1.7-1.7,1.7-1.1,0-1.6-.6-1.6-1.7v-4.9c0-1.1,.5-1.7,1.6-1.7s1.7,.6,1.7,1.7v4.9Zm-1.1-4.9c0-.4-.2-.5-.5-.5h0c-.3,0-.5,.2-.5,.5v4.9c0,.4,.2,.5,.5,.5s.5-.2,.5-.5v-4.9Z"/>
          <path class="uuid-2e7b0846-dd38-453d-a6ea-fcb4693a9dad" d="M65.1,94.9h1.8c1,0,1.5,.6,1.5,1.7v4.6c0,1.1-.5,1.7-1.6,1.7h-1.7v-8Zm1.1,1.1v5.7h.5c.3,0,.5-.2,.5-.5v-4.6c0-.4-.2-.5-.5-.5h-.5Z"/>
          <path class="uuid-2e7b0846-dd38-453d-a6ea-fcb4693a9dad" d="M69.9,94.9h3v1.1h-1.8v2.3h1.6v1.1h-1.6v2.3h1.8v1.1h-3v-8Z"/>
          <path class="uuid-2e7b0846-dd38-453d-a6ea-fcb4693a9dad" d="M79.5,100.4l1.3-5.5h1.1v8h-1.1v-4.5l-1,4.5h-.8l-1-4.5v4.5h-1.1v-8h1.1l1.4,5.5Z"/>
          <path class="uuid-2e7b0846-dd38-453d-a6ea-fcb4693a9dad" d="M83.6,94.9h3v1.1h-1.8v2.3h1.6v1.1h-1.6v2.3h1.8v1.1h-3v-8Z"/>
          <path class="uuid-2e7b0846-dd38-453d-a6ea-fcb4693a9dad" d="M88,94.9h1.8c1,0,1.5,.6,1.5,1.7v4.6c0,1.1-.5,1.7-1.6,1.7h-1.7v-8Zm1.1,1.1v5.7h.5c.3,0,.5-.2,.5-.5v-4.6c0-.4-.2-.5-.5-.5h-.5Z"/>
          <path class="uuid-2e7b0846-dd38-453d-a6ea-fcb4693a9dad" d="M92.9,94.9h1.1v8h-1.1v-8Z"/>
          <path class="uuid-2e7b0846-dd38-453d-a6ea-fcb4693a9dad" d="M98.9,100.1l.4,2.8h-1.2l-.2-1.7h-1.2l-.2,1.7h-1.2l.4-2.8,.8-5.1h1.6l.8,5.1Zm-1.2,0l-.4-3.3-.4,3.3h.9Z"/>
          <path class="uuid-2e7b0846-dd38-453d-a6ea-fcb4693a9dad" d="M103.7,101.4c0,1.1-.6,1.7-1.7,1.7-1.1,0-1.6-.6-1.6-1.7v-4.9c0-1.1,.5-1.7,1.6-1.7s1.7,.6,1.7,1.7v1.1h-1.1v-1.1c0-.4-.2-.5-.5-.5h0c-.3,0-.5,.2-.5,.5v4.9c0,.4,.2,.5,.5,.5s.5-.2,.5-.5v-1.1h1.1v1.1Z"/>
          <path class="uuid-2e7b0846-dd38-453d-a6ea-fcb4693a9dad" d="M105.3,94.9h1.1v8h-1.1v-8Z"/>
          <path class="uuid-2e7b0846-dd38-453d-a6ea-fcb4693a9dad" d="M111.3,101.4c0,1.1-.6,1.7-1.7,1.7-1.1,0-1.6-.6-1.6-1.7v-4.9c0-1.1,.5-1.7,1.6-1.7s1.7,.6,1.7,1.7v4.9Zm-1.7-6.7h-.6l.6-1h.9l-.8,1Zm.5,1.9c0-.4-.2-.5-.5-.5h0c-.3,0-.5,.2-.5,.5v4.9c0,.4,.2,.5,.5,.5s.5-.2,.5-.5v-4.9Z"/>
          <path class="uuid-2e7b0846-dd38-453d-a6ea-fcb4693a9dad" d="M112.9,94.9h1.1l1.1,4.6v-4.6h1.1v8h-1.1l-1-4.5v4.5h-1.1v-8Z"/>
        </g>
        <g>
          <path class="uuid-e3428f52-c19a-4367-8ff2-4044d6fa0d29" d="M103.7,0l6.5,4.6c-.9,.7-2.1,1.4-3.4,2.1-7.4,4.1-20,8.7-28.1,11.5-2.2,.8-4.1,1.4-5.5,1.8-1.6,.5-2.5,.8-2.5,.8-8.3,2.4-17.2,4.6-25.7,6.6-2,.5-3.9,.9-5.8,1.3-12.5,2.8-23.2,4.9-28.1,5.9-1.9,.4-2.9,.6-2.9,.6,.9,0,1.8,0,2.9,0,6.7-.1,17.5-1.5,28.1-3,1.9-.3,3.9-.6,5.8-.9,14.4-2.3,27.2-4.7,27.2-4.7,.3,0,.7-.1,1-.2,1.9-.3,3.7-.7,5.5-1.1,11.6-2.4,21.1-5.2,28.1-7.7,8.9-3.1,13.8-5.6,13.8-5.6l6.2,3.5V0h-23.1Z"/>
          <path class="uuid-2e7b0846-dd38-453d-a6ea-fcb4693a9dad" d="M39.2,23.8H11v9.3c2.4-.4,13.4-2.5,28.1-6.1v-3.2Z"/>
          <path class="uuid-2e7b0846-dd38-453d-a6ea-fcb4693a9dad" d="M73.1,13.5h-28.1v12c8.7-2.2,18.4-4.9,28.1-8.1v-4Z"/>
          <path class="uuid-2e7b0846-dd38-453d-a6ea-fcb4693a9dad" d="M78.6,4.1V15.7c2.2-.8,4.5-1.6,6.7-2.4l21.4-9.1h-28.1Z"/>
          <path class="uuid-2e7b0846-dd38-453d-a6ea-fcb4693a9dad" d="M39.2,61.8v-28c-12.4,1.6-22.3,2.6-28.1,3.1v24.9h28.1Z"/>
          <path class="uuid-2e7b0846-dd38-453d-a6ea-fcb4693a9dad" d="M45,33.1v28.8h28.1V28.3c-5,1-8.3,1.6-8.3,1.6-7,1.2-13.7,2.3-19.8,3.1Z"/>
          <path class="uuid-2e7b0846-dd38-453d-a6ea-fcb4693a9dad" d="M78.6,61.8h28.1V21c-8.9,2.2-19.7,4.5-28.1,6.2V61.8Z"/>
        </g>
      </g>
    </g>
  </g>
</svg>