<?xml version="1.0" encoding="UTF-8"?>
<svg id="uuid-5536dc72-2cb2-4e41-afdc-1745a5a74672" data-name="Layer 2" xmlns="http://www.w3.org/2000/svg" width="75.8" height="78.9" viewBox="0 0 75.8 78.9">
  <defs>
    <style>
      .uuid-3fbfe685-277d-4342-9208-98c64e559b7e {
        fill: #fff;
      }

      .uuid-f3301f7b-ea9e-485c-98d8-647bbd1b04de {
        fill: #1c396a;
      }
    </style>
  </defs>
  <g id="uuid-8d7f7aa1-48bc-49de-9881-4e5a6328dc8c" data-name="home">
    <g>
      <circle class="uuid-f3301f7b-ea9e-485c-98d8-647bbd1b04de" cx="37.9" cy="37.9" r="37.9" transform="translate(-8 65.6) rotate(-76)"/>
      <path class="uuid-3fbfe685-277d-4342-9208-98c64e559b7e" d="M24.2,75.6c.5-1,.8-1.9,1-2.8,.2-.5,.4-1.1,.6-1.7,.4-1.1,.7-2.2,1-3.4h0c0-.1,0-.2,0-.3,0-.1,.1-.3,0-.6v-.6c.3-.8,.3-1.6,.4-2.4,0-.2,0-.4,0-.6v-.6c0-.6,0-1.2,0-1.7,0-.6-.3-1.2-.5-1.6-.2-.4-.3-.8-.5-1.1,0-.2-.2-.5-.5-.8-.4-.6-.8-1.2-1.2-1.7l-1.1-1.8-.4-.7-.4-.8h.2c.9-.5,1.8-.9,2.7-.9s0,0,.1,0h0c0,.2,0,.3,0,.6,0,.2-.1,.4-.1,.6-.2,.8,.1,1.5,.9,2,.2,.2,.4,.4,.8,.4,0,0,.2,.1,.4,.1s0,0,0,0h1.4c.5,0,1.1,0,1.7-.5,.2,0,.4-.2,.5-.4,.8-1,.2-2.1,0-2.4,0,0-.1-.2-.1-.3,0,0,0,0,.1,0s.1,0,.2,0c.6,.2,1.2,.5,1.8,.7l.7,.3,.5,.2c.9,.4,1.8,.7,2.8,.9,.6,.2,1.1,.3,1.7,.4h.3c.2,0,.3,0,.5,0,.9,0,1.3-.4,1.5-1.1,.2-.3,.2-.5,.2-.7,0,0,0,0,0,0,0-.3-.1-.6-.2-.9,0-.2-.1-.3-.1-.4,0-.2,0-.5,0-.7,.2-.2,.4-.4,.6-.5h.3c.2,0,.4,0,.5,0s0,0,0,0c.4,.2,.6,.5,.5,.9v.2c-.2,.2-.3,.4-.4,.6-.2,.4-.4,1.1,0,1.7,.3,.5,.7,.7,1.2,.7h0c.2,0,.3,0,.5,0,.4,0,.9,0,1.3-.2,.6-.1,1.2-.3,1.8-.7,.7-.3,1.3-.8,1.5-1.4,.4-.9-.1-1.5-.3-1.8-.6-.8-.9-1.4-1-2.1h0c0,0,.1,0,.2,0,0,0,0,0,.1,0,.2,0,.4,.2,.7,.2s0,0,0,0c0,0,.1,0,.2,0,1,0,1.4-.8,1.6-1.3,.5-.8,.6-1.7,.3-2.7-.2-.5-.4-1.1-1-1.4,0,0,0,0-.1,0-.2,0-.4-.1-.6-.1-.4,0-.7,.1-1,.3,0,0-.2,0-.2,.1,0,0-.2,0-.2,0h0v-.5l.3-1,.7-1.7h.1v-.2h0c0,0,0-.1,0-.2,0-.1,.1-.2,.2-.3,.2-.2,.2-.5,.2-.7h0c.5-.4,.6-.9,.7-1.4,0-.2,0-.3,.1-.5,.3-.8,.4-1.5,.4-2.3,0-.9-.4-1.5-1.3-1.7-.1,0-.3,0-.5,0s-.4,0-.6,0c0,0-.1,0-.2,0-.1,0-.3,0-.4,.1-.2,0-.4,.1-.5,.1s0,0,0,0h-.2c-.2-.5-.1-.8,0-1.3,.2-.3,.3-.4,.4-.4,0,0,.1,0,.2,0,.3,0,.6,.2,.9,.4h.1c.2,.3,.5,.5,.8,.5,.4,0,.9-.3,1.1-.7,.2-.5,.5-.9,.4-1.5,0-.5,0-1.1,0-1.7,0-.3,0-.6-.1-.9,.4,.3,.8,.6,1.1,.9l.3,.4,1.3,1.7,1.1,1.8,.4,.8c0,.3,.2,.5,.3,.7l.5,1.3,.7,2.5,.2,.7c0,.2,0,.4,.1,.6,0,.3,.1,.6,.1,.8,0,.6-.1,1.1-.4,1.8-.2,.4-.4,1-.4,1.7,0,1.2,.5,2.3,1.4,3.5,.2,.3,.4,.7,.7,1,.1,.2,.2,.4,.4,.5,0,0,0,0,.1,.1,0,0,.5,.7,.6,.9,.5,.7,.9,1.3,1,2.1,0,.2-.1,.4-.3,.6-.4,.3-.8,.4-1.3,.6h-.2c-1.2,.5-1.5,1.1-1.1,2.3,0,.4,.2,.7,.4,1.1,0,.2,.2,.4,.2,.5,0,.4-.1,.7-.6,1-.5,.2-.4,.6-.4,.7,0,.2,.2,.3,.3,.3,.3,.2,.4,.5,.4,.7h0c-.1,.3-.2,.4-.3,.6-.3,.4-.8,1.1-.5,2v.8l.2,.2v1.6c0,0,0,.2,0,.3,0,.2-.1,.4-.2,.5-.3,.3-.6,.4-1,.4-.6,0-1.3,.1-2,.1s-.6,0-1,0h-1.2c-.2-.1-.4-.1-.5-.1-.4,0-.8,0-1.2,0h0c-1.8,0-3,.9-3.4,2.7,0,.3-.1,.7-.2,1,0,.1,0,.5,0,.5v1.5c-.2,.6-.2,1.2-.1,1.7v.5c0,.2,0,.4,.1,.5,0,.3,0,.5,.1,.7,0,.4-.4,4.1-.1,4.5l-21.7-3.3Z"/>
      <path class="uuid-3fbfe685-277d-4342-9208-98c64e559b7e" d="M23.3,20.1h.1l2.4,.9c.5,.3,1.1,.5,1.5,.9,.5,.5,.6,.8,.3,1.4l-.4,.3c-.3,0-.6,.4-1,.2-.3-.1-.4,0-.6,.1-.2,.2-.2,.4-.2,.6,.3,1,.9,1.6,1.9,2,.3,0,.5,.1,.8,0,0,0,.2,0,.2,0h.1c.3-.2,.3-.5,.4-.8,.2-.9,.6-1.1,1.5-.9l.3,.2c.5,.4,.8,1,1.1,1.5l.3,.5c0,.1,0,.2,.1,.3,0,0,0,.1,0,.2-.5,.5-1.2,.8-1.7,1.2-.5,.3-1.1,.6-1.6,1,0,0-.2,0-.2,.1-.3,.2-.6,.4-.8,.7-.3,.4-.5,.7-.1,1.2,.2,.3,.5,.4,.9,.4,.5,.2,1,.3,1.3,.8,0,.5-.1,1-.3,1.4-.3,.4-.6,.7-1,1-.4,.2-.8,.3-1.3,.2-.3-.3-.4-.6-.6-1,0-.4,0-.8-.4-1.1-.4-.3-.7-.2-1.1,.1-.3,.3-.5,.6-.7,1-.1,.2-.2,.3-.2,.5l-.2,.5c0,.2-.2,.3-.1,.5l-.5,1.4c0,.1-.1,.2-.3,.1-.9-.2-1.7-.6-2.5-1.1l-.5-.4c-.1-.1-.2-.3-.3-.4-.3-.4-.4-.8,0-1.2h.4c.2-.2,.3-.2,.5-.2,.9-.2,1.1-.7,.6-1.5-.2-.4-.4-.7-.8-1-.2-.3-.4-.4-.7-.5-.4-.2-.8-.4-1.2,.1-.3,.5-.3,1-.3,1.5-.3,.9-.3,.9-1.2,.7l-.9-.7-.8-1c0-.2-.2-.4-.3-.6,0-.2-.2-.3-.2-.5,0-.3-.4-.6-.2-1,.3,0,.5-.2,.8-.4,.7-.3,1.4-.7,1.9-1.2,.7-.5,.9-1,.7-1.5-.2-.6-.8-.8-1.4-.8,0,0-.2,0-.3,0-.4,0-.6-.3-.7-.7,0-.2,0-.4,0-.5v-.2c0,0,.1-.1,.1-.2l.6-1.1,.9-.8c.4-.2,.9-.3,1.4,0,.2,.2,.4,.4,.6,.7,0,.4,.1,.9,.4,1.3,.2,.3,.3,.5,.7,.3,.6-.3,.9-1,1.2-1.5,.6-1,.9-2.2,1.2-3.3Z"/>
      <path class="uuid-3fbfe685-277d-4342-9208-98c64e559b7e" d="M28.5,53.9c-.3,0-.6,0-.9-.1-.4-.3-.5-.5-.5-.7v-.3c.2-.2,.3-.5,.4-.7,.3-.7,0-1.1-.2-1.3-.5-.6-1.1-.6-1.5-.7h0c-1.3,0-2.5,.5-3.5,1h-.1s0,0,0,0h0c-.4-1.1-.7-2-.7-3v-.3c.2,0,.2,0,.2,0,0,0,0,0,.2,0,.1,0,.3,0,.4,.1,0,0,0,0,.1,0,.4,.2,.7,.2,1,.2s.7-.1,.9-.4c.3-.3,.4-.8,.4-1.4h0c0-.3,0-.4,0-.6,0-1.1-.6-1.5-1.1-1.7-.2,0-.4,0-.6,0-.3,0-.6,0-.8,.2,0,0-.1,0-.2,0s-.1,0-.2,0c0-.1-.1-.3-.2-.5,0,0,0,0,0-.1v-1.3c0,0,0-.2,.1-.3,0-.2,.1-.4,.2-.6,0-.2,.1-.4,.2-.5,0,0,.2,0,.4,0,.6,.3,1.1,.4,1.6,.5h0c.5,.1,1,.3,1.5,.3s.5,0,.7,0h.1s0,0,0,0c.1,0,.3,0,.4-.2,.4-.2,.7-.4,.8-.7,.1-.4,0-.8-.2-1.3-.3-.4-.3-.8-.2-1.1,.1-.2,.3-.3,.5-.5h.2c.3-.1,.6-.2,.9-.2s.2,0,.3,0c.4,0,.6,.2,.8,.6,.1,.2,0,.4-.1,.8,0,.2-.2,.4-.2,.6h0v.4c0,.2,0,.3,.1,.4,0,.2,.2,.3,.4,.4h.7c1.4,.1,2.5-.5,3.7-1.1,0,0,0,0,.2,0,0,0,0,0,0,0,0,.2,0,.3,.2,.4,0,.2,.2,.5,.4,.7,0,.2,.2,.3,.3,.4h0v.2h.1v.2h.2c.1,.5,.3,.8,.2,1.1-.1,.2-.2,.2-.3,.2,0,0,0,0-.1,0-.1,0-.2,0-.3-.1-.3-.2-.6-.2-.9-.2s-.4,0-.7,.1c-.9,.4-1.2,1.1-1.4,1.8-.2,.6-.3,1.2-.2,1.8,0,.8,.3,1.5,.9,1.9,.4,.4,.8,.5,1.2,.5,0,0,.2,0,.2,0,.4,0,.7-.1,.9-.3h0c.1,0,.2,0,.2,0,0,0,0,0,0,.3,0,.2,0,.3-.1,.5v.2l-.3,.5-.3,.9c0,0-.1,.2-.1,.3,0,.2,0,.2,0,.2,0,0,0,0-.2,0h-.2c-1-.5-2-1-3.1-1.1,0,0-.2,0-.3,0h0c-.2,0-.3,0-.5,0-.4,0-.6,.3-.7,.5-.3,.4-.3,.9,0,1.4,.1,.2,.2,.5,.3,.7h0v.4c-.2,.1-.3,.3-.5,.4h-.2c-.3,.1-.6,.2-.8,.2Z"/>
      <path class="uuid-3fbfe685-277d-4342-9208-98c64e559b7e" d="M44.6,52.8c-.2,0-.3,0-.5,0h-.2c0-.3,0-.3,0-.5,.1-.2,.2-.4,.3-.6,0,0,0-.1,0-.2h0v-.4c0-.2,0-.4,0-.5h0v-.2h0c0-.1,0-.2,0-.2-.1-.3-.3-.7-.6-.9-.5-.4-1.1-.7-1.8-.7s-.4,0-.6,0h-.1s0,0,0,0c-.2,0-.3,0-.4,.2-1,.4-1.5,1.2-1.4,2.4,0,.3,.1,.5,.2,.8,.1,.3,.2,.5,.1,.7,0,0-.1,0-.3,0,0,0-.3,0-.3,0s-.1,0-.2,0l-1.5-.3c-.2,0-.3-.2-.5-.2l-.8-.4c0-.3,.2-.6,.4-.9,.1-.3,.3-.6,.4-1,0,0,0,0,0,0,0,0,0-.2,0-.3,.2-.5,.3-1.2,0-1.8-.2-.6-.6-1-1.2-1s-.2,0-.2,0c-.2,0-.4,.1-.6,.2-.3,0-.5,.2-.8,.2s0,0,0,0c-.3-.1-.4-.4-.5-.9,0-.4,0-.9,.1-1.4,.1-.2,.3-.5,.5-.6,0,0,.2,0,.2,0,.2,0,.4,.1,.7,.2,0,0,.2,0,.3,.1,.3,.1,.6,.2,.9,.2s.7-.1,.9-.4c.3-.3,.4-.8,.4-1.3,0-.8-.3-1.4-.6-2h0v-.2h-.1v-.2h-.1c0-.3-.2-.5-.3-.7s-.2-.5-.3-.7c0,0,.2,0,.2,0h.3c.8-.3,1.5-.6,2.3-.6,.2,0,.3,0,.6,.1,.2,.2,.2,.2,.3,.3h0s0,0-.2,.3c-.1,.1-.2,.3-.3,.5-.2,.5-.1,1.1,.1,1.6,.3,.6,.8,1,1.5,1.2,.1,0,.2,.1,.4,.1h.2c0,0,.2,0,.3,0s.2,0,.3,0h.2c.5-.1,.9-.4,1.3-.8,.8-.8,.9-1.5,.2-2.3-.3-.4-.2-.5-.2-.5,0,0,0-.1,.5-.3,.1,0,.3,0,.5,0,0,0,0,0,.1,0,.5,0,1,.2,1.5,.3,.2,0,.5,.2,.8,.2,0,0,.1,0,.2,0,.1,0,.3,.1,.4,.2,0,.1-.1,.3-.2,.4-.2,.4-.4,.8-.6,1.3-.4,.7-.5,1.4-.4,2.2h0c0,.3,0,.7,.3,1,.3,.4,.7,.5,1,.5h0c.2,0,.5,0,.8-.2,.1,0,.3-.2,.5-.3h.2c0-.1,0-.1,0-.1,.2,0,.3,.1,.5,.6h0c0,.4,0,.7,0,1.2h0c-.3,.5-.4,.8-.8,.8-.2,0-.3-.1-.5-.2-.1,0-.2-.1-.4-.2-.2,0-.4-.2-.6-.2s-.5,0-.6,.3c-.3,.2-.4,.5-.4,.6-.3,.8-.2,1.6,.3,2.5,.2,.5,.5,.9,.7,1.4,0,.1,.1,.2,.2,.4,0,0-.1,.1-.2,.2-.1,0-.3,.2-.4,.3l-.8,.5-.6,.2c-.3,0-.5,0-.8,0Z"/>
      <path class="uuid-3fbfe685-277d-4342-9208-98c64e559b7e" d="M42,41.2c-.5,0-.8-.1-1-.3-.2-.2-.2-.5-.2-.9h0c0-.2,.1-.3,.2-.4,.5-.9,.4-1.4-.4-2-.5-.4-1.1-.5-1.7-.5h-.1c-1,0-2,.2-3.1,.5l-.5-1.2c0-.5-.1-1-.1-1.4,.1-.3,.3-.4,.6-.5,.2,0,.3,.1,.5,.3,.2,.1,.3,.2,.5,.3,.2,.1,.5,.2,.7,.2,.4,0,.8-.2,1-.6,.3-.5,.4-.9,.4-1.4,0-1.5-.8-2.4-1.9-2.4s-.6,0-1,.2c-.5,0-.7-.2-.8-.7,0-.1,0-.2,0-.3h0v-.7l.2-.8,.5-1.5c0,0,.1-.1,.2-.2,0,0,.1,0,.2,0,.3,.1,.5,.3,.8,.3,.5,.3,1,.4,1.5,.6h.6l.2,.2h0c0,0,.2,0,.3,0,.2,0,.3,0,.5,0s.3,0,.4,0c.4,0,1.3-.1,1.5-1.1,0-.2,0-.5-.2-.7h0c-.1-.3-.2-.4-.3-.5-.2-.2-.3-.3-.3-.5,0-.3,.3-.4,.8-.6,0,0,.1,0,.2,0,.1,0,.3,0,.4,0,.2,0,.5,0,.8,0,.3,.2,.5,.4,.6,.7,0,.2-.1,.4-.3,.6-.1,.2-.3,.4-.4,.6-.3,.6-.2,1,0,1.3,.1,.2,.4,.5,1.1,.6,0,0,.2,0,.2,0,.3,0,.6,0,.9-.1h.6c.1-.1,.2-.1,.3-.2,.3,0,.5-.1,.8-.2,.4,0,.7-.2,1.1-.4,.2,0,.4-.1,.6-.2h0l.3,1.4v1.5c0,.3,0,.4,0,.5,0,0,0,0,0,0-.1,0-.2-.1-.3-.2-.3-.2-.6-.4-1-.5h0c-.1,0-.3,0-.4,0s-.3,0-.4,.1c-.9,.2-1.2,1-1.4,1.5h0c-.2,.8-.2,1.5,0,2.1,.1,.5,.4,.8,.7,1,.2,.2,.5,.2,.8,.2h0c.4,0,.7-.1,1.1-.3,.3-.1,.5-.2,.7-.2,.1,0,.2,0,.3,.1v.5c0,.5,0,.9-.2,1.4h0l-.2,.5c-.2,.4-.4,.7-.5,1.1,0,.1-.1,.2-.1,.2,0,0,0,0-.1,0-.1,0-.3-.1-.5-.1h0c-.1,0-.3-.1-.5-.2-.2,0-.5-.1-.7-.2-.6-.1-1.2-.3-1.8-.3s-.5,0-.8,0c-.9,.2-1.4,.6-1.6,1.1-.2,.5,0,1.1,.6,1.8,.1,.2,.2,.4,0,.7-.1,.1-.3,.2-.5,.3h0Z"/>
    </g>
  </g>
</svg>