<?xml version="1.0" encoding="UTF-8"?>
<svg id="uuid-1540e522-61dd-49cd-8f85-8fe41bc84733" data-name="Layer 2" xmlns="http://www.w3.org/2000/svg" width="75.8" height="75.8" viewBox="0 0 75.8 75.8">
  <defs>
    <style>
      .uuid-1d9b1bed-014b-4783-a2a5-ed977087880a {
        fill: #fff;
      }

      .uuid-bc565edd-73c9-4f0b-8c4f-735bc9486cb0 {
        fill: #1c396a;
      }
    </style>
  </defs>
  <g id="uuid-97cf0bdd-42bc-4b9b-b79c-5a5e5076fb32" data-name="home">
    <g>
      <circle class="uuid-bc565edd-73c9-4f0b-8c4f-735bc9486cb0" cx="37.9" cy="37.9" r="37.9"/>
      <polygon class="uuid-1d9b1bed-014b-4783-a2a5-ed977087880a" points="35.1 26.9 45.9 16.2 57 27.4 46.2 38.1 35.1 26.9"/>
      <path class="uuid-1d9b1bed-014b-4783-a2a5-ed977087880a" d="M34.2,25.2c-.7,.6-1.7,.6-2.4,0h0c-.6-.7-.6-1.6-.1-2.3,2.6-4.2,7.1-8.5,10.4-10.4,.7-.4,1.6-.5,2.2,.1h.1c.6,.8,.6,1.8,0,2.4l-10.2,10.1Z"/>
      <path class="uuid-1d9b1bed-014b-4783-a2a5-ed977087880a" d="M48,39c-.7,.6-.7,1.7,0,2.4h0c.6,.7,1.5,.7,2.2,.2,4.2-2.6,8.6-7,10.4-10.4,.4-.7,.5-1.6-.1-2.2h-.1c-.6-.8-1.7-.8-2.3-.1l-10.2,10.1Z"/>
      <path class="uuid-1d9b1bed-014b-4783-a2a5-ed977087880a" d="M15.8,57.2c-.2-.1-.3-.3-.5-.5-.5-.7-.8-1.6-.8-2.5,0-1.1,.5-2.1,1.3-2.9l21.7-19.1,1.7,1.6,1.6,1.7-19.3,21.6c-.7,.8-1.8,1.3-2.9,1.3-.9,0-1.8-.3-2.5-.8-.1-.2-.4-.3-.5-.5Z"/>
      <polygon class="uuid-1d9b1bed-014b-4783-a2a5-ed977087880a" points="34.6 50.5 33.3 51.9 33.3 53.4 32.2 53.4 30.6 55 30.6 59.1 60.2 59.1 60.2 55 58.7 53.4 57.5 53.4 57.5 51.9 56.3 50.5 34.6 50.5"/>
    </g>
  </g>
</svg>