<?xml version="1.0" encoding="UTF-8"?>
<svg id="uuid-b97a32b7-9615-43a0-8751-018d71b388e2" data-name="Layer 2" xmlns="http://www.w3.org/2000/svg" width="208.4" height="50.6" viewBox="0 0 208.4 50.6">
  <defs>
    <style>
      .uuid-3bc71bc6-4eb5-45ae-9275-1c3b85de605e {
        fill: none;
        stroke: #1c396a;
        stroke-miterlimit: 10;
        stroke-width: .2px;
      }

      .uuid-7ee91ff0-7897-4b07-bbbe-39dd2be30ac8 {
        fill: #1c396a;
      }
    </style>
  </defs>
  <g id="uuid-34c4dae1-2c36-4cde-9d90-5a7092867caa" data-name="menu">
    <g>
      <path class="uuid-7ee91ff0-7897-4b07-bbbe-39dd2be30ac8" d="M102.7,45.9c-.6,0-1.1-.2-1.6-.4-1.4-.5-2.7-1.2-3.9-2-.2-.1-.4-.3-.7-.2-1,.1-1.8-.4-2.5-1-.2-.2-.4-.3-.6-.4-.2-.1-.2-.2,0-.3,.2,0,.1-.2,0-.2-.4-.2-.8-.5-1-1-.1-.3-.3-.5-.6-.7,0-.1,.2-.1,.3-.1,.1,0,.2,0,0-.2-.5-.3-.7-.8-1.1-1.2-.1-.1-.3-.3-.5-.4,.1,0,.3-.1,.4-.1,0,0,.1,0,.1,0,0,0,0-.1,0-.1-.6-.4-.8-1.1-1.3-1.6,.2,0,.3,0,.4-.1,.1,0,.1-.1,0-.2-.4-.2-.6-.6-.8-1-.1-.2-.3-.4-.5-.5-.2-.2-.2-.3,0-.4,.3-.1,.2-.2,0-.4-.4-.5-.5-1-.7-1.6,0-.2,.1-.2,.2-.2,.3,0,.2,0,0-.2-.4-.4-.7-.9-.9-1.5,0-.2-.2-.4-.3-.6,0-.1,0-.2,0-.2,.2,0,.3,0,.5,0,0-.3-.2-.5-.3-.8,0-.4-.1-.9-.4-1.3,0,0,0-.1,0-.1,.2,0,.3,0,.5,0,.1,0,.2,0,.1-.1-.3-.4-.5-.8-.7-1.3-.1-.5-.3-.9-.5-1.4,.3,0,.6,.1,1,.2,0-.1,0-.2,0-.3-.1-.3-.2-.6-.2-.9,0-.4,0-.8-.2-1.3,0-.2,0-.2,.2-.2,0,0,.1,0,.2,0-.2-.3-.2-.5-.3-.8,0-.2,0-.3,0-.4,0-.4,0-.8-.2-1.2,.3,0,.5,0,.7,0,0-.1,0-.2,0-.2-.2-.3-.2-.7-.1-1.1,0-.3,.1-.7,0-1,0-.2,0-.2,.1-.2,.2,0,.3,0,.4,.1,0-.2,0-.3,0-.5,0-.4,0-.9,.1-1.3,0-.3,0-.6,0-.8,0-.2,0-.2,.2-.1,.1,0,.2,.2,.4,.1,0,0,0-.3,0-.4,0-.2,0-.5,.1-.7,.2-.4,.3-.8,.4-1.3,.2,.2,.3,.3,.4,.4,0,0,0,0,.1,0,0,0,0,0,0,0-.2-.6,0-1.1,.2-1.7,0-.3,0-.6,0-.9,.2,0,.3,.2,.5,.4,0,.1,.1,0,.2,0,0-.2,0-.3,0-.5,.1-.5,.5-1,.6-1.5,0-.1,.1-.2,.2-.4,.2,.2,.3,.4,.4,.6,0,0,0,.1,.1,.1,0,0,0,0,0-.1,0-.2,0-.5,0-.7,0-.5,.3-.8,.5-1.1,.2-.3,.4-.6,.6-1,.1,0,.2,.2,.3,.4,0,0,0,0,0,0,0,0,0,0,0,0,0-.6,.4-1,.8-1.4,.2-.2,.4-.5,.6-.7,0,.2,0,.4,.1,.7,0,0,0,0,0,0,0,0,0,0,0,0,.4-.8,1.1-1.2,1.6-1.8,0,0,0,0,.1,0,0,0,0,0,0,.1,0,0,0,0,0,0,0,0,0,.2,0,.3,0,0,.2,0,.2-.2,.2-.3,.5-.5,.8-.7,.2-.1,.4-.2,.6-.4,.2-.1,.2,0,.3,.1,0,0,0,0,0,.1,0,0,0,0,.1,0,.3-.6,.9-.8,1.5-1.1,.2,0,.5-.2,.7-.3,.1,0,.2,0,.2,0,0,.4,0,.4,.4,.3,.7-.2,1.3-.4,2-.7,0,0,0,0,0,0,0,.1-.2,.3,0,.4,.1,0,.2,0,.3-.1,.5-.2,.9-.2,1.4,.1,0,0,0,0,.2,0,0,0,0,0,0,0,0-.2-.1-.3,0-.5,.7,.2,1.4,.4,2,.7,0,0,.1,0,.2,0,.2,0,.3,0,.2-.2,0,0,0-.1,0-.2,0,0,0-.1,.1,0,.5,.3,1,.4,1.5,.7,.3,.1,.5,.4,.7,.7,0,0,0,.2,.2,.2,0,0,0-.1,0-.2,0,0,0,0,0-.1,.5,.4,1.2,.6,1.6,1.1,0,0,.1,.3,.3,.3,.1,0,0-.2,0-.3,0,0,0-.2,.1,0,.5,.6,1.1,1,1.5,1.6,0,0,0,.3,.2,.3,.1,0,0-.2,0-.4,0-.1,0-.2,0-.3,.1,0,.2,.2,.2,.2,.2,.3,.4,.5,.7,.8,.3,.3,.4,.7,.4,1.1,0,0,0,0,0,.1,0,0,0,0,0,0,0-.2,.2-.3,.3-.4,.3,.5,.7,1.1,1,1.6,.2,.3,.1,.7,.1,1,0,.1,0,.3,0,.3,.1,0,.2-.2,.2-.3,.1-.2,.2-.3,.3-.4,.3,.6,.5,1.1,.7,1.6,0,.2,.1,.5,.1,.7,0,0,0,0,0,.1,0,0,0,0,.1,0,0,0,0,0,0,0,.1-.1,.2-.3,.4-.2,.1,0,0,.2,0,.4,0,.3,0,.6,.2,.8,.2,.4,.2,.8,.1,1.2,0,0,0,.1,0,.2,0,0,.1,0,.2,0,0-.1,.2-.2,.3-.3,0,.6,.4,1.2,.5,1.8,0,.1,0,.3,0,.4,0,.2,0,.2,.2,.1,.1,0,.2-.2,.4-.2,0,.1,0,.3,0,.4,0,.6,.1,1.1,.1,1.7,0,.2,0,.4,0,.6,.2,0,.4-.2,.5-.1,0,0,.1,0,.1,.1,0,.3,0,.7,0,1,.1,.4,0,.8-.1,1.2,0,0,0,.1,0,.2,.2,0,.5-.1,.7,0-.2,.4-.2,.9-.1,1.3,0,.3,0,.6-.1,.9,0,0,0,.1,0,.2,0,0,.1,0,.2,0,.1,0,.2,0,.2,.1-.1,.3-.1,.7-.2,1,0,.2,0,.3,0,.5,0,.3-.1,.6-.3,1,.4,0,.7-.2,1.1-.2-.5,1-.5,2.1-1.3,2.9,.4,0,.6-.1,.9,0-.3,.4-.4,.8-.4,1.3,0,.2-.1,.5-.2,.7,0,.1,0,.2,.1,.2,0,0,0,0,0,0,.4,0,.4,0,.2,.4-.3,.5-.4,1.1-.8,1.5-.1,.1-.2,.3-.4,.4,0,0-.1,.1,0,.2,.3,0,.3,0,.2,.3-.2,.6-.4,1.1-.8,1.5,0,0-.1,.2,0,.2,0,0,.1,0,.2,.1,0,0,.2,.1,0,.3-.3,.2-.5,.5-.6,.8-.2,.3-.4,.5-.7,.8,0,0,0,0,0,.1,0,0,0,0,.1,0,.4,.1,.4,.1,.1,.4-.3,.5-.6,1-1.1,1.3,0,0,0,0,0,0,0,0,0,0,0,0,.2,0,.3,0,.5,.1-.4,.4-.7,.8-1,1.2,0,.2-.3,.3-.4,.4,0,0-.1,0-.1,.2,0,.1,.1,0,.2,.1,0,0,.2,0,.2,.1-.3,.2-.4,.5-.6,.8-.1,.3-.3,.6-.5,.7,0,0-.1,.1,0,.2,.1,0,.1,.1,0,.2-.5,.3-.9,.7-1.2,1.1-.5,.5-1.1,.7-1.7,.8,0,0-.2,0-.3,0-.6-.1-1,.2-1.5,.5-1.4,.9-2.8,1.6-4.4,1.9,0,0,0,0,0,0,0-.2,.1-.4,.2-.7,.1,0,.2,0,.3,0,1.1-.3,2.1-.8,3.1-1.4,.5-.3,1-.6,1.3-1.2,.2-.3,.1-.6,0-.9,0,0,0,0-.1,0-1.4,1.1-2.9,2-4.7,2.5,0,0,0,0-.1,0-.2-.3-.5-.5-.9-.6,.8-.2,1.6-.5,2.4-.8,1.4-.7,2.6-1.6,3.8-2.6,.4-.4,.7-.8,1.1-1.2,.5-.6,.9-1.2,1.4-1.8,.7-1,1.2-2,1.7-3.1,.5-1.2,1-2.4,1.3-3.7,.3-1.1,.5-2.2,.6-3.2,.1-1.1,.2-2.2,.2-3.3,0-.8,0-1.5,0-2.3,0-.7-.1-1.5-.3-2.2-.2-1.3-.5-2.6-.9-3.8-.5-1.6-1.1-3.1-2-4.5-1-1.7-2.2-3.3-3.7-4.6-.8-.7-1.7-1.3-2.7-1.8-1.4-.7-2.8-1.1-4.4-1.2-.9,0-1.8,0-2.7,.2-1.3,.2-2.5,.7-3.6,1.3-1.4,.8-2.6,1.8-3.7,2.9-.8,.8-1.4,1.7-2,2.7-.8,1.3-1.5,2.6-2,4.1-.6,1.8-1.1,3.6-1.3,5.4-.1,1-.2,1.9-.2,2.9,0,1,0,2,0,3,0,.8,.1,1.5,.3,2.3,.2,1.3,.5,2.5,.9,3.7,.5,1.6,1.2,3.1,2.1,4.6,.8,1.3,1.7,2.4,2.7,3.5,.5,.5,1,.9,1.6,1.4,.9,.7,1.9,1.3,3,1.7,.6,.3,1.3,.4,1.9,.6-.3,.1-.6,.3-.7,.6,0,0,0,0-.2,0-1.1-.3-2.1-.8-3.1-1.3-.6-.3-1.1-.7-1.7-1.1,0,0-.1-.2-.2,0-.1,.5,0,1.1,.4,1.4,.3,.2,.6,.4,.9,.6,1.2,.7,2.4,1.2,3.7,1.5,0,.2,.2,.4,.2,.6ZM104.8,1.4h0c0,.2-.2,.2-.3,.3,1,.1,2.1-.3,2.1-.9-.2,0-.4,0-.6-.2-.2-.1-.5-.2-.7-.2-.5,.1-.9,.6-1.2,1,.3,0,.6,0,.8,0Zm1.5,.7h0c.3-.2,.6-.2,.9-.2,0-.1-.2-.2-.3-.2-.2-.1-.4-.2-.6,0-.5,.4-1,.4-1.5,.3-.3,0-.5,0-.8,0,0,.2,.1,.3,.2,.4,.7,.8,2,.7,2.8-.2-.2,0-.5,0-.7,0Zm8,3.1c.4,0,.4,0,.4-.4,0-.4,0-.7-.3-.9-.2-.1-.3-.3-.4-.4-.1-.1-.2-.3-.4-.4,0,.4,0,.7,.1,1,0,.3,.2,.6,.4,.9-.5-.1-1,.1-1.5,.2,1,.8,1.5,.8,2.2,.4-.1-.1-.3-.2-.3-.3h0Zm8.8,14.2c-.3,0-.5,.3-.7,.5-.2,.3-.4,.6-.6,.9-.2-.5-.7-.8-1.1-1.1,0,.8,.3,1.4,.9,1.9v-.4c0,.1,.1,.2,.2,.3,0,0,0,.1,.1,0,.4-.3,.8-.6,.9-1.1,0-.4,.1-.7,.2-1.1,0,0,0,0,0,0h0Zm-4.7,17.6h0c0,0,0,.1,0,.2,0,.2,0,.3,.2,.2,.2,0,.5-.1,.7-.2,.6-.2,.8-.8,1.2-1.3-.8,0-1.4,.4-1.9,.8,0-.6-.2-1.1-.5-1.6,0,.3-.1,.5-.2,.7-.2,.4-.2,.8,0,1.3q.2,.3,.4,0s0,0,.1,0Zm-25.1,1.3c0,0-.1,0-.2-.1-.5-.4-1.1-.5-1.9-.5,.3,.3,.6,.5,.8,.8,.3,.4,.7,.6,1.2,.6,.2,0,.4,0,.5,0,0-.1-.1-.3-.2-.5,.2,0,.3,.1,.5,.2,.3-.8,0-1.5-.5-2.1-.1,.2,0,.4,0,.6,0,.1,0,.2,0,.3-.2,.2-.1,.5-.1,.7h0Zm-1.8-3.4c.1,0,.2,.2,.3,.3,.2-.4,.5-.7,.4-1.1,0-.4-.3-.8-.4-1.2-.2,.6-.4,1.1-.4,1.6-.6-.4-1.1-.7-1.9-.6,.2,.1,.3,.3,.4,.4,.3,.5,.7,.8,1.3,1,.4,.1,.4,.1,.4-.3,0,0,0,0,0,0h0Zm27.9,0h0c0,.1,0,.2,0,.3,0,.1,0,.2,.2,.1,.5,0,1-.3,1.3-.7,.2-.2,.3-.6,.6-.7-.7-.1-1.3,.2-1.8,.6,0-.6-.2-1.1-.4-1.6-.1,.3-.2,.6-.3,.9-.2,.5-.1,1,.3,1.4,0-.1,.1-.2,.3-.3Zm-30.5-3.1s0,0,0,0h0c0,.2,.2,.4,.2,.6,.2,.6,.6,1,1.2,1.2,.1,0,.2,0,.2-.1,0-.1,0-.3,0-.4,.2,0,.3,.3,.4,.5,.4-.4,.8-1.4,.3-2.3-.3,.4-.5,.9-.7,1.5-.4-.6-1-.8-1.6-.9Zm31.6-13.9h0s0,0,0,0c0,.2,.1,.4,.1,.6,0,.7,.6,.9,1.1,1.2,0-.2,0-.3,0-.5,0,.2,.1,.4,.3,.5,.2-.2,.3-.4,.5-.6,.2-.2,.2-.4,.3-.6,0-.5-.2-.9,0-1.4-.3,.2-.5,.5-.6,.8-.1,.3-.2,.6-.3,1-.4-.4-.8-.7-1.3-.8Zm0,15.1h0c0,.1,0,.3,0,.4,0,.2,0,.2,.2,.1,.9-.3,1.2-1,1.5-1.8-.7,.1-1.3,.3-1.7,.9-.2-.5-.4-1-.7-1.5-.1,.4-.3,.8-.2,1.2,0,.4,.2,.8,.5,1.1,.1-.2,.2-.4,.4-.5Zm2.6-3.8c-.4,0-.7,.2-1,.4-.3,.2-.5,.4-.7,.6-.1-.6-.4-1.1-.7-1.7,0,.4-.1,.7-.2,1-.2,.7,0,1.2,.7,1.5,0-.1,0-.3,.2-.4,0,0,0,0,0,.1,0,.3,0,.3,.3,.2,.4-.2,.7-.5,.9-.9,.2-.3,.3-.6,.5-.9,0,0,0,0,0,0h0Zm-35.1,0s0,0,0,0h0c.2,.4,.4,.7,.6,1,.2,.3,.4,.6,.8,.7,.3,.2,.4,.1,.4-.2,0,0,0,0,0,0,0,0,.1,.1,.1,.2,0,0,0,.1,.2,0,.4-.3,.7-.7,.6-1.2,0-.4-.2-.8-.2-1.3-.3,.6-.6,1.1-.7,1.7-.5-.5-1-.9-1.7-1Zm5.5-20.7h0c0,.2-.1,.3-.1,.4,.8,0,1.8-.5,1.9-1-.2,0-.5,0-.7,0-.3,0-.5,0-.7,.1,.2-.9,0-1.7,0-2.1-.4,.7-.8,1.4-.8,2.2,0,.5,0,.5,.5,.3Zm30,15.8c-.6,.3-1.1,.7-1.5,1.3,0,0,0,0-.1-.1-.2-.3-.5-.6-.8-.8-.1-.1-.2-.1-.3,0,0,.3,0,.5,0,.8,0,.5,.4,.9,.9,1,0-.2,0-.3,.2-.5,0,.2,0,.4,0,.5,.8-.5,1.2-1.3,1.4-2.3,0,0,0,0,0,0h0Zm-.3-2.4c-.5,.4-1,.9-1.2,1.6-.2-.5-.5-.8-.9-1-.1,0-.2,0-.2,.1,0,.3,0,.6,0,.9,.1,.5,.5,.8,.9,1,0-.2,0-.3,.1-.5,0,.1,0,.3,.2,.4,.3-.3,.5-.5,.6-.8,.1-.2,.2-.4,.3-.7,0-.3,0-.7,.1-1,0,0,0,0,0,0h0Zm-28.3,18.7c.2,0,.3,0,.4,.1,.1,.1,.2,0,.2,0,.2-.6,0-1.6-.5-2,0,.6-.5,1-.4,1.6-.6-.6-1.3-.7-2.1-.8,.2,.3,.4,.6,.5,.9,.1,.2,.3,.4,.5,.4,.4,.2,.9,.2,1.4,.2,.1,0,.1,0,.1-.1,0-.1-.2-.2-.2-.4h0Zm21.3-2c-.6,.6-.8,1.6-.4,2.2,.1,0,.3-.2,.5-.2,0,.1-.1,.2-.2,.3,0,.1,0,.2,.1,.2,.2,0,.5,0,.7,0,.4,0,.8-.1,1.1-.5,.2-.3,.4-.7,.7-1.1-.8,0-1.5,.2-2.1,.8,0-.3,0-.6,0-.9-.1-.3-.3-.5-.2-.8Zm-1.1,3.4c.1-.5,0-1,0-1.5-.7,.5-1.1,1.2-.9,2.1,.2-.1,.3-.2,.5-.2,0,.1-.2,.2-.3,.4,0,0,0,.1,0,.2,0,0,.1,0,.2,0,.4,0,.8-.2,1.2-.3,.6-.2,1-.6,1.5-1-.8-.2-1.5,0-2.1,.4Zm-19,0c-.9-.4-1.2-.5-1.9-.4,0,0-.2,0-.2,0,0,0,0,.1,.1,.1,.6,.6,1.3,.9,2.1,1.1,.2,0,.4,.1,.6,0,0-.2-.2-.4-.3-.5,.2,0,.4,.2,.5,.2,.1-.9-.3-1.6-1-2.1,0,.5,0,1,0,1.5Zm-6.8-17.4c.5-.3,.9-.6,1-1.2,0-.2,0-.4,0-.7,0,0,0-.2,0-.2,0,0-.2,0-.3,0-.4,.2-.6,.5-.8,.9-.2-.6-.9-1.4-1.3-1.6,0,.3,.1,.5,.1,.8,0,.3,0,.5,.2,.7,.1,.3,.3,.5,.5,.7,0,0,.2,.3,.3,.3,.1,0,.1-.2,.2-.3,0,0,0,0,0,0,0,.1,0,.3,0,.5ZM111,2.8c.1,0,.3,0,.2-.2,0-.6-.4-1.1-1-1.3-.3-.1-.7-.2-1-.6,0,.5,0,.9,.3,1.2,.2,.4,.6,.5,1,.8-.3,0-.5,.2-.7,.3-.2,.1-.4,.2-.7,.3,.3,0,.5,.2,.7,.2,.4,.1,.8,0,1.1-.3,0,0,.2-.2,.2-.3,0,0-.2,0-.2-.1,0,0,0,0,0,0Zm-22,22.9c-.4-.6-1-1.2-1.5-1.3,.2,.9,.6,1.8,1.5,2.3,.1-.1,0-.3,0-.5,0,0,.1,.2,.1,.2,0,.3,.2,.2,.3,.1,.6-.3,.8-.9,.6-1.7,0-.3,0-.3-.3-.1-.3,.3-.6,.6-.8,.9ZM101.7,.8c-.2,.2-.5,.4-.7,.5-.6,.2-1.1,.5-1.2,1.2,0,.2,0,.3,.2,.3,0,.2-.3,0-.2,.3,0,.1,.1,.2,.2,.3,.1,0,.2,.1,.3,.2,.5,.2,.9,0,1.4-.2-.4-.2-.8-.5-1.3-.6,.8-.4,1.4-.9,1.3-1.9Zm-12.7,13.8c0,.5,0,.9,0,1.4,0,.5,.1,.9,.6,1.2,0-.2,0-.4,.2-.5,0,.1,0,.2,0,.3,0,.3,0,.3,.3,.2,1-.4,1.1-.8,1.2-2-.3,.6-1,.7-1.3,1.1,0-.3-.2-.7-.3-1-.1-.3-.3-.6-.6-.8Zm32.2,2.1c.2,.1,.2,.3,.2,.5,.4-.2,.6-.6,.6-1,0-.4,0-.7,0-1.1,0-.2,0-.3,0-.5-.5,.5-.7,1.1-.8,1.7-.4-.5-1-.5-1.3-1,0,.2,0,.4,0,.6,0,.5,.4,.9,.9,1.1,.6,.3,.6,.3,.6-.4ZM102.7,2.1c.7-.4,1.1-1,1.4-1.7-.6,.2-1.2,.4-1.7,.8-.2,.2-.4,.4-.5,.7,0,.1,0,.2,.1,.2,.1,0,.2,0,.4,0-.1,0-.2,.1-.3,.1-.2,0-.2,.2-.1,.3,.3,.6,1.3,.7,2,.3-.4-.2-.8-.6-1.3-.7Zm4.1,.7c.4,.1,.7,.2,1,.2,.4,0,.7-.1,.9-.5,.2-.3,.2-.3-.1-.4,0,0-.1,0-.2-.1,.1,0,.2,0,.3,0,.1,0,.2,0,.1-.1-.1-.4-.3-.7-.7-.9-.3-.2-.7-.3-1-.4-.1,0-.2-.1-.4-.1,.3,.7,.7,1.2,1.3,1.6-.5,.1-.8,.5-1.3,.7Zm10.3,5.3c-.5-.3-1,0-1.5-.2,.3,.7,1.4,1.2,1.9,1,0-.2-.2-.3-.1-.4,.5,.2,.5,.2,.5-.3,0,0,0-.2,0-.3,0-.8-.4-1.3-.8-2-.2,.7-.3,1.4,0,2.1Zm-.3,1.3c.1,.3,.4,.5,.5,.8,.1,.3,.3,.4,.6,.5,.2,0,.3,0,.5,.1,.1,0,.3,.1,.4,0,0,0,0-.2,0-.3,0,0,.2,.1,.2,.2,0,0,.1,0,.1,0,0-.3,.4-.6,.2-.9-.2-.5-.5-1-.6-1.6-.4,.6-.4,1.3-.2,1.9l-1.7-.6Zm-24.7,1.1c0,0,0,0,0,.1,0,.2,0,.3,.2,.2,0,0,0,0,0,0,.4,0,.8-.1,1-.4,.3-.3,.4-.7,.7-1-.1,0-.2,0-.3,0-.4,.2-.9,.3-1.3,.5-.2,0-.2,0-.2-.1,0-.3,0-.5,0-.8,0-.3-.1-.6-.3-.9,0,.5-.3,.9-.5,1.3-.2,.3-.2,.6,0,1,.2,.3,.2,.4,.5,0Zm20.9-6.6c.1,0,.3,0,.3-.1-.1-.3,0-.7-.3-1-.3-.3-.7-.6-1.1-1-.2,.8,.1,1.4,.7,1.9-.6,0-1,.4-1.6,.5,.4,.1,.6,.3,.9,.4,.4,0,.8,0,1.2-.2,.3-.2,.3-.2,0-.4,0,0,0,0-.1-.1Zm-15.1,0c0,.2-.3,.2-.4,.3,.5,.6,1.6,.6,2.3,0-.5-.1-.9-.4-1.5-.5,0,0,.1-.1,.2-.2,.3-.3,.5-.7,.5-1.2,0-.1,0-.4,0-.4-.1,0-.2,.2-.3,.2-.1,0-.2,.2-.3,.2-.5,.3-.7,.6-.8,1.2,0,.2,0,.3,.2,.3Zm-8.7,14.8c0-.7-.3-1.3-.9-1.7,0,.3,0,.6,0,.8,0,.2,0,.5,0,.7,0,.5,.5,.7,.7,1,.1-.2,.2-.3,.3-.5,0,0,0,.2,0,.2,0,0,0,.2,0,.2,.9-.2,1.1-.9,1.2-1.7-.5,.2-.9,.4-1.3,.9Zm.2,10.4c.8-.7,.9-1.5,.7-2.5-.4,.4-.7,.9-.8,1.6-.3-.6-.7-1-1.4-1.1,.1,.3,.2,.5,.2,.8,0,.5,.3,.8,.8,1,.3,.1,.3,.1,.4-.2,0,0,0,0,0,0,0,.1,0,.3,0,.5Zm30.3-16.1c0-.1-.1-.2,0-.4,0,0,0,0,.1,0,0,0,0,0,.1,0,0,0,0,0,.2,0,.4-.5,.6-1,.4-1.6,0-.3-.2-.5-.2-.8-.5,.5-.6,1.1-.6,1.8-.5-.4-.9-.6-1.5-.9,0,.9,.8,1.6,1.6,1.8Zm-29.8-.5c0,.4-.3,.7-.3,1-.1,.5,0,.9,.3,1.3,0,0,0,.3,.2,.3,.1,0,.2-.2,.2-.2,0,0,0,0,0,0,0,.1,0,.3,0,.4,.8-.3,1.2-.7,1.6-1.7-.5,.2-1,.3-1.5,.7,0-.6,0-1.2-.5-1.7Zm31.1,2.6q.6-1.2,.1-2.5c-.5,.5-.5,1.1-.5,1.7-.5-.4-1-.5-1.5-.7,.3,.8,.8,1.4,1.6,1.7,0-.1,0-.3,0-.5,0,0,.1,.2,.2,.3Zm.7,13.5c0,0,0,.2,.1,.2,0,0,0,.1,.2,0,.4-.1,.8-.3,.9-.8,0-.3,.1-.7,.3-1.1-.7,0-1.1,.5-1.4,1.1-.1-.6-.4-1.1-.8-1.6-.3,.9,0,2,.7,2.5,0-.2,0-.3,0-.5Zm-30.2-16.4c0-.7-.1-1.3-.6-1.8,0,.3,0,.5-.2,.7-.1,.3-.2,.6,0,1,0,.2,.3,.4,.4,.6,0,.2,.2,.2,.3,0,0,0,0,0,.1,0,0,.1,0,.3-.1,.4,.8-.1,1.5-.9,1.6-1.8-.5,.3-1,.5-1.5,.9Zm26,24.5c-.6,.6-.8,1.3-.5,2.1,.1,0,.3-.2,.5-.2,0,.1-.2,.2-.2,.3,0,0,0,.1,0,.1,.5,0,1,0,1.4-.4,.3-.3,.6-.7,1.1-1-.8,0-1.5,.2-2,.6,0-.5-.2-1.1-.2-1.6Zm-1.8-32.3c-.1,.7-.2,1.3,0,1.9-.5,0-.9,0-1.4,0,.3,.3,.6,.5,.9,.6,.3,.2,.7,.2,1,.1,.1,0,.2,0,0-.2,0,0-.1-.1-.1-.2,.1,0,.2,0,.3,0,0,0,.1,0,.1,0,0-.4,0-.9-.3-1.3-.2-.3-.5-.6-.7-.9Zm-25.2,31.5c.4,.8,.9,1.3,1.8,1.5,.4,0,.4,0,.3-.3,0,0,0,0,0,0,.2,0,.2,.2,.3,.3,.4-.4,.5-.9,.3-1.4,0-.3-.3-.5-.3-.8-.3,.5-.5,1-.5,1.6-.6-.4-1.1-.8-1.9-.8Zm4.8-29.6c.3-.6,.2-1.2,0-1.9-.2,.2-.3,.4-.4,.5-.4,.4-.5,.8-.5,1.4,0,.5,0,.5,.4,.4,0,0,0,0,0,0l-.3,.3c.6,.3,1.5,0,2.1-.7-.5,0-.9,0-1.4,0Zm-5.1,13.4c-.5,.3-.9,.6-1.1,1.1-.3-.6-.6-1.1-1.3-1.4,0,.3,0,.5,.1,.7,0,.6,.3,1.1,.8,1.4,.3,.2,.3,.2,.5-.1,0,0,0,0,0,0v.3c.6-.5,1-1.1,.9-1.9Zm6.1-14.2c.6,.4,1.6,.2,2.1-.4-.5,0-.9-.3-1.5-.2,.4-.9,.5-1.6,.4-1.9-.2,.3-.4,.5-.7,.7-.4,.3-.5,.6-.5,1.1,0,.4,0,.4,.4,.4,0,0,0,0,0,0,0,.1-.2,.2-.3,.3Z"/>
      <path class="uuid-7ee91ff0-7897-4b07-bbbe-39dd2be30ac8" d="M107.9,43.7c.4,.1,.7,.3,.9,.6,.2,.3,0,.6,.1,.8,0,.2-.1,.4-.2,.7-.2,.4-.5,.6-.9,.8,0,0-.2,0-.2,.1-.2,0-.3,0-.5,0-.2,0-.2,.4,0,.6,.3,.5,.7,.7,1.1,1,.7,.4,1.4,.6,2.2,.7,.1,0,.2,0,.4,0-.2,.4-.7,.6-1.1,.5-.8-.2-1.5-.5-2.2-1-.3-.2-.5-.5-.7-.8-.2,.5,0,.8,.3,1.2,.5,.6,1.2,.9,1.9,1.2,0,0,.2,0,.2,0-.3,.3-.6,.4-1,.3-1-.3-1.7-.9-2.1-1.9-.3,.2-.6,.2-.8,0-.1,0-.1,0-.1,0-.4,1-1.1,1.5-2.2,1.8-.4,.1-.6-.1-.9-.3,.5-.1,.9-.3,1.3-.5,.5-.2,.9-.6,1.2-1,.2-.3,.3-.6,.1-.9-.8,1.2-2,1.5-3.2,1.9,0,0-.1,0-.2,0-.2-.2-.5-.3-.7-.5,.8-.1,1.5-.2,2.2-.5,.6-.3,1.2-.6,1.6-1.1,.2-.2,.2-.4,0-.6-.1-.2-.4-.2-.6-.2-.1-.1-.3-.1-.4-.2-.2-.1-.4-.3-.6-.5,0,0,0,0,0,0h0c0-.2-.2-.4-.2-.6,0-.3,0-.6,0-.9,.2-.3,.4-.5,.7-.6,.6-.2,1.2-.1,1.8,0,.2,0,.5,0,.7,0,.7-.1,1.3-.1,2,0Zm-2.9,2.5c.3-.3,.9-.4,1.3,0,0,0,0,0,.1,0,.2-.2,.3-.5,.3-.8,0-.3-.2-.4-.4-.5-.2,0-.5-.1-.7-.1-.4,0-.7,0-.9,.5-.2,.4,0,.7,.3,1,0,0,0,0,0,0Zm.2,1c0,.3,0,.5,.2,.8,0,.1,.2,.2,.3,.2,.1,0,.2,0,.3-.2,.1-.3,.2-.6,.2-1,0-.2-.1-.3-.3-.3-.4,0-.6,.1-.6,.5Zm1.8-2.8c.6,.4,.6,.9,.5,1.4,.5-.2,.8-.6,.6-1-.1-.4-.5-.6-1.1-.4Zm-2.7,0c-.6-.2-1,0-1.1,.4-.1,.4,.1,.8,.6,1-.1-.6-.1-1.1,.5-1.4Z"/>
      <path class="uuid-7ee91ff0-7897-4b07-bbbe-39dd2be30ac8" d="M107,47.3c-.2-.1-.2-.5,0-.6,.1,0,.3-.1,.5,0,1,.3,2.1,.5,3.2,.6,.2,0,.4,0,.6,0,.1,0,.2,0,.1,.2-.2,.5-.7,.7-1.2,.5-1.1-.2-2.2-.5-3.2-.7Z"/>
      <path class="uuid-7ee91ff0-7897-4b07-bbbe-39dd2be30ac8" d="M103.8,46.7c.2,0,.5,0,.6,.2,.1,.2,.1,.4,0,.6-.4,0-.8,.1-1.1,.2-.7,.2-1.5,.4-2.2,.5-.3,0-.9-.3-1-.6,0-.2,0-.2,.2-.2,.4,0,.8,0,1.1-.1,.9-.1,1.7-.2,2.6-.5Z"/>
      <path class="uuid-7ee91ff0-7897-4b07-bbbe-39dd2be30ac8" d="M102.7,45.9c0,0,0,0,0,0,0,0,0,0,0,0Z"/>
      <path class="uuid-7ee91ff0-7897-4b07-bbbe-39dd2be30ac8" d="M123.1,21.9h0s0,0,0,0h0Z"/>
      <path class="uuid-7ee91ff0-7897-4b07-bbbe-39dd2be30ac8" d="M87.9,29.2h0c0,0,0,0,0,0h0Z"/>
      <path class="uuid-7ee91ff0-7897-4b07-bbbe-39dd2be30ac8" d="M123.1,29.2h0s0,0,0,0h0Z"/>
      <path class="uuid-7ee91ff0-7897-4b07-bbbe-39dd2be30ac8" d="M123.1,19.4h0s0,0,0,0h0Z"/>
      <path class="uuid-7ee91ff0-7897-4b07-bbbe-39dd2be30ac8" d="M120.5,17.9s0,0,0,0h0Z"/>
      <path class="uuid-7ee91ff0-7897-4b07-bbbe-39dd2be30ac8" d="M88.9,31.8h0c0,0,0,0,0,0h0Z"/>
      <path class="uuid-7ee91ff0-7897-4b07-bbbe-39dd2be30ac8" d="M123.5,24.3h0s0,0,0,0h0Z"/>
      <path class="uuid-7ee91ff0-7897-4b07-bbbe-39dd2be30ac8" d="M94.8,40.6h0Z"/>
      <path class="uuid-7ee91ff0-7897-4b07-bbbe-39dd2be30ac8" d="M93.5,8.5h0s0,0,0,0h0Z"/>
      <path class="uuid-7ee91ff0-7897-4b07-bbbe-39dd2be30ac8" d="M120.4,33s0,0,0,0h0Z"/>
      <path class="uuid-7ee91ff0-7897-4b07-bbbe-39dd2be30ac8" d="M119.4,34.9h0Z"/>
      <path class="uuid-7ee91ff0-7897-4b07-bbbe-39dd2be30ac8" d="M91.5,34.9h0s0,0,0,0h0Z"/>
      <path class="uuid-7ee91ff0-7897-4b07-bbbe-39dd2be30ac8" d="M93.3,38.3h0s0,0,0,0h0Z"/>
      <path class="uuid-7ee91ff0-7897-4b07-bbbe-39dd2be30ac8" d="M118.4,37h0Z"/>
      <path class="uuid-7ee91ff0-7897-4b07-bbbe-39dd2be30ac8" d="M114.3,5.2s0,0,0,0h0Z"/>
      <path class="uuid-7ee91ff0-7897-4b07-bbbe-39dd2be30ac8" d="M93.8,16.6c.5,0,.9,0,1.4,0,.5,0,1,0,1.5,.1,1,0,2,.2,2.9,.2,.6,0,1.3,0,1.9,.2,.2,0,.2,0,.3-.2,.3-.6,.7-1.2,1-1.7,.9-1.5,1.7-3.1,2.6-4.6,0,0,0-.2,.1-.2,0,0,0,.1,.1,.2,1.2,2.1,2.4,4.3,3.6,6.4,0,.1,.2,.2,.3,.1,1,0,2-.2,3-.3,1.1,0,2.2-.2,3.3-.3,.4,0,.8,0,1.2,0,0,0,0,0,.1,0,0,0,0,0,0,.1-.1,.2-.3,.4-.4,.6-1.3,2-2.6,4-4,6-.1,.2-.1,.3,0,.5,1.5,2.2,3.1,4.3,4.6,6.5,0,0,0,0,0,0,0,0-.1,0-.2,0-1.1,0-2.3-.1-3.4-.2-.8,0-1.6-.1-2.4-.1-.6,0-1.3,0-1.9-.1-.1,0-.2,0-.3,.2-.6,1.2-1.2,2.3-1.8,3.5-.6,1.1-1.2,2.3-1.8,3.4,0,0,0,.1-.1,.1,0,0,0,0-.1-.1-.7-1.3-1.4-2.6-2-3.9-.5-1-1.1-2-1.6-3,0,0,0-.2-.2-.2-.4,0-.7,0-1.1,0-.7,0-1.4,0-2.1,.1-1.2,0-2.4,.2-3.6,.2-.3,0-.6,0-.9,0,0,0-.1,0-.2,0,0,0,0-.1,0-.2,.6-.9,1.3-1.8,1.9-2.7,.9-1.2,1.8-2.5,2.6-3.7,.1-.2,0-.3,0-.5-1.4-2.2-2.9-4.3-4.3-6.5,0,0-.1-.1-.1-.3Zm11.7-4.9c0,0,0,.1-.1,.2-1.1,1.9-2.2,3.9-3.3,5.8,0,.2-.2,.2-.3,.2-.5,0-1,0-1.5-.1-1.1,0-2.3-.2-3.4-.3-.6,0-1.3-.1-1.9-.2,0,0,.1,.2,.1,.2,1.3,2,2.6,3.9,3.9,5.9,.1,.2,.1,.3,0,.4-1,1.4-2,2.7-2.9,4.1-.4,.6-.8,1.2-1.3,1.8,.5,0,.9,0,1.4,0,1.9-.1,3.8-.2,5.6-.3,.2,0,.2,0,.3,.2,.8,1.5,1.5,2.9,2.3,4.3,.4,.7,.7,1.3,1.1,2,0,0,0-.2,.1-.2,1.1-2,2.2-4.1,3.2-6.1,0-.2,.2-.2,.4-.2,.6,0,1.2,0,1.7,.1,1.3,0,2.5,.2,3.8,.2,.5,0,.9,0,1.4,0,0-.1-.1-.2-.2-.2-1.3-1.9-2.7-3.8-4-5.7-.1-.2-.1-.3,0-.4,1.3-2,2.6-3.9,3.9-5.9,0,0,.1-.1,.1-.3-1,0-1.9,.2-2.8,.2-1.3,.1-2.7,.2-4,.3-.2,0-.2,0-.3-.2-.6-1.1-1.2-2.2-1.9-3.3-.5-.9-1-1.8-1.5-2.7Z"/>
      <path class="uuid-7ee91ff0-7897-4b07-bbbe-39dd2be30ac8" d="M109.4,27.5h0c0,.1,0,0-.1,0h0Z"/>
      <path class="uuid-7ee91ff0-7897-4b07-bbbe-39dd2be30ac8" d="M110.6,21.5s0,0,0,0c0,0,0,0,0,0h0Z"/>
      <path class="uuid-7ee91ff0-7897-4b07-bbbe-39dd2be30ac8" d="M109.4,19.7s0,0,0,0c0,0,0,0,0,0,0,0,0,0,0,0Z"/>
      <path class="uuid-3bc71bc6-4eb5-45ae-9275-1c3b85de605e" d="M110.2,24.8c.3,.1,.6,0,.8-.1-.3,0-.6,0-.8-.3-.2-.2-.4-.3-.7-.3-.1,0-.2,0-.3-.1l1.9-.4h0c-.6-.2-1.3-.3-1.9-.4,.1-.1,.2-.1,.3-.1,.2,0,.4,0,.6-.2,.2-.3,.5-.4,1-.4-.3-.2-.6-.2-.9-.1-.3,.1-.7,.2-1,0,0,0,.2-.1,.2-.2,.4-.3,.8-.5,1.2-.8h0c-.2,0-.5,0-.7,.1-.4,0-.7,.2-1.1,.2,0,0,0,0,0,0,.4-.3,.8-.6,1-1,0-.1,.2-.2,.4-.3-.4,0-.6,0-.9,.4-.2,.2-.5,.3-.8,.4,0,0,0,0-.1,0,0,0,0,0,0,0l1-1.4s0,0,0,0l-1.6,1c0-.2,0-.2,.2-.3,.1-.1,.3-.3,.3-.4,0-.4,0-.7,.3-1-.4,.1-.6,.4-.7,.7-.1,.3-.4,.4-.6,.6l.4-1.8h0l-1.1,1.6c0-.2,0-.3,0-.4,0-.2,.1-.3,0-.5-.1-.3-.2-.7,0-1-.4,.2-.5,.5-.5,.9,0,.3-.1,.6-.3,.9l-.3-1.9h0l-.4,2c-.1-.2-.1-.3-.1-.5,0-.2,0-.4-.2-.5-.3-.2-.4-.5-.4-1-.3,.4-.2,.7,0,1.1,.1,.3,0,.6,0,1l-1-1.7h0l.4,2c-.2,0-.2-.2-.3-.4-.1-.3-.3-.5-.6-.6-.2,0-.3-.2-.4-.4,0,0,0-.1-.1-.1,0,.3,0,.6,.3,.8,.3,.3,.4,.6,.5,.9,0,0,0,0,0,0,0,0,0,0,0,0,0,0,0,0-.1,0-.5-.3-.9-.7-1.4-1,0,.2,.2,.3,.3,.5,.3,.4,.6,.8,.9,1.2-.2,0-.3-.2-.5-.2-.2-.1-.4-.3-.6-.3-.3,0-.6,0-.8-.3h0c0,.3,.3,.5,.6,.6,.3,.1,.6,.4,.8,.6,0,0-.2,0-.3,0-.5-.1-1.1-.3-1.6-.4h0l1.7,1.1c-.2,0-.3,0-.4,0-.2,0-.5-.1-.7,0-.3,.1-.6,.2-1,0,.2,.3,.4,.4,.7,.4,.4,0,.8,0,1.2,.3l-2,.4h0l2,.4c-.1,.1-.2,.1-.3,.1-.1,0-.3,0-.4,.1-.3,.3-.6,.4-1,.4,.3,.3,.7,.3,1,.1,.3-.1,.6,0,.9,0l-1.7,1h0c0,0,.2,0,.3,0,.5-.1,1.1-.2,1.7-.4-.3,.3-.5,.6-.8,.7-.3,.1-.5,.3-.6,.6h0c.2,0,.3-.2,.6-.2,.4,0,.7-.1,1-.4,0,0,.2-.2,.3-.1l-1.1,1.6s0,0,0,0c.5-.4,1-.7,1.5-1.1,0,0,0,0,0,0,0,0,0,0,0,0-.1,.3-.2,.7-.5,.9-.2,.2-.4,.5-.3,.9,0,0,0-.2,.1-.2,0-.2,.2-.3,.4-.4,.3,0,.5-.3,.7-.6,0-.1,.1-.2,.3-.3,0,.4-.2,.7-.2,1.1,0,.3-.2,.6-.2,.9l1-1.6c0,.3,.1,.7,0,1,0,.2-.1,.3-.1,.5,0,.2,0,.3,.2,.5,0-.4,0-.6,.3-.9,.1-.1,.2-.3,.2-.5,0-.2,0-.4,.1-.6l.4,2h0c0-.6,.2-1.3,.3-1.9,.2,.3,.3,.7,.3,1,0,.3,.1,.6,.5,.8-.1-.3-.2-.6,0-.9,.1-.2,0-.4,0-.7,0-.1-.1-.2,0-.4l1.1,1.6h0l-.4-1.8h0c.3,.2,.5,.4,.7,.8,.1,.3,.3,.5,.7,.6-.2-.3-.4-.6-.3-.9,0-.2-.1-.4-.3-.6,0,0-.2-.2-.2-.3l1.5,1h0l-1.1-1.5c.3,0,.5,.1,.7,.2,.2,.1,.3,.3,.4,.4,.2,.1,.4,.2,.7,.2-.2-.2-.5-.3-.6-.6,0-.2-.2-.4-.4-.5-.1,0-.3-.1-.4-.3l1.9,.4h0l-1.5-1c.4-.1,.7,0,1,0Z"/>
      <path class="uuid-7ee91ff0-7897-4b07-bbbe-39dd2be30ac8" d="M105.7,24.1c.2,0,.3-.1,.4-.3,0,0,0,0,.1,0,0,0,0,0,0,0,0,.1,0,.3-.3,.4-.3,.2-.6,0-.9,0,0,0-.3-.3-.2-.4,0,0,0,0,0,0,0,0,.1,0,.1,0,0,.2,.2,.2,.3,.2,.2,.1,.2,0,.4,0Z"/>
      <path class="uuid-7ee91ff0-7897-4b07-bbbe-39dd2be30ac8" d="M103.4,22.7c0,0,0-.1,0-.2,.2-.3,.6-.4,1-.4,0,0,.2,0,.3,0,.1,0,.4-.1,.4,.2,0,.1,0,.2-.2,.2-.3,0-.5,0-.8,0-.2,0-.4,0-.6,.2,0,0-.1,0-.2,0Z"/>
      <path class="uuid-7ee91ff0-7897-4b07-bbbe-39dd2be30ac8" d="M104,23.1c0-.2-.1-.1-.2,0-.1,.1-.1,0-.3,0,.2-.4,.9-.7,1.3-.5,.1,0,.2,.3,.3,.4,0,0,0,0,0,0-.2,0-.4,0-.5,.1-.1,.2-.4,0-.5-.2Z"/>
      <path class="uuid-7ee91ff0-7897-4b07-bbbe-39dd2be30ac8" d="M106.6,25.2c0,0,0,0-.2,0-.3,0-.5,.3-.8,.2,0,0,0,0-.2,0-.2-.1-.5,0-.6-.2,0,0-.2,0-.3,0,0,0-.2,0-.2,0,0,0,0-.1,.1-.1,.2,0,.4-.2,.6-.1,.3,0,.5,0,.8,0,.2,0,.4,0,.6,.1,0,0,.2,0,.1,.1Z"/>
      <path class="uuid-7ee91ff0-7897-4b07-bbbe-39dd2be30ac8" d="M107.5,23.2c0,0-.2,0-.2,0-.2-.2-.2-.1-.3,0-.1,.2-.4,.2-.6,0,0-.1,0-.2-.2,0,0,0-.2,0-.2,0,0,0,0-.1,0-.2,.2-.3,.2-.3,.6-.3,.3,0,.6,0,.8,.3,0,0,.1,.1,0,.2Z"/>
      <path class="uuid-7ee91ff0-7897-4b07-bbbe-39dd2be30ac8" d="M105.9,22.5c0-.4,0-.4,.5-.4,.3,0,.6,0,.9,.2,.2,0,.3,.2,.4,.5-.5-.5-1.1-.3-1.7-.3Z"/>
      <g>
        <path class="uuid-7ee91ff0-7897-4b07-bbbe-39dd2be30ac8" d="M0,36.2H.8c0,.3,.1,.6,.3,.9,.1,.2,.3,.4,.6,.6s.6,.2,.9,.2c.5,0,.9-.1,1.1-.4,.3-.2,.4-.5,.4-.9s0-.4-.1-.6c0-.2-.2-.3-.4-.4-.2-.1-.6-.3-1.3-.4-.6-.2-1-.3-1.2-.5-.2-.2-.4-.4-.6-.7s-.2-.6-.2-.9c0-.6,.2-1.1,.6-1.5,.4-.4,.9-.6,1.6-.6s.8,0,1.2,.3,.6,.4,.8,.8c.2,.3,.3,.7,.3,1.2h-.8c0-.4-.2-.8-.4-1-.2-.2-.6-.3-1-.3s-.8,.1-1,.3c-.2,.2-.4,.5-.4,.8s0,.5,.3,.7,.6,.3,1.2,.5c.6,.2,1,.3,1.3,.4,.4,.2,.7,.4,.8,.7,.2,.3,.3,.7,.3,1.1s0,.8-.3,1.2c-.2,.3-.5,.6-.8,.8-.3,.2-.8,.3-1.2,.3-.8,0-1.4-.2-1.8-.7-.4-.5-.7-1.1-.7-1.8Z"/>
        <path class="uuid-7ee91ff0-7897-4b07-bbbe-39dd2be30ac8" d="M8.9,36.8h.8c-.1,.7-.4,1.1-.7,1.4s-.8,.4-1.2,.4-1.1-.2-1.5-.7-.6-1.2-.6-2.1,.2-1.6,.6-2.1,.9-.7,1.5-.7,1,.2,1.4,.7c.4,.5,.6,1.2,.6,2.1v.2h-3.3c0,.6,.2,1.1,.4,1.4,.2,.3,.6,.5,.9,.5,.6,0,1-.4,1.2-1.1Zm-2.5-1.5h2.5c0-.5-.1-.8-.3-1-.2-.3-.5-.5-.9-.5s-.6,.1-.9,.4-.4,.7-.4,1.1Z"/>
        <path class="uuid-7ee91ff0-7897-4b07-bbbe-39dd2be30ac8" d="M13.5,36.6h.7c0,.8-.3,1.2-.6,1.6-.3,.3-.7,.5-1.2,.5s-1.1-.2-1.4-.7c-.4-.5-.6-1.2-.6-2.1s.2-1.6,.6-2.1c.4-.5,.9-.7,1.5-.7s.8,.1,1.2,.4c.3,.3,.5,.7,.6,1.3h-.7c0-.2-.2-.5-.4-.7-.2-.2-.4-.3-.6-.3-.4,0-.7,.2-.9,.5-.2,.3-.4,.8-.4,1.6s.1,1.3,.3,1.6,.5,.5,.9,.5,.5-.1,.7-.3c.2-.2,.3-.6,.4-1Z"/>
        <path class="uuid-7ee91ff0-7897-4b07-bbbe-39dd2be30ac8" d="M14.8,38.6v-5.4h.7v.8c.2-.4,.3-.6,.5-.8,.1-.1,.3-.2,.5-.2s.5,0,.8,.3l-.3,.8c-.2-.1-.4-.2-.5-.2s-.3,0-.4,.2-.2,.3-.3,.5c0,.3-.1,.7-.1,1.1v2.8h-.7Z"/>
        <path class="uuid-7ee91ff0-7897-4b07-bbbe-39dd2be30ac8" d="M20.7,36.8h.8c-.1,.7-.4,1.1-.7,1.4s-.8,.4-1.2,.4-1.1-.2-1.5-.7-.6-1.2-.6-2.1,.2-1.6,.6-2.1,.9-.7,1.5-.7,1,.2,1.4,.7c.4,.5,.6,1.2,.6,2.1v.2h-3.3c0,.6,.2,1.1,.4,1.4,.2,.3,.6,.5,.9,.5,.6,0,1-.4,1.2-1.1Zm-2.5-1.5h2.5c0-.5-.1-.8-.3-1-.2-.3-.5-.5-.9-.5s-.6,.1-.9,.4-.4,.7-.4,1.1Z"/>
        <path class="uuid-7ee91ff0-7897-4b07-bbbe-39dd2be30ac8" d="M24.1,37.8v.8c-.1,0-.3,0-.5,0-.3,0-.5,0-.6-.2-.2-.1-.3-.2-.3-.4,0-.2,0-.5,0-1.1v-3.1h-.5v-.7h.5v-1.3l.7-.5v1.9h.8v.7h-.8v3.1c0,.3,0,.5,0,.6,0,.1,.2,.2,.4,.2s.2,0,.3,0Z"/>
        <path class="uuid-7ee91ff0-7897-4b07-bbbe-39dd2be30ac8" d="M27.6,37.9c-.3,.3-.5,.5-.8,.6-.3,.1-.6,.2-.8,.2-.5,0-.8-.1-1.1-.4-.3-.3-.4-.7-.4-1.1s0-.6,.2-.8c.1-.2,.3-.4,.5-.6s.6-.2,1-.3c.6,0,1.1-.2,1.3-.3v-.2c0-.4,0-.6-.2-.8-.2-.2-.5-.3-.9-.3s-.6,0-.8,.2c-.2,.1-.3,.4-.4,.8h-.7c.1-.7,.3-1.1,.6-1.4,.3-.3,.8-.4,1.4-.4s.8,0,1.1,.3,.4,.4,.5,.6c0,.3,.1,.6,.1,1.1v1.2c0,.9,0,1.4,0,1.6,0,.2,0,.4,.2,.6h-.8c0-.2-.1-.4-.2-.7Zm0-2c-.3,.1-.7,.3-1.2,.3-.3,0-.5,.1-.7,.2-.1,0-.2,.2-.3,.3s-.1,.3-.1,.4c0,.3,0,.5,.2,.6,.2,.2,.4,.2,.7,.2s.5,0,.7-.2c.2-.1,.4-.3,.5-.6s.2-.6,.2-1v-.3Z"/>
        <path class="uuid-7ee91ff0-7897-4b07-bbbe-39dd2be30ac8" d="M29.5,38.6v-5.4h.7v.8c.2-.4,.3-.6,.5-.8,.1-.1,.3-.2,.5-.2s.5,0,.8,.3l-.3,.8c-.2-.1-.4-.2-.5-.2s-.3,0-.4,.2-.2,.3-.3,.5c0,.3-.1,.7-.1,1.1v2.8h-.7Z"/>
        <path class="uuid-7ee91ff0-7897-4b07-bbbe-39dd2be30ac8" d="M32.4,32.5l.6-1.4h1l-.9,1.4h-.6Zm.2,6.1v-5.4h.7v5.4h-.7Z"/>
        <path class="uuid-7ee91ff0-7897-4b07-bbbe-39dd2be30ac8" d="M37.6,37.9c-.3,.3-.5,.5-.8,.6-.3,.1-.6,.2-.8,.2-.5,0-.8-.1-1.1-.4-.3-.3-.4-.7-.4-1.1s0-.6,.2-.8c.1-.2,.3-.4,.5-.6s.6-.2,1-.3c.6,0,1.1-.2,1.3-.3v-.2c0-.4,0-.6-.2-.8-.2-.2-.5-.3-.9-.3s-.6,0-.8,.2c-.2,.1-.3,.4-.4,.8h-.7c.1-.7,.3-1.1,.6-1.4,.3-.3,.8-.4,1.4-.4s.8,0,1.1,.3,.4,.4,.5,.6c0,.3,.1,.6,.1,1.1v1.2c0,.9,0,1.4,0,1.6,0,.2,0,.4,.2,.6h-.8c0-.2-.1-.4-.2-.7Zm0-2c-.3,.1-.7,.3-1.2,.3-.3,0-.5,.1-.7,.2-.1,0-.2,.2-.3,.3s-.1,.3-.1,.4c0,.3,0,.5,.2,.6,.2,.2,.4,.2,.7,.2s.5,0,.7-.2c.2-.1,.4-.3,.5-.6s.2-.6,.2-1v-.3Z"/>
        <path class="uuid-7ee91ff0-7897-4b07-bbbe-39dd2be30ac8" d="M44.7,38.6v-.7c-.1,.3-.3,.5-.5,.6-.2,.1-.4,.2-.7,.2-.5,0-1-.2-1.4-.7-.4-.5-.6-1.2-.6-2.1s0-1.1,.3-1.6c.2-.4,.4-.7,.7-.9,.3-.2,.6-.3,.9-.3s.5,0,.7,.2,.4,.3,.5,.5v-2.7h.8v7.4h-.7Zm-2.4-2.7c0,.7,.1,1.2,.4,1.6,.2,.3,.5,.5,.8,.5s.6-.2,.8-.5c.2-.3,.4-.8,.4-1.5s-.1-1.3-.4-1.6-.5-.5-.9-.5-.6,.2-.8,.5c-.2,.3-.3,.9-.3,1.6Z"/>
        <path class="uuid-7ee91ff0-7897-4b07-bbbe-39dd2be30ac8" d="M49.5,36.8h.8c-.1,.7-.4,1.1-.7,1.4s-.8,.4-1.2,.4-1.1-.2-1.5-.7-.6-1.2-.6-2.1,.2-1.6,.6-2.1,.9-.7,1.5-.7,1,.2,1.4,.7c.4,.5,.6,1.2,.6,2.1v.2h-3.3c0,.6,.2,1.1,.4,1.4,.2,.3,.6,.5,.9,.5,.6,0,1-.4,1.2-1.1Zm-2.5-1.5h2.5c0-.5-.1-.8-.3-1-.2-.3-.5-.5-.9-.5s-.6,.1-.9,.4-.4,.7-.4,1.1Z"/>
        <path class="uuid-7ee91ff0-7897-4b07-bbbe-39dd2be30ac8" d="M53.3,36.5h.7c0,.4,.1,.8,.3,1s.4,.3,.6,.3,.4,0,.5-.2c.1-.1,.2-.2,.3-.4,0-.2,.1-.6,.1-1v-5.1h.8v5.1c0,.9-.1,1.6-.4,1.9-.3,.4-.7,.6-1.3,.6s-.9-.2-1.2-.5c-.3-.4-.5-1-.5-1.7Z"/>
        <path class="uuid-7ee91ff0-7897-4b07-bbbe-39dd2be30ac8" d="M60.8,38.6v-.8c-.2,.3-.4,.5-.6,.7-.2,.2-.5,.2-.8,.2s-.6,0-.9-.3c-.2-.2-.4-.4-.5-.7s-.1-.7-.1-1.2v-3.3h.7v3c0,.6,0,.9,0,1.1,0,.2,.2,.3,.3,.5,.2,.1,.3,.2,.5,.2,.4,0,.7-.1,.9-.4,.2-.3,.3-.7,.3-1.4v-2.9h.8v5.4h-.7Z"/>
        <path class="uuid-7ee91ff0-7897-4b07-bbbe-39dd2be30ac8" d="M62.3,37h.7c0,.2,.2,.5,.4,.7s.5,.3,.8,.3,.6,0,.8-.2c.2-.2,.3-.4,.3-.6s0-.4-.2-.5c-.1,0-.4-.2-.8-.3-.6-.2-1-.3-1.2-.5-.2-.1-.3-.3-.5-.5-.1-.2-.2-.4-.2-.7,0-.5,.1-.8,.4-1.1,.3-.3,.7-.4,1.2-.4s.6,0,.9,.2,.4,.3,.6,.5c.1,.2,.2,.5,.3,.9h-.7c0-.5-.4-.8-1-.8s-.6,0-.7,.2-.2,.3-.2,.5,0,.4,.2,.5c0,0,.4,.2,.8,.3,.6,.2,1,.4,1.2,.5s.3,.3,.4,.5c.1,.2,.2,.4,.2,.7,0,.5-.2,.9-.5,1.2-.3,.3-.8,.5-1.3,.5-1.1,0-1.7-.6-1.8-1.7Z"/>
        <path class="uuid-7ee91ff0-7897-4b07-bbbe-39dd2be30ac8" d="M68.5,37.8v.8c-.1,0-.3,0-.5,0-.3,0-.5,0-.6-.2-.2-.1-.3-.2-.3-.4,0-.2,0-.5,0-1.1v-3.1h-.5v-.7h.5v-1.3l.7-.5v1.9h.8v.7h-.8v3.1c0,.3,0,.5,0,.6,0,.1,.2,.2,.4,.2s.2,0,.3,0Z"/>
        <path class="uuid-7ee91ff0-7897-4b07-bbbe-39dd2be30ac8" d="M69.2,32.2v-1h.7v1h-.7Zm0,6.4v-5.4h.7v5.4h-.7Z"/>
        <path class="uuid-7ee91ff0-7897-4b07-bbbe-39dd2be30ac8" d="M74,36.6h.7c0,.8-.3,1.2-.6,1.6-.3,.3-.7,.5-1.2,.5s-1.1-.2-1.4-.7c-.4-.5-.6-1.2-.6-2.1s.2-1.6,.6-2.1c.4-.5,.9-.7,1.5-.7s.8,.1,1.2,.4c.3,.3,.5,.7,.6,1.3h-.7c0-.2-.2-.5-.4-.7-.2-.2-.4-.3-.6-.3-.4,0-.7,.2-.9,.5-.2,.3-.4,.8-.4,1.6s.1,1.3,.3,1.6,.5,.5,.9,.5,.5-.1,.7-.3c.2-.2,.3-.6,.4-1Z"/>
        <path class="uuid-7ee91ff0-7897-4b07-bbbe-39dd2be30ac8" d="M75.4,32.2v-1h.7v1h-.7Zm0,6.4v-5.4h.7v5.4h-.7Z"/>
        <path class="uuid-7ee91ff0-7897-4b07-bbbe-39dd2be30ac8" d="M80.2,37.9c-.3,.3-.5,.5-.8,.6-.3,.1-.6,.2-.8,.2-.5,0-.8-.1-1.1-.4-.3-.3-.4-.7-.4-1.1s0-.6,.2-.8c.1-.2,.3-.4,.5-.6s.6-.2,1-.3c.6,0,1.1-.2,1.3-.3v-.2c0-.4,0-.6-.2-.8-.2-.2-.5-.3-.9-.3s-.6,0-.8,.2c-.2,.1-.3,.4-.4,.8h-.7c.1-.7,.3-1.1,.6-1.4,.3-.3,.8-.4,1.4-.4s.8,0,1.1,.3,.4,.4,.5,.6c0,.3,.1,.6,.1,1.1v1.2c0,.9,0,1.4,0,1.6,0,.2,0,.4,.2,.6h-.8c0-.2-.1-.4-.2-.7Zm0-2c-.3,.1-.7,.3-1.2,.3-.3,0-.5,.1-.7,.2-.1,0-.2,.2-.3,.3s-.1,.3-.1,.4c0,.3,0,.5,.2,.6,.2,.2,.4,.2,.7,.2s.5,0,.7-.2c.2-.1,.4-.3,.5-.6s.2-.6,.2-1v-.3Z"/>
      </g>
      <g>
        <path class="uuid-7ee91ff0-7897-4b07-bbbe-39dd2be30ac8" d="M131.8,15.8v-7.4h1.2l1.4,5.3,.3,1.1c0-.3,.2-.7,.3-1.2l1.5-5.2h1.1v7.4h-.8v-6.2l-1.8,6.2h-.7l-1.8-6.3v6.3h-.8Z"/>
        <path class="uuid-7ee91ff0-7897-4b07-bbbe-39dd2be30ac8" d="M138.9,9.4v-1h.7v1h-.7Zm0,6.4v-5.4h.7v5.4h-.7Z"/>
        <path class="uuid-7ee91ff0-7897-4b07-bbbe-39dd2be30ac8" d="M140.7,15.8v-5.4h.7v.8c.2-.3,.4-.5,.6-.7s.5-.2,.8-.2,.5,0,.7,.1,.4,.2,.5,.4c.1,.2,.2,.3,.3,.6,0,.2,0,.6,0,1.1v3.3h-.7v-3.3c0-.4,0-.7-.1-.9,0-.2-.2-.3-.3-.4s-.3-.1-.5-.1c-.4,0-.6,.1-.9,.4-.2,.3-.3,.7-.3,1.4v2.9h-.7Z"/>
        <path class="uuid-7ee91ff0-7897-4b07-bbbe-39dd2be30ac8" d="M145.5,9.4v-1h.7v1h-.7Zm0,6.4v-5.4h.7v5.4h-.7Z"/>
        <path class="uuid-7ee91ff0-7897-4b07-bbbe-39dd2be30ac8" d="M147.1,14.2h.7c0,.2,.2,.5,.4,.7s.5,.3,.8,.3,.6,0,.8-.2c.2-.2,.3-.4,.3-.6s0-.4-.2-.5c-.1,0-.4-.2-.8-.3-.6-.2-1-.3-1.2-.5-.2-.1-.3-.3-.5-.5-.1-.2-.2-.4-.2-.7,0-.5,.1-.8,.4-1.1,.3-.3,.7-.4,1.2-.4s.6,0,.9,.2,.4,.3,.6,.5c.1,.2,.2,.5,.3,.9h-.7c0-.5-.4-.8-1-.8s-.6,0-.7,.2-.2,.3-.2,.5,0,.4,.2,.5c0,0,.4,.2,.8,.3,.6,.2,1,.4,1.2,.5s.3,.3,.4,.5c.1,.2,.2,.4,.2,.7,0,.5-.2,.9-.5,1.2-.3,.3-.8,.5-1.3,.5-1.1,0-1.7-.6-1.8-1.7Z"/>
        <path class="uuid-7ee91ff0-7897-4b07-bbbe-39dd2be30ac8" d="M153.3,15v.8c-.1,0-.3,0-.5,0-.3,0-.5,0-.6-.2-.2-.1-.3-.2-.3-.4,0-.2,0-.5,0-1.1v-3.1h-.5v-.7h.5v-1.3l.7-.5v1.9h.8v.7h-.8v3.1c0,.3,0,.5,0,.6,0,.1,.2,.2,.4,.2s.2,0,.3,0Z"/>
        <path class="uuid-7ee91ff0-7897-4b07-bbbe-39dd2be30ac8" d="M157,14h.8c-.1,.7-.4,1.1-.7,1.4s-.8,.4-1.2,.4-1.1-.2-1.5-.7-.6-1.2-.6-2.1,.2-1.6,.6-2.1,.9-.7,1.5-.7,1,.2,1.4,.7c.4,.5,.6,1.2,.6,2.1v.2h-3.3c0,.6,.2,1.1,.4,1.4,.2,.3,.6,.5,.9,.5,.6,0,1-.4,1.2-1.1Zm-2.5-1.5h2.5c0-.5-.1-.8-.3-1-.2-.3-.5-.5-.9-.5s-.6,.1-.9,.4-.4,.7-.4,1.1Z"/>
        <path class="uuid-7ee91ff0-7897-4b07-bbbe-39dd2be30ac8" d="M158.7,15.8v-5.4h.7v.8c.2-.4,.3-.6,.5-.8,.1-.1,.3-.2,.5-.2s.5,0,.8,.3l-.3,.8c-.2-.1-.4-.2-.5-.2s-.3,0-.4,.2-.2,.3-.3,.5c0,.3-.1,.7-.1,1.1v2.8h-.7Z"/>
        <path class="uuid-7ee91ff0-7897-4b07-bbbe-39dd2be30ac8" d="M161.6,9.4v-1h.7v1h-.7Zm0,6.4v-5.4h.7v5.4h-.7Z"/>
        <path class="uuid-7ee91ff0-7897-4b07-bbbe-39dd2be30ac8" d="M163.2,13.1c0-.9,.2-1.6,.6-2.1,.4-.5,.9-.7,1.5-.7s1.1,.2,1.5,.7c.4,.5,.6,1.2,.6,2s-.2,1.7-.6,2.2c-.4,.5-.9,.7-1.5,.7s-1.1-.2-1.5-.7c-.4-.5-.6-1.2-.6-2.1Zm.8,0c0,.7,.1,1.2,.4,1.6,.3,.3,.6,.5,.9,.5s.7-.2,.9-.5c.3-.3,.4-.9,.4-1.6s-.1-1.2-.4-1.6-.6-.5-.9-.5-.7,.2-.9,.5-.4,.9-.4,1.5Z"/>
        <path class="uuid-7ee91ff0-7897-4b07-bbbe-39dd2be30ac8" d="M173.4,15.8v-.7c-.1,.3-.3,.5-.5,.6-.2,.1-.4,.2-.7,.2-.5,0-1-.2-1.4-.7-.4-.5-.6-1.2-.6-2.1s0-1.1,.3-1.6c.2-.4,.4-.7,.7-.9,.3-.2,.6-.3,.9-.3s.5,0,.7,.2,.4,.3,.5,.5v-2.7h.8v7.4h-.7Zm-2.4-2.7c0,.7,.1,1.2,.4,1.6,.2,.3,.5,.5,.8,.5s.6-.2,.8-.5c.2-.3,.4-.8,.4-1.5s-.1-1.3-.4-1.6-.5-.5-.9-.5-.6,.2-.8,.5c-.2,.3-.3,.9-.3,1.6Z"/>
        <path class="uuid-7ee91ff0-7897-4b07-bbbe-39dd2be30ac8" d="M178.3,14h.8c-.1,.7-.4,1.1-.7,1.4s-.8,.4-1.2,.4-1.1-.2-1.5-.7-.6-1.2-.6-2.1,.2-1.6,.6-2.1,.9-.7,1.5-.7,1,.2,1.4,.7c.4,.5,.6,1.2,.6,2.1v.2h-3.3c0,.6,.2,1.1,.4,1.4,.2,.3,.6,.5,.9,.5,.6,0,1-.4,1.2-1.1Zm-2.5-1.5h2.5c0-.5-.1-.8-.3-1-.2-.3-.5-.5-.9-.5s-.6,.1-.9,.4-.4,.7-.4,1.1Z"/>
        <path class="uuid-7ee91ff0-7897-4b07-bbbe-39dd2be30ac8" d="M131.6,24.8h.8c0,.3,.1,.6,.3,.9,.1,.2,.3,.4,.6,.6s.6,.2,.9,.2c.5,0,.9-.1,1.1-.4,.3-.2,.4-.5,.4-.9s0-.4-.1-.6c0-.2-.2-.3-.4-.4-.2-.1-.6-.3-1.3-.4-.6-.2-1-.3-1.2-.5-.2-.2-.4-.4-.6-.7s-.2-.6-.2-.9c0-.6,.2-1.1,.6-1.5,.4-.4,.9-.6,1.6-.6s.8,0,1.2,.3,.6,.4,.8,.8c.2,.3,.3,.7,.3,1.2h-.8c0-.4-.2-.8-.4-1-.2-.2-.6-.3-1-.3s-.8,.1-1,.3c-.2,.2-.4,.5-.4,.8s0,.5,.3,.7,.6,.3,1.2,.5c.6,.2,1,.3,1.3,.4,.4,.2,.7,.4,.8,.7,.2,.3,.3,.7,.3,1.1s0,.8-.3,1.2c-.2,.3-.5,.6-.8,.8-.3,.2-.8,.3-1.2,.3-.8,0-1.4-.2-1.8-.7-.4-.5-.7-1.1-.7-1.8Z"/>
        <path class="uuid-7ee91ff0-7897-4b07-bbbe-39dd2be30ac8" d="M140.5,25.5h.8c-.1,.7-.4,1.1-.7,1.4s-.8,.4-1.2,.4-1.1-.2-1.5-.7-.6-1.2-.6-2.1,.2-1.6,.6-2.1,.9-.7,1.5-.7,1,.2,1.4,.7c.4,.5,.6,1.2,.6,2.1v.2h-3.3c0,.6,.2,1.1,.4,1.4,.2,.3,.6,.5,.9,.5,.6,0,1-.4,1.2-1.1Zm-2.5-1.5h2.5c0-.5-.1-.8-.3-1-.2-.3-.5-.5-.9-.5s-.6,.1-.9,.4-.4,.7-.4,1.1Z"/>
        <path class="uuid-7ee91ff0-7897-4b07-bbbe-39dd2be30ac8" d="M142,27.7h.7c0,.4,.1,.6,.3,.8,.2,.1,.4,.2,.7,.2s.6,0,.8-.2c.2-.2,.3-.4,.4-.7,0-.2,0-.6,0-1.2-.2,.2-.3,.4-.5,.5-.2,.1-.4,.2-.7,.2-.5,0-1-.2-1.3-.7-.4-.5-.6-1.2-.6-2.1s0-1.1,.3-1.5c.2-.4,.4-.8,.7-1,.3-.2,.6-.3,1-.3s.5,0,.7,.2,.4,.3,.6,.6v-.6h.7v4.7c0,.8,0,1.4-.2,1.8s-.4,.6-.7,.8c-.3,.2-.7,.3-1.1,.3s-1-.2-1.3-.5-.5-.7-.4-1.3Zm.6-3.2c0,.7,.1,1.2,.4,1.5s.5,.5,.9,.5,.6-.2,.9-.5c.2-.3,.4-.8,.4-1.5s-.1-1.2-.4-1.5c-.2-.3-.5-.5-.9-.5s-.6,.2-.8,.5-.4,.8-.4,1.5Z"/>
        <path class="uuid-7ee91ff0-7897-4b07-bbbe-39dd2be30ac8" d="M149.8,27.2v-.8c-.2,.3-.4,.5-.6,.7-.2,.2-.5,.2-.8,.2s-.6,0-.9-.3c-.2-.2-.4-.4-.5-.7s-.1-.7-.1-1.2v-3.3h.7v3c0,.6,0,.9,0,1.1,0,.2,.2,.3,.3,.5,.2,.1,.3,.2,.5,.2,.4,0,.7-.1,.9-.4,.2-.3,.3-.7,.3-1.4v-2.9h.8v5.4h-.7Z"/>
        <path class="uuid-7ee91ff0-7897-4b07-bbbe-39dd2be30ac8" d="M151.6,27.2v-5.4h.7v.8c.2-.4,.3-.6,.5-.8,.1-.1,.3-.2,.5-.2s.5,0,.8,.3l-.3,.8c-.2-.1-.4-.2-.5-.2s-.3,0-.4,.2-.2,.3-.3,.5c0,.3-.1,.7-.1,1.1v2.8h-.7Z"/>
        <path class="uuid-7ee91ff0-7897-4b07-bbbe-39dd2be30ac8" d="M154.5,20.8v-1h.7v1h-.7Zm0,6.4v-5.4h.7v5.4h-.7Z"/>
        <path class="uuid-7ee91ff0-7897-4b07-bbbe-39dd2be30ac8" d="M159.2,27.2v-.7c-.1,.3-.3,.5-.5,.6-.2,.1-.4,.2-.7,.2-.5,0-1-.2-1.4-.7-.4-.5-.6-1.2-.6-2.1s0-1.1,.3-1.6c.2-.4,.4-.7,.7-.9,.3-.2,.6-.3,.9-.3s.5,0,.7,.2,.4,.3,.5,.5v-2.7h.8v7.4h-.7Zm-2.4-2.7c0,.7,.1,1.2,.4,1.6,.2,.3,.5,.5,.8,.5s.6-.2,.8-.5c.2-.3,.4-.8,.4-1.5s-.1-1.3-.4-1.6-.5-.5-.9-.5-.6,.2-.8,.5c-.2,.3-.3,.9-.3,1.6Z"/>
        <path class="uuid-7ee91ff0-7897-4b07-bbbe-39dd2be30ac8" d="M164,26.5c-.3,.3-.5,.5-.8,.6-.3,.1-.6,.2-.8,.2-.5,0-.8-.1-1.1-.4-.3-.3-.4-.7-.4-1.1s0-.6,.2-.8c.1-.2,.3-.4,.5-.6s.6-.2,1-.3c.6,0,1.1-.2,1.3-.3v-.2c0-.4,0-.6-.2-.8-.2-.2-.5-.3-.9-.3s-.6,0-.8,.2c-.2,.1-.3,.4-.4,.8h-.7c.1-.7,.3-1.1,.6-1.4,.3-.3,.8-.4,1.4-.4s.8,0,1.1,.3,.4,.4,.5,.6c0,.3,.1,.6,.1,1.1v1.2c0,.9,0,1.4,0,1.6,0,.2,0,.4,.2,.6h-.8c0-.2-.1-.4-.2-.7Zm0-2c-.3,.1-.7,.3-1.2,.3-.3,0-.5,.1-.7,.2-.1,0-.2,.2-.3,.3s-.1,.3-.1,.4c0,.3,0,.5,.2,.6,.2,.2,.4,.2,.7,.2s.5,0,.7-.2c.2-.1,.4-.3,.5-.6s.2-.6,.2-1v-.3Z"/>
        <path class="uuid-7ee91ff0-7897-4b07-bbbe-39dd2be30ac8" d="M168.7,27.2v-.7c-.1,.3-.3,.5-.5,.6-.2,.1-.4,.2-.7,.2-.5,0-1-.2-1.4-.7-.4-.5-.6-1.2-.6-2.1s0-1.1,.3-1.6c.2-.4,.4-.7,.7-.9,.3-.2,.6-.3,.9-.3s.5,0,.7,.2,.4,.3,.5,.5v-2.7h.8v7.4h-.7Zm-2.4-2.7c0,.7,.1,1.2,.4,1.6,.2,.3,.5,.5,.8,.5s.6-.2,.8-.5c.2-.3,.4-.8,.4-1.5s-.1-1.3-.4-1.6-.5-.5-.9-.5-.6,.2-.8,.5c-.2,.3-.3,.9-.3,1.6Z"/>
        <path class="uuid-7ee91ff0-7897-4b07-bbbe-39dd2be30ac8" d="M172.9,29.3v-.9c0,0,.2,0,.3,0s.3,0,.4,0c.1,0,.2-.2,.3-.3,0,0,.1-.3,.3-.9l-1.7-5.4h.8l.9,3.1c.1,.4,.2,.8,.3,1.2,0-.4,.2-.8,.3-1.2l.9-3.1h.8l-1.7,5.5c-.2,.7-.4,1.2-.5,1.4-.1,.2-.3,.4-.4,.5s-.3,.2-.5,.2-.3,0-.5-.1Z"/>
        <path class="uuid-7ee91ff0-7897-4b07-bbbe-39dd2be30ac8" d="M179.2,25.1h.7c0,.4,.1,.8,.3,1s.4,.3,.6,.3,.4,0,.5-.2c.1-.1,.2-.2,.3-.4,0-.2,.1-.6,.1-1v-5.1h.8v5.1c0,.9-.1,1.6-.4,1.9-.3,.4-.7,.6-1.3,.6s-.9-.2-1.2-.5c-.3-.4-.5-1-.5-1.7Z"/>
        <path class="uuid-7ee91ff0-7897-4b07-bbbe-39dd2be30ac8" d="M186.7,27.2v-.8c-.2,.3-.4,.5-.6,.7-.2,.2-.5,.2-.8,.2s-.6,0-.9-.3c-.2-.2-.4-.4-.5-.7s-.1-.7-.1-1.2v-3.3h.7v3c0,.6,0,.9,0,1.1,0,.2,.2,.3,.3,.5,.2,.1,.3,.2,.5,.2,.4,0,.7-.1,.9-.4,.2-.3,.3-.7,.3-1.4v-2.9h.8v5.4h-.7Z"/>
        <path class="uuid-7ee91ff0-7897-4b07-bbbe-39dd2be30ac8" d="M188.3,25.6h.7c0,.2,.2,.5,.4,.7s.5,.3,.8,.3,.6,0,.8-.2c.2-.2,.3-.4,.3-.6s0-.4-.2-.5c-.1,0-.4-.2-.8-.3-.6-.2-1-.3-1.2-.5-.2-.1-.3-.3-.5-.5-.1-.2-.2-.4-.2-.7,0-.5,.1-.8,.4-1.1,.3-.3,.7-.4,1.2-.4s.6,0,.9,.2,.4,.3,.6,.5c.1,.2,.2,.5,.3,.9h-.7c0-.5-.4-.8-1-.8s-.6,0-.7,.2-.2,.3-.2,.5,0,.4,.2,.5c0,0,.4,.2,.8,.3,.6,.2,1,.4,1.2,.5s.3,.3,.4,.5c.1,.2,.2,.4,.2,.7,0,.5-.2,.9-.5,1.2-.3,.3-.8,.5-1.3,.5-1.1,0-1.7-.6-1.8-1.7Z"/>
        <path class="uuid-7ee91ff0-7897-4b07-bbbe-39dd2be30ac8" d="M194.5,26.4v.8c-.1,0-.3,0-.5,0-.3,0-.5,0-.6-.2-.2-.1-.3-.2-.3-.4,0-.2,0-.5,0-1.1v-3.1h-.5v-.7h.5v-1.3l.7-.5v1.9h.8v.7h-.8v3.1c0,.3,0,.5,0,.6,0,.1,.2,.2,.4,.2s.2,0,.3,0Z"/>
        <path class="uuid-7ee91ff0-7897-4b07-bbbe-39dd2be30ac8" d="M195.2,20.8v-1h.7v1h-.7Zm0,6.4v-5.4h.7v5.4h-.7Z"/>
        <path class="uuid-7ee91ff0-7897-4b07-bbbe-39dd2be30ac8" d="M199.9,25.2h.7c0,.8-.3,1.2-.6,1.6-.3,.3-.7,.5-1.2,.5s-1.1-.2-1.4-.7c-.4-.5-.6-1.2-.6-2.1s.2-1.6,.6-2.1c.4-.5,.9-.7,1.5-.7s.8,.1,1.2,.4c.3,.3,.5,.7,.6,1.3h-.7c0-.2-.2-.5-.4-.7-.2-.2-.4-.3-.6-.3-.4,0-.7,.2-.9,.5-.2,.3-.4,.8-.4,1.6s.1,1.3,.3,1.6,.5,.5,.9,.5,.5-.1,.7-.3c.2-.2,.3-.6,.4-1Z"/>
        <path class="uuid-7ee91ff0-7897-4b07-bbbe-39dd2be30ac8" d="M201.3,20.8v-1h.7v1h-.7Zm0,6.4v-5.4h.7v5.4h-.7Z"/>
        <path class="uuid-7ee91ff0-7897-4b07-bbbe-39dd2be30ac8" d="M206.1,26.5c-.3,.3-.5,.5-.8,.6-.3,.1-.6,.2-.8,.2-.5,0-.8-.1-1.1-.4-.3-.3-.4-.7-.4-1.1s0-.6,.2-.8c.1-.2,.3-.4,.5-.6s.6-.2,1-.3c.6,0,1.1-.2,1.3-.3v-.2c0-.4,0-.6-.2-.8-.2-.2-.5-.3-.9-.3s-.6,0-.8,.2c-.2,.1-.3,.4-.4,.8h-.7c.1-.7,.3-1.1,.6-1.4,.3-.3,.8-.4,1.4-.4s.8,0,1.1,.3,.4,.4,.5,.6c0,.3,.1,.6,.1,1.1v1.2c0,.9,0,1.4,0,1.6,0,.2,0,.4,.2,.6h-.8c0-.2-.1-.4-.2-.7Zm0-2c-.3,.1-.7,.3-1.2,.3-.3,0-.5,.1-.7,.2-.1,0-.2,.2-.3,.3s-.1,.3-.1,.4c0,.3,0,.5,.2,.6,.2,.2,.4,.2,.7,.2s.5,0,.7-.2c.2-.1,.4-.3,.5-.6s.2-.6,.2-1v-.3Z"/>
        <path class="uuid-7ee91ff0-7897-4b07-bbbe-39dd2be30ac8" d="M134.9,36.2v-1.1h2.8v2.6c-.3,.3-.7,.5-1.2,.7-.5,.2-1,.3-1.6,.3s-1.3-.1-1.8-.4c-.5-.3-.9-.7-1.1-1.2-.3-.5-.4-1.1-.4-1.7s.1-1.3,.4-1.8c.3-.5,.7-.9,1.2-1.2,.4-.2,.9-.3,1.6-.3s1.4,.2,1.9,.5,.7,.8,.9,1.4l-1.3,.2c0-.3-.3-.6-.5-.8-.3-.2-.6-.3-.9-.3-.6,0-1,.2-1.4,.5-.3,.4-.5,.9-.5,1.6s.2,1.3,.5,1.7,.8,.6,1.3,.6,.5,0,.8-.2,.5-.2,.7-.4v-.8h-1.5Z"/>
        <path class="uuid-7ee91ff0-7897-4b07-bbbe-39dd2be30ac8" d="M138.6,36.2c0-.4,.1-.8,.3-1.2,.2-.4,.5-.7,.9-.9,.4-.2,.8-.3,1.2-.3,.7,0,1.3,.2,1.7,.7,.5,.5,.7,1,.7,1.7s-.2,1.3-.7,1.8c-.5,.5-1,.7-1.7,.7s-.8,0-1.2-.3c-.4-.2-.7-.5-.9-.9-.2-.4-.3-.8-.3-1.4Zm1.3,0c0,.5,.1,.8,.3,1.1,.2,.2,.5,.4,.8,.4s.6-.1,.8-.4c.2-.2,.3-.6,.3-1.1s-.1-.8-.3-1.1c-.2-.2-.5-.4-.8-.4s-.6,.1-.8,.4c-.2,.2-.3,.6-.3,1.1Z"/>
        <path class="uuid-7ee91ff0-7897-4b07-bbbe-39dd2be30ac8" d="M144.4,38.6v-6.5h1.2v2.3c.4-.4,.8-.7,1.4-.7s1,.2,1.4,.6c.4,.4,.6,1,.6,1.8s-.2,1.4-.6,1.9c-.4,.4-.8,.7-1.4,.7s-.5,0-.8-.2c-.3-.1-.5-.3-.7-.6v.7h-1.2Zm1.2-2.5c0,.5,0,.8,.2,1.1,.2,.3,.5,.5,.9,.5s.5-.1,.7-.4c.2-.2,.3-.6,.3-1.1s0-.9-.3-1.2c-.2-.2-.4-.4-.7-.4s-.5,.1-.7,.3c-.2,.2-.3,.6-.3,1.1Z"/>
        <path class="uuid-7ee91ff0-7897-4b07-bbbe-39dd2be30ac8" d="M150,33.3v-1.2h1.2v1.2h-1.2Zm0,5.3v-4.7h1.2v4.7h-1.2Z"/>
        <path class="uuid-7ee91ff0-7897-4b07-bbbe-39dd2be30ac8" d="M155.2,37.1l1.2,.2c-.2,.5-.4,.8-.8,1-.3,.2-.8,.4-1.3,.4-.8,0-1.4-.3-1.8-.8-.3-.4-.5-1-.5-1.6s.2-1.4,.6-1.8,.9-.7,1.5-.7,1.3,.2,1.7,.7c.4,.5,.6,1.2,.6,2.1h-3.1c0,.4,.1,.7,.3,.9,.2,.2,.4,.3,.7,.3s.4,0,.5-.2c.1-.1,.2-.3,.3-.5Zm0-1.3c0-.4-.1-.6-.3-.8-.2-.2-.4-.3-.6-.3s-.5,0-.7,.3c-.2,.2-.3,.5-.3,.8h1.9Z"/>
        <path class="uuid-7ee91ff0-7897-4b07-bbbe-39dd2be30ac8" d="M158.7,38.6h-1.2v-4.7h1.2v.7c.2-.3,.4-.5,.5-.6s.3-.2,.5-.2c.3,0,.6,0,.8,.2l-.4,1.1c-.2-.1-.4-.2-.6-.2s-.3,0-.4,.1c-.1,0-.2,.3-.3,.5,0,.3-.1,.8-.1,1.6v1.5Z"/>
        <path class="uuid-7ee91ff0-7897-4b07-bbbe-39dd2be30ac8" d="M165.3,38.6h-1.2v-2.4c0-.5,0-.8,0-1,0-.1-.1-.3-.3-.3-.1,0-.3-.1-.4-.1s-.4,0-.6,.2-.3,.3-.4,.5c0,.2,0,.6,0,1.1v2.1h-1.2v-4.7h1.2v.7c.4-.5,.9-.8,1.5-.8s.5,0,.8,.1,.4,.2,.5,.4c.1,.2,.2,.3,.2,.5,0,.2,0,.5,0,.8v2.9Z"/>
        <path class="uuid-7ee91ff0-7897-4b07-bbbe-39dd2be30ac8" d="M166.3,36.2c0-.4,.1-.8,.3-1.2,.2-.4,.5-.7,.9-.9,.4-.2,.8-.3,1.2-.3,.7,0,1.3,.2,1.7,.7,.5,.5,.7,1,.7,1.7s-.2,1.3-.7,1.8c-.5,.5-1,.7-1.7,.7s-.8,0-1.2-.3c-.4-.2-.7-.5-.9-.9-.2-.4-.3-.8-.3-1.4Zm1.3,0c0,.5,.1,.8,.3,1.1,.2,.2,.5,.4,.8,.4s.6-.1,.8-.4c.2-.2,.3-.6,.3-1.1s-.1-.8-.3-1.1c-.2-.2-.5-.4-.8-.4s-.6,.1-.8,.4c-.2,.2-.3,.6-.3,1.1Z"/>
        <path class="uuid-7ee91ff0-7897-4b07-bbbe-39dd2be30ac8" d="M179,38.6h-1.2v-.7c-.2,.3-.4,.5-.7,.6-.3,.1-.5,.2-.8,.2-.5,0-1-.2-1.4-.7-.4-.4-.6-1-.6-1.8s.2-1.4,.6-1.8c.4-.4,.8-.6,1.4-.6s1,.2,1.4,.7v-2.3h1.2v6.5Zm-3.3-2.5c0,.5,0,.9,.2,1.1,.2,.3,.5,.5,.8,.5s.5-.1,.7-.4c.2-.2,.3-.6,.3-1.1s0-.9-.3-1.2c-.2-.2-.4-.4-.7-.4s-.5,.1-.7,.4c-.2,.2-.3,.6-.3,1.1Z"/>
        <path class="uuid-7ee91ff0-7897-4b07-bbbe-39dd2be30ac8" d="M182.9,37.1l1.2,.2c-.2,.5-.4,.8-.8,1-.3,.2-.8,.4-1.3,.4-.8,0-1.4-.3-1.8-.8-.3-.4-.5-1-.5-1.6s.2-1.4,.6-1.8,.9-.7,1.5-.7,1.3,.2,1.7,.7c.4,.5,.6,1.2,.6,2.1h-3.1c0,.4,.1,.7,.3,.9,.2,.2,.4,.3,.7,.3s.4,0,.5-.2c.1-.1,.2-.3,.3-.5Zm0-1.3c0-.4-.1-.6-.3-.8-.2-.2-.4-.3-.6-.3s-.5,0-.7,.3c-.2,.2-.3,.5-.3,.8h1.9Z"/>
        <path class="uuid-7ee91ff0-7897-4b07-bbbe-39dd2be30ac8" d="M187.4,36.5h1.3c0,.3,.2,.6,.5,.8s.6,.3,.9,.3,.7,0,1-.3c.2-.2,.3-.4,.3-.6s0-.3-.1-.4c0-.1-.2-.2-.5-.3-.2,0-.5-.1-1-.3-.7-.2-1.2-.4-1.5-.6-.4-.4-.6-.8-.6-1.3s0-.6,.3-.9,.5-.5,.8-.7c.4-.2,.8-.2,1.3-.2,.8,0,1.4,.2,1.8,.5,.4,.4,.6,.8,.6,1.4h-1.3c0-.3-.2-.5-.4-.7-.2-.1-.5-.2-.8-.2s-.7,0-.9,.2c-.1,.1-.2,.2-.2,.4s0,.3,.2,.4c.2,.1,.6,.3,1.2,.4,.6,.2,1.1,.3,1.4,.5,.3,.2,.5,.4,.7,.7,.2,.3,.3,.6,.3,1s-.1,.7-.3,1c-.2,.3-.5,.6-.9,.7s-.8,.2-1.4,.2c-.8,0-1.4-.2-1.9-.6s-.7-.9-.8-1.7Z"/>
        <path class="uuid-7ee91ff0-7897-4b07-bbbe-39dd2be30ac8" d="M194.7,35.4l-1.1-.2c.1-.5,.3-.8,.7-1,.3-.2,.8-.3,1.4-.3s1,0,1.2,.2c.3,.1,.5,.3,.6,.5,.1,.2,.2,.6,.2,1.1v1.5c0,.4,0,.7,0,.9,0,.2,.1,.4,.2,.6h-1.2c0,0,0-.2-.1-.4,0,0,0-.1,0-.1-.2,.2-.4,.4-.7,.5-.2,.1-.5,.2-.8,.2-.5,0-.9-.1-1.1-.4s-.4-.6-.4-1,0-.5,.2-.7c.1-.2,.3-.4,.5-.5s.6-.2,1-.3c.6-.1,1-.2,1.2-.3h0c0-.4,0-.5-.2-.6s-.3-.2-.7-.2-.4,0-.5,.1c-.1,0-.2,.2-.3,.5Zm1.7,1c-.2,0-.4,.1-.8,.2-.3,0-.6,.1-.7,.2-.2,.1-.2,.3-.2,.4s0,.3,.2,.5c.1,.1,.3,.2,.5,.2s.4,0,.6-.2c.2-.1,.2-.2,.3-.4,0-.1,0-.3,0-.6v-.2Z"/>
        <path class="uuid-7ee91ff0-7897-4b07-bbbe-39dd2be30ac8" d="M198.8,38.6v-6.5h1.2v6.5h-1.2Z"/>
        <path class="uuid-7ee91ff0-7897-4b07-bbbe-39dd2be30ac8" d="M203.5,33.9v1h-.8v1.9c0,.4,0,.6,0,.7,0,0,0,.1,.1,.2,0,0,.1,0,.2,0s.3,0,.5-.1v1c-.2,.1-.5,.2-.9,.2s-.4,0-.6-.1c-.2,0-.3-.2-.4-.3,0-.1-.1-.3-.2-.5,0-.1,0-.4,0-.9v-2h-.6v-1h.6v-.9l1.2-.7v1.7h.8Z"/>
        <path class="uuid-7ee91ff0-7897-4b07-bbbe-39dd2be30ac8" d="M205.3,35.4l-1.1-.2c.1-.5,.3-.8,.7-1,.3-.2,.8-.3,1.4-.3s1,0,1.2,.2c.3,.1,.5,.3,.6,.5,.1,.2,.2,.6,.2,1.1v1.5c0,.4,0,.7,0,.9,0,.2,.1,.4,.2,.6h-1.2c0,0,0-.2-.1-.4,0,0,0-.1,0-.1-.2,.2-.4,.4-.7,.5-.2,.1-.5,.2-.8,.2-.5,0-.9-.1-1.1-.4s-.4-.6-.4-1,0-.5,.2-.7c.1-.2,.3-.4,.5-.5s.6-.2,1-.3c.6-.1,1-.2,1.2-.3h0c0-.4,0-.5-.2-.6s-.3-.2-.7-.2-.4,0-.5,.1c-.1,0-.2,.2-.3,.5Zm1.7,1c-.2,0-.4,.1-.8,.2-.3,0-.6,.1-.7,.2-.2,.1-.2,.3-.2,.4s0,.3,.2,.5c.1,.1,.3,.2,.5,.2s.4,0,.6-.2c.2-.1,.2-.2,.3-.4,0-.1,0-.3,0-.6v-.2Z"/>
      </g>
    </g>
  </g>
</svg>