<?xml version="1.0" encoding="UTF-8"?>
<svg id="uuid-b5527e1f-181e-4908-a9a0-75fb6f28599c" data-name="Layer 2" xmlns="http://www.w3.org/2000/svg" width="13.8" height="18.4" viewBox="0 0 13.8 18.4">
  <defs>
    <style>
      .uuid-36d9ab08-5d15-422f-a919-699504e8a5e1 {
        fill: #231f20;
      }
    </style>
  </defs>
  <g id="uuid-43b9bc50-7532-48cf-a66f-e57230cc8b15" data-name="novedades">
    <path class="uuid-36d9ab08-5d15-422f-a919-699504e8a5e1" d="M13.7,15.2c-.3-1.1-.9-1.7-2-2-.8-.2-1.5,0-2.1,.5,0,0,0,0-.1,0-.5-.4-1.1-.9-1.6-1.3-.9-.7-1.8-1.4-2.7-2.1,0,0,0,0,0-.1,0-.2,.1-.3,.1-.5h0c0,0,0-.1,0-.1,0-.4,0-.8-.1-1.1,0,0-.1-.2,0-.3,0,0,.2-.1,.2-.2,1.4-1.1,2.8-2.1,4.2-3.2,0,0,0,0,.1,0,.6,.5,1.4,.6,2.2,.5,.7-.2,1.3-.5,1.7-1.2,.3-.5,.4-1.1,.4-1.7,0-.3-.1-.6-.3-.9h0c0-.1,0-.2-.1-.3,0,0,0,0,0,0,0,0,0,0,0,0C12.7,.3,11.6-.2,10.6,0c-1.6,.4-2.5,2-1.9,3.6,0,0,0,0,0,.1-1.5,1.1-2.9,2.2-4.3,3.3,0,0,0,0-.1,0-.6-.4-1.3-.6-2-.5C1,6.8,0,7.8,0,9c0,.9,.3,1.7,1,2.3,.9,.8,2.2,.8,3.2,0,0,0,.1,0,.2,0,.5,.4,1.1,.8,1.6,1.3,.9,.7,1.8,1.4,2.7,2.1,0,0,0,0,0,.2-.3,.9-.3,1.8,.3,2.5,1,1.3,3,1.4,4.1,.2,.2-.3,.4-.5,.5-.9h0v-.2h0c0,0,0-.2,0-.3,0,0,0-.1,0-.2,0-.3,0-.6,0-.8Z"/>
  </g>
</svg>